<?xml version="1.0" standalone="no"?>
<!DOCTYPE svg PUBLIC "-//W3C//DTD SVG 20010904//EN"
 "http://www.w3.org/TR/2001/REC-SVG-20010904/DTD/svg10.dtd">
<svg version="1.0" xmlns="http://www.w3.org/2000/svg"
 width="1024.000000pt" height="1024.000000pt" viewBox="0 0 1024.000000 1024.000000"
 preserveAspectRatio="xMidYMid meet">

<g transform="translate(0.000000,1024.000000) scale(0.100000,-0.100000)"
fill="#000000" stroke="none">
<path d="M0 5120 l0 -5120 5120 0 5120 0 0 5120 0 5120 -5120 0 -5120 0 0
-5120z m5480 4350 c384 -43 618 -100 920 -220 235 -94 276 -114 470 -228 191
-113 244 -148 378 -255 109 -88 114 -90 165 -91 93 -2 177 -83 177 -172 0 -22
16 -48 66 -104 197 -223 392 -515 535 -800 122 -244 293 -720 275 -767 -3 -8
-2 -12 2 -9 18 11 66 -266 82 -468 11 -142 14 -529 3 -539 -3 -4 -12 1 -18 10
-10 14 -17 15 -36 7 -23 -11 -23 -11 14 -24 36 -14 37 -15 35 -60 l-1 -45 -4
44 c-4 37 -7 42 -24 38 -11 -3 -23 1 -29 11 -8 14 -9 12 -10 -9 0 -30 28 -47
42 -27 7 10 9 9 5 -2 -2 -8 -17 -18 -33 -21 -29 -7 -29 -7 6 -9 19 -1 29 -4
22 -7 -6 -2 -10 -9 -6 -14 3 -5 -6 -5 -20 1 -16 6 -26 6 -26 0 0 -5 16 -12 35
-16 30 -5 35 -10 35 -35 0 -16 -4 -29 -9 -29 -4 0 -6 11 -4 24 4 19 0 25 -22
30 -31 8 -38 4 -42 -27 -2 -17 -1 -19 6 -7 5 8 7 18 5 22 -3 4 1 5 9 2 15 -5
19 -34 5 -34 -5 0 -2 -7 7 -16 9 -9 13 -19 10 -22 -3 -3 -11 0 -17 6 -7 7 -19
12 -27 12 -11 0 -10 -4 5 -15 17 -13 17 -14 2 -15 -20 0 -25 -17 -5 -17 6 0
22 -3 35 -7 20 -7 22 -4 22 25 0 18 3 30 6 27 10 -11 -8 -119 -19 -115 -6 2
-13 9 -15 17 -3 7 0 10 7 6 6 -4 11 -1 11 8 0 9 -3 16 -7 17 -5 0 -16 2 -25 4
-10 2 -18 -1 -18 -6 0 -5 6 -9 13 -10 10 0 10 -2 0 -6 -7 -2 -13 -9 -13 -14 0
-6 6 -7 13 -3 6 4 9 4 5 -1 -4 -4 -3 -17 3 -29 7 -13 1 -10 -15 9 -18 22 -25
26 -26 13 0 -9 6 -19 13 -21 7 -3 4 -6 -6 -6 -28 -1 -9 -21 21 -22 15 0 20 -3
12 -6 -56 -18 -84 -50 -36 -41 17 4 23 1 19 -8 -3 -9 -14 -12 -29 -8 -15 4
-24 2 -24 -5 0 -6 9 -11 20 -11 17 0 19 -2 8 -14 -7 -8 -17 -13 -22 -13 -5 1
-11 -4 -13 -10 -3 -7 2 -13 11 -13 8 0 17 -4 20 -9 4 -5 -3 -7 -14 -4 -12 3
-20 0 -20 -7 0 -6 9 -14 20 -17 11 -3 17 -9 14 -15 -3 -5 -11 -5 -19 2 -9 7
-15 7 -19 1 -4 -5 1 -14 10 -19 11 -6 13 -11 5 -16 -6 -4 -11 -2 -11 3 0 6 -4
11 -10 11 -20 0 -9 -31 15 -42 14 -6 25 -15 25 -20 0 -5 -13 -2 -30 7 -45 23
-38 -7 8 -33 16 -9 22 -9 22 0 0 6 3 9 6 5 4 -3 -15 -72 -41 -152 -26 -80 -50
-144 -52 -141 -3 3 3 25 12 50 9 24 14 49 10 55 -3 6 -2 11 3 11 14 0 53 135
46 154 -3 9 -14 16 -24 16 -10 0 -21 6 -23 13 -3 7 -6 5 -6 -5 -1 -10 4 -18
10 -18 5 0 7 -5 3 -12 -5 -8 -2 -9 10 -5 10 4 15 3 11 -3 -3 -6 -12 -10 -20
-10 -9 0 -11 -7 -7 -22 5 -21 4 -22 -11 -9 -20 16 -23 1 -4 -18 10 -11 9 -13
-5 -8 -10 4 -18 2 -18 -3 0 -5 8 -14 18 -20 15 -9 14 -10 -5 -5 -16 5 -23 2
-23 -8 0 -8 -9 -34 -19 -58 -11 -24 -17 -47 -14 -52 3 -4 -3 -17 -13 -28 -9
-10 -14 -19 -9 -19 4 0 2 -7 -5 -15 -12 -15 -4 -21 23 -16 5 1 6 -3 2 -9 -3
-5 -14 -10 -25 -10 -10 0 -20 -7 -24 -15 -3 -8 -1 -15 4 -15 6 0 10 -4 10 -10
0 -5 -8 -6 -17 -3 -16 6 -17 5 -3 -13 8 -10 20 -22 25 -26 6 -5 3 -8 -7 -8 -9
0 -18 8 -20 18 -3 14 -6 14 -17 -6 -11 -20 -10 -26 6 -37 17 -13 17 -14 -4
-10 -27 5 -28 2 -7 -20 15 -15 14 -15 -12 -10 -22 5 -25 4 -14 -4 12 -8 12
-11 1 -11 -11 0 -11 -3 -1 -15 11 -13 10 -14 -4 -9 -16 6 -23 -10 -8 -19 4 -2
2 -3 -4 -1 -14 3 -37 -43 -29 -57 4 -5 -2 -9 -11 -9 -16 0 -16 -1 1 -20 10
-11 13 -20 7 -20 -6 0 -14 5 -18 11 -5 8 -10 6 -16 -5 -6 -11 -4 -21 6 -32 9
-8 16 -21 16 -27 0 -7 -9 -1 -19 12 -13 17 -20 20 -26 11 -4 -7 -2 -16 6 -22
11 -7 9 -8 -5 -4 -13 5 -17 2 -12 -9 3 -9 0 -15 -9 -15 -24 0 -17 -15 13 -28
21 -9 22 -10 3 -6 -16 4 -21 2 -17 -5 10 -15 -7 -14 -22 1 -12 12 -15 7 -11
-18 0 -4 -5 -11 -13 -15 -10 -7 -10 -9 0 -9 6 0 12 -5 12 -11 0 -5 -4 -7 -10
-4 -10 6 -39 -22 -42 -40 0 -5 -8 -15 -17 -22 -14 -10 -14 -14 4 -35 l20 -23
-22 19 c-20 17 -23 17 -23 3 0 -23 4 -32 12 -30 4 2 5 -4 1 -12 -5 -13 -7 -13
-18 2 -8 10 -15 16 -17 13 -20 -26 -36 -59 -30 -63 4 -2 2 -3 -4 -1 -6 1 -16
-6 -22 -17 -10 -15 -9 -17 5 -12 11 4 14 3 9 -5 -4 -7 -15 -12 -24 -12 -15 -1
-14 -3 3 -16 19 -15 19 -15 -10 -8 -29 6 -29 6 -10 -9 20 -16 18 -18 -20 -21
-12 0 -19 -8 -19 -18 1 -10 -4 -18 -12 -18 -8 0 -14 -4 -14 -10 0 -13 17 -13
25 0 3 5 13 6 21 3 13 -5 13 -7 2 -14 -14 -9 -78 -12 -78 -4 0 3 29 42 63 87
103 134 278 409 326 513 119 253 151 335 209 530 48 159 59 202 85 335 47 236
52 293 52 580 0 495 -57 799 -232 1245 -70 177 -81 200 -171 370 -97 182 -233
386 -371 558 -108 133 -124 156 -99 141 7 -4 8 -3 4 5 -4 6 -11 9 -16 6 -5 -3
-12 0 -16 6 -4 7 -22 9 -48 5 l-41 -6 33 16 33 17 -28 18 c-15 10 -29 16 -32
13 -3 -3 1 -9 9 -15 10 -6 -9 -8 -57 -6 -39 1 -70 4 -68 7 2 3 -6 7 -17 7 -19
2 -19 1 -3 -18 10 -10 16 -19 13 -19 -2 0 -15 12 -29 27 -13 14 -19 23 -13 20
7 -4 15 0 18 9 3 8 2 13 -3 10 -5 -3 -17 6 -26 20 -9 15 -12 23 -6 20 6 -4 11
-2 11 3 0 6 7 11 15 11 8 0 15 -4 15 -10 0 -13 41 -50 68 -61 27 -11 76 11 92
40 39 73 -44 156 -125 125 -9 -4 -25 -25 -35 -48 -11 -23 -19 -33 -19 -23 -1
11 -11 28 -23 38 l-23 20 28 -17 c29 -18 37 -5 11 20 -19 19 -26 20 -43 4 -10
-11 -11 -9 -5 5 8 23 -17 50 -121 132 -303 237 -736 447 -1125 545 -320 81
-528 105 -900 105 -326 -1 -474 -16 -730 -76 -244 -57 -584 -183 -785 -289
-127 -68 -318 -189 -423 -267 -53 -40 -101 -73 -107 -73 -12 0 -45 51 -45 69
0 15 160 133 312 229 411 263 887 431 1403 496 245 31 498 33 735 6z m-2620
-780 c47 -24 100 -78 116 -117 47 -111 -20 -278 -141 -348 -60 -36 -117 -41
-193 -17 -35 11 -61 18 -58 15 3 -3 -12 -27 -33 -52 -21 -25 -57 -74 -80 -109
-23 -34 -46 -60 -51 -57 -6 3 -8 0 -5 -7 3 -7 -20 -46 -50 -87 -31 -41 -96
-145 -146 -232 -227 -398 -344 -732 -393 -1129 -9 -69 -21 -156 -27 -195 -15
-98 -20 -338 -9 -475 28 -349 126 -765 247 -1054 161 -383 368 -716 586 -943
l69 -71 66 1 c86 2 141 -25 177 -86 14 -24 25 -52 25 -63 -1 -10 -7 -2 -15 19
-23 65 -94 125 -136 114 -11 -3 -17 -1 -13 4 6 11 -11 11 -55 3 -18 -4 -28
-11 -24 -17 4 -6 -7 -1 -24 11 -33 24 -96 91 -180 193 -31 37 -61 65 -66 62
-6 -3 -7 -1 -3 5 7 12 -100 172 -115 172 -6 0 -8 4 -4 9 3 5 -1 16 -9 23 -7 8
-21 30 -31 48 -10 19 -20 29 -22 23 -3 -7 -12 -13 -21 -12 -11 0 -12 2 -4 6 6
2 9 10 6 15 -4 7 -2 8 4 4 7 -4 12 -3 12 3 0 5 -3 11 -7 13 -5 2 -17 20 -27
40 -10 21 -23 35 -27 32 -5 -3 -6 3 -2 12 4 12 3 15 -5 10 -8 -4 -10 -2 -6 7
3 8 -2 17 -11 21 -9 3 -14 10 -10 15 3 5 0 13 -6 17 -8 4 -9 3 -5 -4 4 -7 3
-12 -3 -12 -5 0 -15 13 -22 29 -7 16 -17 27 -21 25 -12 -7 -10 24 3 48 9 16 8
19 -3 16 -7 -3 -14 -10 -14 -16 -1 -7 -2 -17 -3 -23 0 -5 -5 -8 -10 -4 -11 6
-10 45 1 45 4 0 8 4 8 9 0 5 -9 7 -20 4 -11 -3 -17 -10 -13 -16 3 -6 1 -7 -5
-3 -7 4 -12 1 -12 -6 -1 -21 -37 54 -95 195 -102 253 -175 533 -225 867 -20
139 -26 240 -10 190 4 -14 8 -22 9 -18 1 4 12 3 26 -2 16 -6 27 -6 31 2 4 6 3
8 -3 5 -6 -4 -21 5 -33 18 -13 14 -30 25 -38 25 -36 0 8 613 63 880 23 113
118 428 154 512 42 98 64 138 72 132 5 -3 6 1 3 9 -6 17 80 194 177 359 76
132 143 231 268 396 l85 113 -19 31 c-23 40 -25 148 -2 201 9 21 45 67 80 102
94 94 181 114 277 65z m4550 -320 c8 -5 11 -10 5 -10 -5 0 -17 5 -25 10 -8 5
-10 10 -5 10 6 0 17 -5 25 -10z m-2109 -363 c74 -41 188 -106 254 -145 564
-326 756 -436 937 -537 187 -104 245 -141 258 -164 7 -13 10 -329 10 -941 0
-774 -2 -926 -14 -955 -19 -44 -59 -72 -305 -211 -113 -65 -231 -132 -261
-149 -30 -18 -155 -89 -278 -158 -205 -116 -225 -125 -254 -116 -17 5 -34 7
-36 4 -5 -5 12 -12 43 -17 14 -3 -3 -16 -60 -47 -44 -25 -165 -91 -268 -149
-161 -89 -193 -103 -220 -98 -27 5 -156 76 -467 256 -77 45 -546 315 -883 508
-178 102 -243 144 -254 165 -12 24 -15 169 -20 950 l-5 922 23 34 c24 33 92
74 694 415 447 254 871 498 880 508 23 23 93 0 226 -75z m-2738 -974 c-7 -2
-21 -2 -30 0 -10 3 -4 5 12 5 17 0 24 -2 18 -5z m87 -76 c0 -7 -6 -3 -12 8 -6
11 -16 27 -22 35 -6 9 -1 5 12 -8 12 -13 22 -28 22 -35z m-112 36 c-10 -2 -26
-2 -35 0 -10 3 -2 5 17 5 19 0 27 -2 18 -5z m72 -44 c6 -11 9 -25 6 -32 -2 -7
-5 -4 -5 6 -1 10 -13 30 -28 44 -23 21 -24 24 -6 14 13 -6 27 -21 33 -32z m47
-31 c-3 -8 -6 -5 -6 6 -1 11 2 17 5 13 3 -3 4 -12 1 -19z m-37 -37 c0 -20 -45
-81 -60 -81 -5 0 5 13 21 29 16 16 29 39 29 50 0 12 2 21 5 21 3 0 5 -9 5 -19z
m20 -56 c-12 -20 -36 -42 -53 -50 -18 -9 -23 -10 -13 -3 37 24 67 63 74 93 4
20 7 24 10 12 2 -9 -6 -33 -18 -52z m-192 0 c-3 -3 -9 2 -12 12 -6 14 -5 15 5
6 7 -7 10 -15 7 -18z m-27 -32 c13 -16 12 -17 -3 -4 -10 7 -18 15 -18 17 0 8
8 3 21 -13z m6086 -1335 c-3 -7 -5 -2 -5 12 0 14 2 19 5 13 2 -7 2 -19 0 -25z
m-12 -60 c-4 -24 -11 -47 -17 -53 -6 -6 -7 0 -4 18 3 15 8 38 11 52 9 42 17
28 10 -17z m-31 -142 c-9 -37 -19 -64 -22 -62 -3 3 3 35 13 71 23 86 31 78 9
-9z m-114 -236 c0 -5 -5 -10 -11 -10 -5 0 -7 5 -4 10 3 6 8 10 11 10 2 0 4 -4
4 -10z m-30 -201 c-11 -24 -20 -39 -20 -33 0 17 30 87 36 82 2 -3 -5 -25 -16
-49z m-943 -55 c-3 -3 -12 -4 -19 -1 -8 3 -5 6 6 6 11 1 17 -2 13 -5z m923 -2
c0 -5 -7 -17 -16 -28 -8 -10 -14 -14 -11 -9 2 6 7 18 10 28 7 17 17 23 17 9z
m-65 -142 c-14 -27 -28 -50 -30 -50 -3 0 6 23 20 50 14 28 28 50 30 50 3 0 -6
-22 -20 -50z m-61 -46 c3 -8 2 -12 -4 -9 -6 3 -10 10 -10 16 0 14 7 11 14 -7z
m20 -38 c-3 -9 -10 -13 -15 -10 -5 3 -3 11 4 19 15 16 19 13 11 -9z m-6094
-49 c0 -16 -18 3 -23 25 -6 22 -5 22 8 4 8 -11 15 -24 15 -29z m6054 -28 c-14
-28 -27 -49 -30 -46 -3 2 5 21 16 40 12 20 19 41 15 47 -3 5 1 10 10 10 13 0
11 -9 -11 -51z m-6026 -34 c-3 -3 -9 2 -12 12 -6 14 -5 15 5 6 7 -7 10 -15 7
-18z m1420 -17 c8 -8 12 -51 12 -129 0 -65 4 -129 10 -144 29 -76 135 -155
207 -155 23 0 36 -6 43 -21 7 -11 9 -23 6 -26 -3 -3 -8 2 -12 11 -3 9 -10 13
-15 10 -5 -2 -17 0 -28 5 -14 8 -20 7 -24 -4 -3 -7 -14 -14 -24 -14 -10 1 -41
-2 -70 -6 -36 -5 -50 -11 -46 -21 2 -7 10 -11 17 -8 7 3 28 -6 48 -19 38 -26
128 -46 128 -28 0 6 -6 9 -12 7 -7 -1 -10 -1 -5 1 4 3 5 9 1 14 -3 5 0 9 5 9
6 0 11 -5 11 -11 0 -5 4 -7 10 -4 5 3 7 0 4 -8 -2 -7 1 -14 8 -15 7 -1 29 -5
48 -8 l35 -6 -42 30 c-49 37 -61 52 -33 45 11 -3 18 -9 15 -13 -3 -4 11 -17
31 -29 53 -31 35 -43 -54 -36 -141 12 -204 37 -290 119 -86 81 -95 106 -100
279 -4 131 -3 150 13 167 21 23 84 27 103 8z m3254 -10 c20 -16 30 -111 11
-103 -16 6 -60 -10 -47 -17 25 -14 45 -17 38 -7 -4 7 -1 10 7 7 11 -4 13 -25
12 -93 -4 -114 -23 -155 -115 -239 -96 -90 -145 -108 -312 -114 -87 -3 -127
-1 -122 6 3 6 0 13 -6 15 -9 4 -10 6 -1 6 6 1 15 -3 18 -9 3 -5 11 -10 17 -10
6 0 5 6 -3 16 -10 13 -10 17 2 25 8 5 19 9 24 9 6 0 4 -4 -3 -8 -23 -15 -2
-42 32 -42 26 1 28 2 14 11 -10 5 -18 15 -18 21 0 7 5 6 15 -2 20 -16 90 -26
81 -11 -4 6 -14 11 -22 11 -8 0 -14 5 -14 10 0 6 -5 10 -11 10 -5 0 -7 -4 -4
-10 3 -5 1 -10 -4 -10 -6 0 -11 6 -11 13 0 6 -12 13 -26 14 -15 0 -29 6 -33
11 -3 5 -17 12 -31 13 -26 4 -31 21 -8 27 9 2 8 0 -2 -8 -12 -9 -9 -11 15 -9
52 2 75 -1 75 -10 0 -5 -10 -7 -22 -4 -20 4 -21 3 -5 -7 9 -6 21 -8 27 -5 5 3
22 -1 38 -9 16 -8 32 -13 35 -10 3 3 8 -4 12 -15 6 -21 25 -29 25 -11 0 6 5
10 11 10 5 0 7 -4 4 -10 -3 -5 1 -10 10 -10 26 0 7 18 -41 40 -24 11 -44 22
-44 25 0 5 27 -3 57 -18 13 -6 26 -7 30 -4 3 4 -1 7 -10 7 -9 0 -17 5 -17 10
0 12 40 -6 40 -18 0 -4 4 -13 9 -20 6 -10 23 -6 79 19 40 17 72 34 72 38 0 3
-13 6 -29 7 -26 1 -79 40 -68 51 3 2 15 -5 26 -16 12 -12 24 -22 29 -22 50 -8
64 -6 69 8 4 9 20 29 37 46 17 16 24 28 16 25 -16 -6 -50 8 -50 20 0 4 10 9
22 9 18 2 20 0 8 -8 -11 -7 -8 -9 15 -7 35 4 61 43 43 65 -6 8 -13 11 -15 9
-3 -2 -23 2 -45 10 -33 11 -39 11 -35 0 3 -7 -3 -19 -14 -27 -23 -16 -25 -29
-4 -29 8 0 15 6 15 14 0 8 8 17 19 21 21 6 51 -3 51 -16 0 -5 0 -11 0 -14 0
-3 -2 -5 -5 -5 -3 0 -5 3 -4 7 2 15 -33 25 -44 13 -9 -10 -9 -11 0 -6 6 3 15
2 18 -4 4 -6 3 -9 -2 -8 -4 1 -18 -1 -30 -6 -19 -6 -21 -10 -10 -27 6 -10 19
-19 27 -19 12 -1 11 -3 -2 -11 -12 -7 -24 -6 -38 1 -16 8 -18 8 -14 -4 8 -20
-9 -27 -44 -17 -34 10 -75 4 -66 -10 3 -5 2 -9 -3 -9 -4 -1 -30 -3 -58 -6 -27
-3 -62 -5 -77 -5 -15 0 -30 -4 -33 -9 -4 -6 -11 -10 -16 -10 -6 0 -8 4 -5 9 4
5 -49 9 -125 10 -85 0 -129 -4 -127 -10 2 -6 6 -9 9 -7 3 2 14 -4 24 -12 17
-14 18 -13 12 3 -4 11 -3 16 4 12 6 -4 8 -13 5 -21 -3 -8 1 -14 9 -14 8 0 15
-5 15 -11 0 -7 -10 -5 -25 5 -13 9 -31 16 -39 16 -8 0 -19 8 -25 18 -7 12 -23
17 -60 17 -28 1 -51 -2 -51 -5 0 -3 -17 -4 -37 -3 -75 4 -89 4 -161 2 -39 0
-75 -6 -78 -11 -4 -7 -9 -7 -13 0 -3 5 -23 13 -44 16 -24 4 -36 2 -32 -4 4 -6
-7 -8 -27 -5 -28 5 -30 4 -10 -4 26 -12 30 -41 5 -36 -10 2 -22 4 -26 4 -5 1
-6 5 -3 10 3 4 -1 17 -9 27 -10 14 -17 16 -25 8 -8 -8 -7 -15 4 -26 11 -11 12
-18 3 -27 -8 -8 -3 -11 20 -11 38 0 65 -9 58 -20 -3 -5 -1 -11 5 -15 5 -3 10
-1 10 4 0 14 37 14 45 1 3 -5 22 -10 41 -10 21 0 33 4 29 10 -3 6 -15 10 -26
10 -10 0 -19 7 -19 15 0 24 30 18 52 -10 18 -23 26 -26 89 -24 47 1 66 5 62
13 -4 6 1 5 10 -2 9 -8 33 -13 54 -12 21 1 54 1 73 0 28 -1 31 -3 15 -9 -11
-5 -150 -5 -310 0 -159 4 -302 8 -316 8 -21 1 -29 8 -38 32 -6 17 -14 28 -19
26 -4 -3 -30 -8 -56 -11 -27 -3 -52 -8 -54 -11 -3 -3 -12 1 -20 8 -13 9 -14 9
-8 0 4 -7 3 -13 -3 -13 -5 0 -14 7 -19 16 -5 9 -23 17 -40 18 -17 1 -34 5 -39
9 -9 9 63 4 87 -6 8 -4 49 -5 90 -4 42 2 81 -1 89 -7 12 -9 12 -7 2 14 l-12
25 17 -22 c18 -25 34 -30 34 -10 0 7 12 13 28 14 15 0 19 -1 9 -4 -9 -2 -15
-9 -11 -14 3 -5 0 -8 -7 -7 -6 2 -14 -3 -16 -10 -4 -9 2 -11 21 -6 16 4 26 2
26 -4 0 -6 -10 -13 -22 -15 -13 -3 -5 -5 17 -5 22 0 58 -2 80 -6 22 -3 33 -3
25 0 -67 30 -111 54 -87 49 15 -3 27 -1 27 3 0 19 -37 47 -65 50 -24 2 -27 0
-15 -8 11 -8 2 -9 -34 -4 -35 5 -47 4 -42 -5 9 -13 -30 -14 -59 0 -16 7 -14 9
13 6 17 -2 32 1 32 5 0 5 -38 8 -84 6 -69 -2 -82 -6 -78 -18 5 -12 3 -13 -10
-2 -11 9 -23 10 -42 2 -43 -16 -26 -40 29 -40 12 0 28 -7 36 -16 11 -13 9 -14
-15 -8 -14 3 -34 7 -44 8 -9 0 -22 8 -29 16 -9 11 -12 12 -13 2 0 -9 -7 -11
-22 -7 -38 12 -45 25 -10 21 24 -2 33 1 37 15 3 10 14 19 23 22 9 2 -32 4 -93
5 -75 1 -105 -1 -95 -8 13 -8 12 -10 -2 -10 -10 0 -18 5 -18 10 0 6 -5 10 -11
10 -5 0 -7 -6 -3 -12 6 -10 4 -10 -7 0 -7 6 -22 12 -33 12 -18 0 -19 -2 -6
-11 12 -9 11 -9 -5 -4 -11 4 -29 9 -40 12 -16 4 -17 3 -5 -6 8 -6 10 -11 4
-11 -5 0 -15 5 -22 12 -9 9 -15 8 -25 -6 -8 -10 -20 -16 -28 -13 -10 4 -9 6 4
6 33 2 8 19 -28 19 -19 0 -32 -4 -29 -9 3 -5 -2 -9 -12 -9 -13 0 -14 -3 -4
-15 14 -17 35 -21 25 -5 -13 21 9 9 31 -17 26 -30 32 -49 12 -36 -7 4 -22 9
-33 10 -10 2 -29 10 -42 18 -31 21 -36 19 -22 -7 9 -19 9 -21 -2 -10 -7 6 -24
12 -38 13 -23 0 -22 2 12 16 20 8 37 19 37 23 0 9 -70 7 -85 -2 -6 -4 -17 -3
-25 3 -16 9 -6 11 77 13 23 1 45 5 50 10 4 4 -44 5 -107 2 -63 -2 -121 -5
-129 -5 -8 -1 -11 -4 -8 -8 4 -3 1 -13 -5 -22 -10 -13 -10 -14 2 -3 8 6 18 12
22 12 13 0 9 -38 -4 -43 -8 -3 -3 -9 12 -15 25 -11 25 -11 2 -11 -12 -1 -25 6
-28 14 -9 24 -44 39 -57 26 -8 -8 -4 -11 16 -11 15 0 27 -4 27 -10 0 -5 -13
-10 -30 -10 -16 0 -30 3 -30 8 0 7 -61 34 -107 47 -14 4 -20 11 -16 21 6 17
-1 18 -27 4 -10 -6 -21 -6 -24 -1 -8 13 -106 13 -106 0 0 -7 9 -9 21 -6 18 5
18 3 -6 -20 -21 -22 -29 -24 -48 -15 -22 10 -21 11 6 11 15 1 27 6 27 12 0 5
-4 8 -9 4 -5 -3 -16 1 -24 10 -11 10 -44 15 -113 18 -55 1 479 4 1186 4 707 1
1310 5 1340 8 30 4 72 16 93 26 34 16 41 16 73 3 27 -12 34 -12 28 -2 -11 16
-12 30 -5 43 3 6 -1 3 -11 -7 -9 -10 -22 -18 -28 -18 -7 0 4 18 23 39 57 63
61 77 67 206 5 115 6 120 30 132 32 16 52 16 72 1z m-4585 -4 c-3 -3 -12 -4
-19 -1 -8 3 -5 6 6 6 11 1 17 -2 13 -5z m5888 -24 c-9 -16 -18 -30 -21 -30 -2
0 2 14 11 30 9 17 18 30 21 30 2 0 -2 -13 -11 -30z m-38 -6 c-3 -3 -12 -4 -19
-1 -8 3 -5 6 6 6 11 1 17 -2 13 -5z m-5887 -24 c6 -11 8 -20 6 -20 -3 0 -10 9
-16 20 -6 11 -8 20 -6 20 3 0 10 -9 16 -20z m5875 -40 c3 -6 -1 -7 -9 -4 -18
7 -21 14 -7 14 6 0 13 -4 16 -10z m-130 -149 c-6 -5 -25 10 -25 20 0 5 6 4 14
-3 8 -7 12 -15 11 -17z m-25 -91 c-11 -16 -26 -33 -32 -36 -7 -4 1 9 16 29 34
44 46 50 16 7z m-90 -28 c0 -5 12 -12 27 -18 25 -9 25 -10 8 -24 -11 -9 -16
-10 -11 -3 4 8 -2 17 -18 25 -26 11 -35 28 -16 28 6 0 10 -4 10 -8z m-5379
-59 c13 -16 12 -17 -3 -4 -17 13 -22 21 -14 21 2 0 10 -8 17 -17z m4256 -7 c4
-3 -8 -6 -25 -6 -17 0 -33 4 -36 8 -5 9 52 7 61 -2z m1081 -2 c12 0 25 -4 29
-7 3 -4 13 -1 22 5 13 10 14 10 3 -2 -7 -9 -30 -13 -61 -13 -35 1 -53 -3 -63
-14 -8 -11 -8 -14 -1 -10 15 9 25 -6 17 -27 -5 -12 -10 -13 -27 -5 -17 10 -19
9 -13 -6 4 -13 2 -16 -9 -11 -18 7 -20 -10 -2 -18 6 -2 1 -4 -13 -3 -16 1 -25
-3 -25 -13 0 -11 11 -15 38 -16 35 -1 43 4 83 54 24 29 44 51 44 47 0 -16
-105 -133 -111 -123 -4 6 -21 9 -37 6 -17 -2 -29 -1 -26 4 11 17 -14 7 -34
-15 -17 -18 -19 -26 -10 -35 10 -10 10 -15 -2 -22 -8 -6 -21 -8 -27 -5 -21 7
-15 -4 15 -30 l27 -24 -70 -68 c-68 -66 -213 -197 -265 -238 l-25 -20 18 22
c20 23 11 36 -25 38 -26 2 -22 -13 5 -18 21 -4 21 -4 -3 -6 -14 -1 -32 -6 -40
-12 -12 -8 -10 -9 9 -4 15 5 21 3 17 -3 -3 -6 -1 -12 5 -14 18 -6 -144 -132
-246 -191 -39 -23 -11 0 59 49 33 22 43 34 31 34 -15 0 -16 3 -7 12 10 10 15
10 20 1 5 -8 27 3 69 35 66 50 74 60 46 57 -33 -4 -54 -17 -49 -31 3 -8 0 -11
-10 -7 -7 3 -14 9 -14 14 0 5 -5 9 -11 9 -6 0 -8 -7 -5 -17 6 -16 6 -16 -12 0
-25 23 -39 22 -19 -1 10 -10 14 -22 10 -27 -5 -4 3 -4 16 0 16 5 21 4 17 -4
-4 -5 -20 -9 -35 -8 -22 1 -28 6 -26 20 5 22 4 21 -39 -4 -20 -12 -33 -25 -30
-30 3 -5 2 -9 -3 -8 -20 3 -34 -2 -28 -11 10 -16 -20 -41 -33 -28 -11 11 -32
3 -32 -13 0 -6 4 -8 8 -5 4 2 14 1 21 -3 9 -6 5 -10 -13 -13 -14 -3 -23 -1
-20 3 3 5 -2 9 -10 9 -9 0 -16 -4 -16 -10 0 -5 -8 -10 -17 -10 -15 0 -16 -2
-3 -10 8 -5 16 -6 18 -1 1 4 16 5 33 3 52 -8 11 -21 -49 -16 -52 4 -53 4 -48
-18 3 -13 3 -17 0 -10 -3 6 -11 9 -17 5 -6 -4 -22 -8 -36 -9 -13 -2 -28 -9
-32 -16 -4 -7 -23 -18 -41 -24 -18 -6 -32 -17 -30 -24 1 -6 -2 -9 -8 -5 -6 4
-31 -3 -55 -14 -95 -45 -53 -17 100 65 246 132 522 323 661 456 36 35 44 38
63 29 14 -8 21 -8 21 -1 0 5 -7 10 -16 10 -11 0 18 36 72 93 49 50 127 136
173 190 51 60 87 94 94 90 7 -4 22 -8 35 -9z m-1231 -37 c17 -20 17 -20 0 -14
-10 4 -23 7 -28 7 -6 0 -7 5 -3 12 5 8 2 9 -9 5 -11 -4 -17 -1 -17 7 0 19 34
9 57 -17z m58 15 c-3 -3 -11 0 -18 7 -9 10 -8 11 6 5 10 -3 15 -9 12 -12z
m-4050 -103 c42 -49 74 -89 72 -89 -3 0 -45 46 -93 103 -49 56 -81 96 -72 89
9 -7 51 -53 93 -103z m1409 102 c3 -5 16 -7 29 -5 12 2 16 1 9 -2 -10 -5 -10
-9 0 -22 9 -11 3 -9 -17 4 -16 12 -37 24 -45 27 -12 4 -12 6 2 6 9 1 19 -3 22
-8z m1048 -7 c-18 -13 -21 -19 -11 -30 9 -11 15 -11 25 -3 14 12 38 3 29 -11
-3 -5 10 -9 29 -8 26 1 41 -5 56 -23 16 -19 19 -20 13 -5 -5 14 -3 17 7 11 21
-13 81 -15 73 -2 -4 7 0 8 13 3 52 -21 50 -21 35 -3 -16 20 -2 23 18 5 11 -10
13 -10 7 0 -12 20 8 13 22 -8 14 -23 25 -21 -131 -26 -59 -1 -105 1 -102 6 9
14 -16 23 -28 11 -14 -14 -94 -15 -102 -1 -3 6 -1 10 5 10 6 0 8 5 5 10 -3 6
-18 10 -33 10 -15 0 -34 5 -42 10 -11 8 -8 9 13 4 37 -9 84 3 69 18 -13 13 12
37 38 38 9 0 6 -6 -8 -16z m288 5 c0 -4 10 -9 23 -12 12 -2 0 -3 -28 -1 -75 4
-83 6 -50 13 40 9 55 9 55 0z m756 4 c-3 -4 -17 -8 -29 -10 -17 -2 -19 -1 -7
7 17 11 47 14 36 3z m167 -11 c-3 -12 4 -23 21 -32 14 -7 26 -17 26 -22 0 -10
-17 -11 -22 0 -1 4 -16 17 -32 30 -16 12 -22 22 -15 22 11 0 11 2 -1 10 -12 8
-11 10 7 10 15 0 20 -5 16 -18z m-2423 4 c0 -2 -9 -6 -20 -9 -11 -3 -18 -1
-14 4 5 9 34 13 34 5z m370 -11 c-7 -8 -17 -12 -23 -8 -6 4 -3 9 9 14 27 11
28 11 14 -6z m328 -3 c-3 -10 0 -19 6 -19 6 0 22 -3 36 -7 24 -7 24 -6 6 8
-11 9 -24 16 -30 16 -6 0 -6 4 1 11 15 15 57 -27 49 -48 -5 -11 -2 -14 11 -9
15 6 16 5 6 -5 -10 -10 -16 -10 -25 -1 -15 15 -31 16 -22 0 5 -8 2 -9 -12 -4
-10 5 -27 10 -36 13 -9 3 -15 11 -12 19 2 8 6 21 9 29 6 22 18 19 13 -3z m552
13 c0 -2 -9 -9 -20 -15 -12 -6 -20 -7 -20 -1 0 5 8 12 18 14 9 3 18 5 20 6 1
0 2 -1 2 -4z m615 -11 c-9 -9 -18 -14 -21 -11 -9 9 6 27 22 27 13 0 13 -2 -1
-16z m255 3 c14 0 32 3 42 7 11 5 18 1 23 -13 4 -12 15 -21 28 -22 13 0 16 -3
8 -6 -11 -5 -11 -7 0 -14 9 -6 10 -9 2 -9 -6 0 -15 5 -18 10 -3 6 -16 10 -28
11 -12 0 -16 3 -9 6 23 9 12 21 -15 17 -41 -5 -104 6 -97 18 3 5 13 6 23 2 9
-4 27 -7 41 -7z m543 6 c-7 -2 -19 -2 -25 0 -7 3 -2 5 12 5 14 0 19 -2 13 -5z
m-2248 -13 c-28 -12 -37 -12 -30 0 3 6 16 10 28 9 21 0 21 -1 2 -9z m650 0
c-3 -5 -10 -10 -16 -10 -5 0 -9 5 -9 10 0 6 7 10 16 10 8 0 12 -4 9 -10z m85
0 c18 -12 2 -12 -25 0 -13 6 -15 9 -5 9 8 0 22 -4 30 -9z m850 0 c-8 -5 -10
-10 -5 -11 6 0 30 -3 54 -5 25 -2 50 -9 55 -15 8 -7 1 -8 -22 -4 -45 7 -45 8
-57 6 -5 -1 -3 -6 5 -11 13 -8 13 -10 -1 -10 -9 0 -24 10 -34 23 -12 17 -25
23 -48 20 -30 -2 -30 -2 -7 6 14 5 36 9 50 10 20 1 22 -1 10 -9z m829 -7 c-6
-7 -15 -10 -20 -7 -5 3 -9 0 -9 -6 0 -7 -6 -5 -15 4 -20 20 -20 21 20 22 27 0
32 -2 24 -13z m-2881 -13 c5 -13 3 -13 -11 -1 -10 8 -17 9 -17 3 0 -6 8 -16
18 -21 15 -9 14 -10 -6 -11 -14 0 -21 4 -17 11 4 6 -2 13 -14 16 -33 8 -25 23
11 20 17 -1 34 -9 36 -17z m1962 12 c0 -5 -6 -9 -12 -10 -7 -1 -26 -3 -43 -6
-16 -3 -21 -3 -10 0 11 3 24 10 30 15 11 11 35 12 35 1z m391 -9 c12 -16 12
-16 -1 -6 -8 6 -31 13 -50 16 l-35 4 36 1 c24 1 41 -4 50 -15z m-2316 -3 c-3
-5 -10 -10 -16 -10 -5 0 -9 5 -9 10 0 6 7 10 16 10 8 0 12 -4 9 -10z m195 6
c0 -9 -40 -13 -46 -5 -3 5 6 9 20 9 14 0 26 -2 26 -4z m160 -6 c8 -5 11 -10 5
-10 -5 0 -17 5 -25 10 -8 5 -10 10 -5 10 6 0 17 -5 25 -10z m154 -12 c18 -26
10 -41 -8 -15 -7 9 -22 17 -32 17 -16 0 -17 2 -4 10 22 14 27 13 44 -12z m510
6 c10 -25 1 -27 -19 -4 -15 17 -16 20 -3 20 9 0 19 -7 22 -16z m74 -21 c12
-13 34 -23 47 -23 14 0 25 -4 25 -9 0 -15 -60 6 -85 29 -12 11 -24 18 -27 15
-3 -3 -11 1 -17 9 -21 25 30 6 57 -21z m1257 14 c0 -7 17 -10 48 -8 28 1 47
-2 47 -8 0 -6 -7 -7 -17 -4 -11 4 -14 3 -9 -6 4 -6 16 -9 26 -6 10 3 21 1 25
-5 4 -6 -13 -10 -47 -11 -29 -1 -66 -2 -82 -3 -17 0 -31 5 -34 13 -3 9 1 11
16 7 19 -6 21 -4 17 25 -2 17 -1 28 3 24 4 -4 7 -12 7 -18z m160 13 c13 -6 15
-9 5 -9 -8 0 -22 4 -30 9 -18 12 -2 12 25 0z m-2100 -10 c-4 -6 7 -13 24 -16
17 -4 31 -10 31 -14 0 -14 93 -21 102 -8 6 10 8 10 8 1 0 -7 9 -13 21 -13 11
0 18 4 14 9 -3 6 3 9 14 8 11 0 17 -5 15 -9 -3 -5 34 -6 83 -3 48 2 99 5 112
5 24 0 24 0 5 15 -18 14 -18 14 4 8 12 -3 22 -10 22 -15 0 -11 136 -5 178 8
13 4 22 2 22 -5 0 -6 -7 -8 -17 -4 -12 5 -15 2 -10 -10 3 -9 1 -19 -5 -23 -6
-4 -8 -3 -5 3 11 17 -13 20 -88 13 -55 -6 -456 -7 -634 -2 -18 1 -42 9 -53 19
-15 14 -18 14 -13 1 5 -12 -4 -17 -41 -22 -59 -8 -72 1 -15 10 34 5 42 10 38
24 -6 22 15 20 41 -3 19 -18 68 -24 57 -7 -3 5 -13 7 -23 4 -14 -5 -14 -4 -2
4 10 8 18 8 27 1 7 -6 18 -7 24 -3 7 4 9 3 5 -4 -4 -7 1 -10 14 -9 21 1 29 17
8 17 -6 0 -8 3 -4 7 4 5 13 1 19 -8 13 -17 57 -32 57 -19 0 5 -9 11 -19 15
-11 3 -25 12 -31 20 -10 12 -9 15 4 15 10 0 14 -5 11 -10z m1890 0 c3 -5 1
-10 -4 -10 -6 0 -11 5 -11 10 0 6 2 10 4 10 3 0 8 -4 11 -10z m480 0 c3 -5 2
-10 -4 -10 -5 0 -13 5 -16 10 -3 6 -2 10 4 10 5 0 13 -4 16 -10z m-2215 -10
c18 -12 2 -12 -25 0 -13 6 -15 9 -5 9 8 0 22 -4 30 -9z m1032 -4 c10 -5 16
-12 13 -16 -8 -12 23 -33 40 -27 8 4 17 2 21 -4 3 -6 13 -8 21 -5 12 5 14 1 9
-16 -3 -13 -6 -40 -6 -62 0 -34 -2 -37 -15 -26 -9 7 -12 16 -8 19 12 9 13 64
1 78 -10 13 -35 7 -56 -13 -10 -10 -9 -15 5 -23 17 -10 16 -10 -2 -10 -13 0
-26 12 -36 34 -9 19 -13 35 -8 35 5 0 9 -4 9 -10 0 -5 10 -9 23 -9 16 1 18 2
5 6 -10 2 -18 8 -18 13 0 4 -11 11 -25 14 -14 4 -25 12 -25 20 0 14 23 15 52
2z m564 5 c5 -5 20 -11 34 -14 24 -4 24 -4 -3 -6 -16 0 -35 6 -43 14 -16 16
-5 22 12 6z m118 -7 c5 -14 4 -15 -9 -4 -17 14 -19 20 -6 20 5 0 12 -7 15 -16z
m-2074 -2 c0 -5 -14 -9 -30 -9 -20 0 -26 3 -18 9 17 10 48 10 48 0z m3720 -12
c0 -5 -5 -10 -11 -10 -5 0 -7 5 -4 10 3 6 8 10 11 10 2 0 4 -4 4 -10z m-2823
-33 c11 4 14 2 9 -5 -11 -18 -36 -14 -35 6 0 9 3 12 5 5 3 -7 12 -9 21 -6z
m-95 -63 c-3 -53 -1 -65 10 -59 10 6 11 5 1 -6 -17 -18 -16 -29 3 -29 8 0 12
-5 9 -10 -4 -6 -10 -8 -15 -5 -4 3 -9 -43 -9 -102 -1 -76 2 -109 11 -115 10
-6 10 -8 1 -8 -8 0 -13 -13 -13 -33 0 -18 6 -39 13 -46 10 -11 9 -13 -3 -9
-13 4 -15 42 -18 246 -1 133 1 242 6 242 4 0 6 -30 4 -66z m108 26 c0 -5 -4
-10 -9 -10 -6 0 -13 5 -16 10 -3 6 1 10 9 10 9 0 16 -4 16 -10z m555 0 c-3 -5
-11 -10 -16 -10 -6 0 -7 5 -4 10 3 6 11 10 16 10 6 0 7 -4 4 -10z m2160 -10
c-3 -5 -11 -10 -16 -10 -6 0 -7 5 -4 10 3 6 11 10 16 10 6 0 7 -4 4 -10z
m-2762 -7 c-7 -2 -19 -2 -25 0 -7 3 -2 5 12 5 14 0 19 -2 13 -5z m40 -23 c-3
-11 -7 -20 -9 -20 -2 0 -4 9 -4 20 0 11 4 20 9 20 5 0 7 -9 4 -20z m-2025 -21
c12 -8 27 -30 33 -49 7 -19 17 -38 23 -42 8 -5 7 -8 -1 -8 -7 0 -13 -12 -13
-27 0 -17 -13 -38 -39 -63 -37 -36 -43 -38 -93 -34 -45 3 -58 9 -85 39 -102
109 46 264 175 184z m1957 21 c3 -6 -1 -7 -9 -4 -18 7 -21 14 -7 14 6 0 13 -4
16 -10z m595 0 c0 -5 -8 -14 -17 -20 -14 -9 -15 -12 -4 -17 11 -5 11 -7 0 -15
-11 -7 -11 -11 -1 -15 15 -6 16 -30 0 -35 -7 -3 -9 -12 -5 -22 10 -27 62 -18
61 10 0 14 4 20 13 17 10 -4 13 -40 13 -154 0 -124 3 -151 15 -155 16 -7 21
-54 5 -54 -5 0 -7 6 -4 14 3 7 -2 20 -10 29 -9 8 -16 30 -18 49 -1 18 -6 39
-12 47 -8 11 -8 13 2 7 9 -5 12 15 12 89 0 59 -4 94 -10 90 -5 -3 -7 -12 -4
-20 5 -13 1 -13 -30 0 l-36 15 0 -130 0 -130 28 -1 c24 -1 24 -2 -8 -9 -19 -5
-37 -7 -39 -4 -2 2 0 4 5 4 5 0 8 87 6 210 -3 206 -2 210 18 210 11 0 20 -4
20 -10z m2240 7 c0 -2 -15 -16 -32 -33 l-33 -29 29 33 c28 30 36 37 36 29z
m-5030 -32 c-7 -9 -10 -18 -7 -21 3 -4 0 -13 -8 -21 -19 -19 -19 -96 -1 -131
20 -39 62 -75 77 -67 8 5 10 4 5 -3 -10 -16 35 -32 89 -32 52 0 99 16 90 30
-4 6 -3 10 2 9 21 -4 34 2 27 13 -4 6 -3 8 3 5 17 -11 42 27 52 76 4 25 6 49
3 52 -3 3 0 5 6 5 14 0 14 2 1 -59 -9 -41 -19 -58 -56 -91 -25 -22 -61 -42
-80 -46 -129 -24 -243 60 -243 180 0 46 26 116 43 116 5 0 4 -7 -3 -15z m2207
-1 c-3 -3 -12 -4 -19 -1 -8 3 -5 6 6 6 11 1 17 -2 13 -5z m52 -111 c-1 -62 -4
-97 -8 -83 -4 14 -6 38 -4 54 2 17 -3 33 -9 38 -10 6 -10 8 0 8 7 0 12 14 12
36 0 32 -2 35 -22 29 -21 -5 -21 -5 2 9 14 9 26 15 28 16 1 0 2 -48 1 -107z
m571 87 c0 -5 -2 -10 -4 -10 -3 0 -8 5 -11 10 -3 6 -1 10 4 10 6 0 11 -4 11
-10z m-26 -16 c3 -8 2 -12 -4 -9 -6 3 -10 10 -10 16 0 14 7 11 14 -7z m43 -16
c-3 -7 -5 -2 -5 12 0 14 2 19 5 13 2 -7 2 -19 0 -25z m-627 -22 c0 -2 -9 -6
-20 -9 -11 -3 -18 -1 -14 4 5 9 34 13 34 5z m-10 -70 c0 -2 -7 -7 -16 -10 -8
-3 -12 -2 -9 4 6 10 25 14 25 6z m595 -6 c3 -6 -1 -7 -9 -4 -18 7 -21 14 -7
14 6 0 13 -4 16 -10z m-545 -86 c0 -8 -4 -12 -10 -9 -5 3 -10 10 -10 16 0 5 5
9 10 9 6 0 10 -7 10 -16z m540 6 c8 -5 12 -11 10 -14 -3 -2 -14 2 -24 10 -22
15 -10 19 14 4z m-2313 -86 c28 -23 83 -62 122 -88 39 -25 71 -48 71 -51 0 -3
-29 13 -65 36 -36 23 -70 37 -76 33 -7 -4 -9 -3 -6 3 4 6 -6 16 -23 22 -17 5
-29 15 -28 21 2 5 -15 26 -37 46 -52 46 -25 32 42 -22z m1765 -11 c-2 -36 -7
-61 -11 -54 -5 7 -6 23 -4 35 4 19 -1 25 -21 30 -14 3 -26 12 -26 18 0 9 3 9
12 0 18 -18 38 -15 38 6 0 15 8 32 14 32 1 0 -1 -30 -2 -67z m551 50 c-7 -2
-19 -2 -25 0 -7 3 -2 5 12 5 14 0 19 -2 13 -5z m-2348 -51 c-3 -3 -11 0 -18 7
-9 10 -8 11 6 5 10 -3 15 -9 12 -12z m-27 -20 c8 8 12 9 12 1 0 -6 -5 -13 -11
-15 -14 -5 89 -84 103 -80 5 1 7 -2 3 -8 -6 -9 8 -14 28 -11 5 1 6 -2 3 -7 -2
-4 27 -28 65 -52 39 -24 73 -48 76 -54 8 -12 -44 19 -142 85 -88 58 -195 147
-195 162 0 6 10 1 23 -11 18 -17 26 -19 35 -10z m1782 8 c18 -12 2 -12 -25 0
-13 6 -15 9 -5 9 8 0 22 -4 30 -9z m-1735 -20 c3 -6 -1 -7 -9 -4 -18 7 -21 14
-7 14 6 0 13 -4 16 -10z m1685 -40 c0 -5 -15 -10 -33 -10 -18 0 -39 -6 -46
-12 -11 -10 -13 -10 -7 0 5 9 -8 12 -53 12 l-61 0 21 -21 c12 -12 33 -24 47
-28 21 -6 23 -8 9 -14 -10 -4 -28 3 -47 19 -16 14 -30 22 -30 16 0 -5 -11 -7
-24 -5 -21 4 -23 2 -20 -26 3 -26 1 -29 -10 -19 -9 8 -10 15 -4 19 12 8 -2 18
-52 38 -23 9 -77 14 -155 15 l-120 1 -2 -35 c-2 -45 11 -60 53 -60 19 0 34 -4
34 -8 0 -11 -72 -2 -87 10 -17 14 -17 83 0 97 9 7 109 12 298 14 156 1 285 3
287 5 1 1 2 -2 2 -8z m696 -3 c4 -4 -5 -7 -19 -7 -15 0 -27 4 -27 10 0 11 35
8 46 -3z m-2319 -3 c-3 -3 -12 -4 -19 -1 -8 3 -5 6 6 6 11 1 17 -2 13 -5z
m2209 -1 c-3 -4 -77 -6 -163 -5 -161 1 -187 -4 -160 -37 10 -12 9 -13 -10 -3
-12 7 -27 20 -32 30 -8 15 -14 15 -42 5 -22 -9 -36 -9 -44 -3 -7 6 -19 8 -28
4 -8 -3 -18 -1 -22 5 -4 8 71 11 251 11 142 0 254 -3 250 -7z m674 -12 c17
-32 12 -79 -9 -91 -30 -15 -38 -12 -13 6 22 15 28 47 16 78 -5 14 -39 16 -261
16 -141 0 -258 2 -261 5 -3 3 112 5 256 5 248 0 262 -1 272 -19z m-2815 -11
c3 -5 1 -10 -4 -10 -6 0 -11 5 -11 10 0 6 2 10 4 10 3 0 8 -4 11 -10z m1420 0
c3 -5 2 -10 -4 -10 -5 0 -13 5 -16 10 -3 6 -2 10 4 10 5 0 13 -4 16 -10z m130
0 c3 -6 -1 -7 -9 -4 -18 7 -21 14 -7 14 6 0 13 -4 16 -10z m353 -2 c-2 -6 -15
-13 -29 -14 l-24 -4 25 15 c31 18 33 18 28 3z m427 2 c7 -12 -2 -12 -30 0 -19
8 -19 9 2 9 12 1 25 -3 28 -9z m70 -7 l20 -16 -20 8 c-11 4 -25 8 -32 8 -7 0
-10 4 -7 9 7 12 16 10 39 -9z m220 7 c3 -5 1 -10 -4 -10 -6 0 -11 5 -11 10 0
6 2 10 4 10 3 0 8 -4 11 -10z m-1571 -21 c8 -9 6 -10 -9 -4 -11 5 -30 8 -42 8
-13 -1 -23 3 -23 7 0 12 62 3 74 -11z m84 14 c-10 -2 -26 -2 -35 0 -10 3 -2 5
17 5 19 0 27 -2 18 -5z m69 1 c-3 -3 -12 -4 -19 -1 -8 3 -5 6 6 6 11 1 17 -2
13 -5z m1043 -4 c0 -5 -7 -7 -15 -4 -8 4 -15 8 -15 10 0 2 7 4 15 4 8 0 15 -4
15 -10z m-720 -10 c0 -5 -2 -10 -4 -10 -3 0 -8 5 -11 10 -3 6 -1 10 4 10 6 0
11 -4 11 -10z m94 1 c3 -5 -3 -11 -14 -14 -11 -3 -20 -2 -20 3 0 4 -12 6 -27
3 -24 -3 -25 -2 -8 6 26 12 62 13 69 2z m146 -11 c46 -25 34 -25 -21 0 -24 11
-37 19 -29 19 8 0 31 -8 50 -19z m427 14 c-3 -3 -12 -4 -19 -1 -8 3 -5 6 6 6
11 1 17 -2 13 -5z m468 -15 c-8 -12 -35 -12 -35 1 0 5 7 6 17 3 12 -5 14 -3 8
7 -5 9 -4 11 4 6 6 -4 9 -12 6 -17z m1139 9 c-3 -4 -9 -8 -15 -8 -5 0 -9 4 -9
8 0 5 7 9 15 9 8 0 12 -4 9 -9z m-2679 -8 c3 -6 -1 -7 -9 -4 -18 7 -21 14 -7
14 6 0 13 -4 16 -10z m143 -5 c3 -3 -7 -5 -21 -5 -15 0 -27 4 -27 9 0 10 38 7
48 -4z m76 -7 c-5 -7 0 -9 15 -5 15 4 24 -1 32 -15 8 -15 13 -17 19 -8 5 8 10
8 14 2 8 -13 77 -13 93 -1 7 7 14 6 18 -1 4 -7 12 -7 26 0 13 7 19 7 19 0 0
-5 5 -10 11 -10 5 0 8 4 4 9 -3 5 7 4 22 -4 20 -9 41 -11 70 -6 23 5 47 5 54
0 7 -4 21 -3 32 2 10 6 25 8 33 5 8 -3 25 -1 39 4 16 6 25 6 25 0 0 -5 23 -9
51 -8 32 0 46 4 37 9 -9 6 -9 9 -1 9 7 0 16 -6 20 -12 9 -14 63 -19 63 -6 0 5
8 5 18 0 9 -4 37 -7 62 -5 25 2 89 4 143 4 96 0 114 9 63 29 -16 7 -17 9 -4 9
9 1 20 -3 23 -9 3 -5 16 -10 28 -10 18 0 19 -2 7 -10 -8 -5 -10 -10 -5 -10 6
0 17 4 25 10 9 6 17 5 21 -2 5 -7 65 -11 181 -11 110 0 157 -2 128 -7 -73 -12
-1637 -12 -1645 0 -4 6 8 11 32 12 40 1 50 1 96 -6 29 -4 34 3 15 22 -20 20
-3 14 22 -8 26 -22 40 -19 20 5 -8 9 -9 15 -2 15 6 0 15 -7 20 -16 12 -22 89
-29 89 -9 0 9 -10 15 -23 15 -16 0 -22 5 -21 19 0 11 5 17 9 15 5 -3 5 -10 2
-16z m169 1 c4 -3 -6 -6 -22 -6 -27 0 -28 2 -13 13 9 7 19 9 22 6 3 -4 9 -9
13 -13z m162 11 c3 -6 -1 -7 -9 -4 -18 7 -21 14 -7 14 6 0 13 -4 16 -10z m595
-26 c0 -2 -13 2 -30 11 -16 9 -30 18 -30 21 0 2 14 -2 30 -11 17 -9 30 -18 30
-21z m20 26 c13 -8 13 -10 -2 -10 -9 0 -20 5 -23 10 -8 13 5 13 25 0z m260 0
c0 -5 -2 -10 -4 -10 -3 0 -8 5 -11 10 -3 6 -1 10 4 10 6 0 11 -4 11 -10z
m-2375 -51 c155 -95 348 -192 520 -261 55 -22 102 -42 104 -44 1 -1 -13 -2
-33 -1 -20 1 -36 5 -36 9 0 4 -16 15 -36 23 -42 17 -47 18 -40 7 11 -18 -29
-28 -63 -16 -21 7 -29 13 -20 16 8 3 24 0 37 -5 18 -8 25 -8 32 3 7 11 -2 19
-36 32 -25 10 -50 16 -55 12 -5 -3 -12 1 -15 9 -3 9 -27 25 -54 36 -57 24 -73
26 -46 6 11 -8 17 -18 13 -21 -9 -9 -39 24 -33 35 7 10 -57 51 -80 51 -8 0
-14 4 -14 9 0 5 -13 12 -30 16 -16 4 -33 12 -37 19 -5 7 -41 32 -81 56 -40 23
-75 47 -79 53 -7 11 -7 11 82 -44z m838 30 c-7 -24 -19 -25 -25 -1 -3 12 1 18
12 19 13 1 16 -4 13 -18z m175 0 c10 -16 9 -16 -19 -2 -34 17 -35 19 -10 19
10 0 24 -8 29 -17z m696 11 c-3 -2 -22 -5 -42 -6 -27 -2 -31 0 -17 6 21 8 67
8 59 0z m61 0 c16 -7 14 -9 -12 -7 -18 1 -33 5 -33 9 0 10 19 9 45 -2z m128
-4 c8 -9 24 -13 38 -10 19 5 21 4 9 -5 -22 -16 -38 -13 -60 9 -11 11 -16 20
-11 20 5 0 16 -6 24 -14z m304 8 c-3 -3 -12 -4 -19 -1 -8 3 -5 6 6 6 11 1 17
-2 13 -5z m88 -4 c3 -4 13 -6 24 -3 10 3 21 -2 24 -10 4 -10 -1 -13 -21 -9
-15 3 -33 10 -41 16 -11 8 -13 8 -7 -1 9 -17 -3 -16 -34 1 -24 14 -24 14 13
14 20 0 39 -4 42 -8z m-1391 -8 c2 -4 -7 -8 -22 -9 -24 -2 -24 -1 -7 7 11 5
21 9 22 9 1 1 4 -3 7 -7z m1471 -10 c-3 -3 -11 0 -18 7 -9 10 -8 11 6 5 10 -3
15 -9 12 -12z m80 -5 c19 -4 19 -5 -1 -6 -12 0 -28 7 -35 17 -12 15 -12 16 1
6 8 -7 24 -14 35 -17z m91 11 c4 -6 3 -8 -4 -4 -5 3 -12 0 -15 -6 -2 -7 -8 -9
-13 -5 -5 4 -2 12 6 17 19 12 17 12 26 -2z m-1021 -8 c-26 -11 -45 -12 -45 -2
0 4 15 8 33 9 26 1 28 0 12 -7z m2073 -25 c-2 -1 -16 -5 -33 -9 -28 -7 -29 -6
-10 7 10 8 25 12 33 10 7 -3 12 -7 10 -8z m-58 -59 c0 -4 -112 -71 -157 -95
-13 -6 -23 -9 -23 -7 0 3 18 15 40 26 25 13 38 25 34 32 -4 6 -3 8 3 5 6 -4
31 4 55 18 45 26 48 27 48 21z m-3565 -16 c4 -6 11 -8 16 -5 5 4 9 2 9 -3 0
-14 27 -22 46 -15 15 6 15 8 -2 20 -22 16 -13 17 23 1 30 -13 43 -26 43 -43 0
-6 -3 -6 -8 1 -11 16 -37 23 -51 14 -14 -8 135 -100 168 -103 11 0 17 -5 15
-9 -3 -4 8 -11 23 -14 15 -4 65 -25 111 -46 46 -22 90 -37 98 -34 10 4 12 2 8
-6 -5 -8 -2 -9 9 -5 9 3 23 -1 32 -9 12 -12 129 -57 180 -69 6 -1 23 -7 38
-13 15 -7 39 -15 53 -18 14 -4 23 -8 20 -11 -12 -12 -341 105 -516 184 -79 35
-340 181 -340 189 0 8 19 3 25 -6z m3485 6 c0 -3 -4 -8 -10 -11 -5 -3 -10 -1
-10 4 0 6 5 11 10 11 6 0 10 -2 10 -4z m-90 -45 c0 -5 -11 -8 -25 -7 -33 1
-33 16 0 16 14 0 25 -4 25 -9z m40 -1 c-8 -5 -19 -10 -25 -10 -5 0 -3 5 5 10
8 5 20 10 25 10 6 0 3 -5 -5 -10z m-60 -54 c0 -2 -7 -7 -16 -10 -8 -3 -12 -2
-9 4 6 10 25 14 25 6z m-245 -26 c-3 -5 -12 -10 -18 -10 -7 0 -6 4 3 10 19 12
23 12 15 0z m60 -18 c-3 -3 -11 0 -18 7 -9 10 -8 11 6 5 10 -3 15 -9 12 -12z
m125 14 c0 -7 -63 -37 -67 -32 -2 2 11 11 29 19 37 18 38 19 38 13z m-220 -11
c0 -6 -90 -45 -104 -45 -6 0 12 11 39 24 51 25 65 29 65 21z m-2693 -41 c-3
-3 -12 -4 -19 -1 -8 3 -5 6 6 6 11 1 17 -2 13 -5z m2703 -4 c0 -5 -2 -10 -4
-10 -3 0 -8 5 -11 10 -3 6 -1 10 4 10 6 0 11 -4 11 -10z m105 0 c-3 -5 -12
-10 -18 -10 -7 0 -6 4 3 10 19 12 23 12 15 0z m-255 -14 c-14 -7 -36 -16 -50
-20 -14 -3 -7 3 15 13 45 22 73 27 35 7z m142 -38 c-45 -22 -86 -38 -89 -34
-4 4 3 9 15 12 11 4 47 19 79 34 32 16 63 28 68 28 6 0 -27 -18 -73 -40z
m-2552 28 c0 -3 -4 -8 -10 -11 -5 -3 -10 -1 -10 4 0 6 5 11 10 11 6 0 10 -2
10 -4z m25 -16 c3 -5 -1 -10 -10 -10 -9 0 -13 5 -10 10 3 6 8 10 10 10 2 0 7
-4 10 -10z m245 -53 c357 -102 545 -134 798 -138 72 -1 130 -5 127 -7 -3 -3 1
-12 8 -21 11 -14 10 -14 -6 -2 -12 10 -53 15 -130 17 -109 3 -230 11 -292 19
-51 6 -355 74 -392 87 -29 10 -36 10 -44 -2 -9 -12 -10 -12 -5 2 4 15 0 17
-32 13 -29 -4 -33 -3 -17 5 18 9 17 10 -7 7 -15 -2 -29 1 -32 8 -4 11 -91 38
-123 38 -7 0 -10 4 -7 9 4 5 11 7 18 5 6 -3 68 -21 136 -40z m2015 33 c-27
-12 -43 -12 -25 0 8 5 22 9 30 9 10 0 8 -3 -5 -9z m-2190 -20 c3 -6 -1 -7 -9
-4 -18 7 -21 14 -7 14 6 0 13 -4 16 -10z m2345 -19 c-8 -5 -26 -11 -40 -15
-21 -5 -20 -3 5 9 32 15 60 20 35 6z m-2205 -11 c3 -5 1 -10 -4 -10 -6 0 -11
5 -11 10 0 6 2 10 4 10 3 0 8 -4 11 -10z m1812 -26 c-3 -3 -12 -4 -19 -1 -8 3
-5 6 6 6 11 1 17 -2 13 -5z m238 -19 c-16 -8 -37 -14 -45 -14 -8 0 1 7 20 14
46 18 64 17 25 0z m-328 -1 c-3 -3 -12 -4 -19 -1 -8 3 -5 6 6 6 11 1 17 -2 13
-5z m-50 -10 c-3 -3 -12 -4 -19 -1 -8 3 -5 6 6 6 11 1 17 -2 13 -5z m-40 -10
c-3 -3 -12 -4 -19 -1 -8 3 -5 6 6 6 11 1 17 -2 13 -5z m-37 -8 c0 -2 -13 -6
-29 -8 -17 -2 -28 -1 -25 4 5 8 54 12 54 4z m357 -2 c-3 -3 -12 -4 -19 -1 -8
3 -5 6 6 6 11 1 17 -2 13 -5z m-1753 -35 c49 -13 84 -25 78 -27 -12 -4 -204
46 -212 55 -6 7 18 2 134 -28z m1266 16 c-36 -7 -101 -15 -145 -19 -44 -4 -95
-9 -115 -11 -82 -10 -230 -14 -230 -5 0 5 39 9 88 9 83 0 248 15 357 31 82 13
115 9 45 -5z m435 5 c-11 -5 -27 -9 -35 -9 -9 0 -8 4 5 9 11 5 27 9 35 9 9 0
8 -4 -5 -9z m-140 -35 c-33 -7 -62 -12 -64 -10 -2 2 10 7 25 10 16 4 34 8 39
10 6 2 21 3 35 3 14 0 -2 -6 -35 -13z m-1085 -26 c0 -13 -13 -11 -35 5 -18 13
-18 14 8 9 15 -3 27 -9 27 -14z m-353 5 c-3 -3 -12 -4 -19 -1 -8 3 -5 6 6 6
11 1 17 -2 13 -5z m1346 -1 c-7 -2 -19 -2 -25 0 -7 3 -2 5 12 5 14 0 19 -2 13
-5z m-1290 -10 c-7 -2 -21 -2 -30 0 -10 3 -4 5 12 5 17 0 24 -2 18 -5z m376
-6 c28 1 16 -12 -19 -21 -14 -3 -19 -3 -11 0 11 5 8 10 -10 21 -16 10 -17 12
-4 7 11 -4 31 -7 44 -7z m846 3 c-16 -4 -41 -8 -55 -8 -22 0 -22 1 5 8 17 4
41 8 55 8 22 0 22 -1 -5 -8z m-1135 -10 c20 -6 21 -8 5 -8 -11 0 -33 4 -50 8
-27 7 -27 8 -5 8 14 0 36 -4 50 -8z m395 0 c-3 -5 -12 -10 -18 -10 -7 0 -6 4
3 10 19 12 23 12 15 0z m178 3 c-7 -2 -19 -2 -25 0 -7 3 -2 5 12 5 14 0 19 -2
13 -5z m-464 -19 c10 -9 -55 -3 -69 6 -10 6 -2 7 25 3 22 -3 42 -7 44 -9z m89
3 c9 -10 3 -14 -28 -15 -21 -2 -41 2 -45 7 -4 7 5 9 25 5 19 -4 30 -2 30 5 0
14 5 14 18 -2z m852 9 c0 -2 -13 -6 -30 -8 -16 -3 -30 -1 -30 4 0 4 14 8 30 8
17 0 30 -2 30 -4z m-95 -16 c-16 -4 -59 -7 -95 -7 l-65 0 60 7 c33 4 76 7 95
7 l35 1 -30 -8z m-255 -21 c-98 -8 -337 -8 -420 0 -36 3 61 6 215 6 154 0 246
-3 205 -6z"/>
<path d="M4170 9326 c0 -2 9 -6 20 -9 11 -3 18 -1 14 4 -5 9 -34 13 -34 5z"/>
<path d="M4090 9300 c0 -6 7 -10 15 -10 8 0 15 2 15 4 0 2 -7 6 -15 10 -8 3
-15 1 -15 -4z"/>
<path d="M4038 9283 c-34 -5 -37 -20 -5 -26 12 -2 -6 -4 -40 -4 -38 1 -68 -4
-75 -12 -11 -10 -10 -11 4 -6 11 4 20 -1 28 -14 9 -18 8 -21 -7 -21 -17 -1
-17 -1 -1 -10 11 -7 26 -6 45 1 28 11 28 11 6 22 -13 5 -23 14 -23 18 0 4 12
1 28 -7 35 -18 51 -18 58 1 5 12 10 13 20 4 11 -9 14 -7 14 9 0 25 -10 52 -19
51 -3 -1 -18 -4 -33 -6z"/>
<path d="M4106 9268 c3 -4 11 -5 19 -1 21 7 19 12 -4 10 -11 0 -18 -5 -15 -9z"/>
<path d="M4135 9250 c-3 -6 1 -7 9 -4 18 7 21 14 7 14 -6 0 -13 -4 -16 -10z"/>
<path d="M3900 9180 c0 -6 7 -10 15 -10 8 0 15 2 15 4 0 2 -7 6 -15 10 -8 3
-15 1 -15 -4z"/>
<path d="M7580 8409 c-13 -9 -13 -10 1 -6 9 3 23 0 30 -6 11 -10 11 -9 0 6 -7
9 -14 17 -15 17 0 0 -8 -5 -16 -11z"/>
<path d="M7580 8380 c0 -6 7 -10 15 -10 8 0 15 2 15 4 0 2 -7 6 -15 10 -8 3
-15 1 -15 -4z"/>
<path d="M7605 8320 c3 -5 8 -10 11 -10 2 0 4 5 4 10 0 6 -5 10 -11 10 -5 0
-7 -4 -4 -10z"/>
<path d="M8525 6251 c-3 -5 -2 -12 3 -15 5 -3 9 1 9 9 0 17 -3 19 -12 6z"/>
<path d="M8510 6175 c7 -8 20 -15 28 -15 13 0 12 3 -4 15 -25 19 -40 19 -24 0z"/>
<path d="M8518 6133 c6 -2 18 -2 25 0 6 3 1 5 -13 5 -14 0 -19 -2 -12 -5z"/>
<path d="M8535 6110 c3 -5 8 -10 11 -10 2 0 4 5 4 10 0 6 -5 10 -11 10 -5 0
-7 -4 -4 -10z"/>
<path d="M8500 6083 c-13 -15 -12 -16 3 -10 9 3 19 2 22 -3 9 -15 25 -12 25 4
0 8 -7 17 -16 20 -19 7 -16 8 -34 -11z"/>
<path d="M8531 6041 c-12 -8 -12 -12 2 -26 16 -15 17 -15 17 9 0 29 0 29 -19
17z"/>
<path d="M8490 6020 c0 -5 5 -10 11 -10 5 0 7 5 4 10 -3 6 -8 10 -11 10 -2 0
-4 -4 -4 -10z"/>
<path d="M8505 5990 c3 -5 13 -10 21 -10 8 0 14 -4 14 -9 0 -9 -30 -25 -42
-23 -5 1 -8 -2 -8 -6 0 -5 14 -9 30 -9 26 0 30 4 30 28 0 15 -7 29 -16 33 -23
9 -36 7 -29 -4z"/>
<path d="M8495 5912 c-13 -13 -3 -22 14 -12 25 13 31 13 31 0 0 -5 -9 -10 -19
-10 -11 0 -23 -4 -26 -10 -3 -5 1 -10 10 -10 8 0 18 -7 21 -15 11 -28 23 -15
21 23 -2 31 -6 37 -24 38 -12 1 -25 -1 -28 -4z"/>
<path d="M2679 8597 c-85 -45 -130 -163 -92 -237 49 -95 177 -107 254 -23 86
92 77 213 -21 264 -46 25 -88 24 -141 -4z"/>
<path d="M2380 8079 c0 -5 5 -7 10 -4 6 3 10 8 10 11 0 2 -4 4 -10 4 -5 0 -10
-5 -10 -11z"/>
<path d="M2397 8039 c7 -7 15 -10 18 -7 3 3 -2 9 -12 12 -14 6 -15 5 -6 -5z"/>
<path d="M2080 7596 c0 -2 7 -7 16 -10 8 -3 12 -2 9 4 -6 10 -25 14 -25 6z"/>
<path d="M2030 7460 c20 -13 33 -13 25 0 -3 6 -14 10 -23 10 -15 0 -15 -2 -2
-10z"/>
<path d="M2013 7435 c0 -8 3 -13 5 -10 3 3 14 -3 25 -12 14 -13 19 -14 15 -4
-2 8 -13 20 -24 28 -18 11 -21 11 -21 -2z"/>
<path d="M1970 7371 c0 -13 28 -33 33 -23 3 4 -3 13 -14 20 -10 7 -19 8 -19 3z"/>
<path d="M1956 7335 c-9 -24 -7 -32 4 -15 8 13 10 12 10 -2 0 -10 -7 -18 -15
-18 -8 0 -15 -5 -15 -11 0 -6 7 -8 16 -5 9 3 20 6 24 6 11 0 4 40 -8 52 -6 6
-12 2 -16 -7z"/>
<path d="M1926 7239 c2 -4 13 -7 24 -6 23 2 17 10 -10 12 -10 1 -17 -2 -14 -6z"/>
<path d="M1927 7214 c7 -3 9 -13 6 -22 -4 -14 -3 -14 5 -2 12 16 7 30 -11 29
-9 0 -9 -2 0 -5z"/>
<path d="M1900 7190 c0 -5 5 -10 11 -10 5 0 7 5 4 10 -3 6 -8 10 -11 10 -2 0
-4 -4 -4 -10z"/>
<path d="M1877 7099 c7 -7 15 -10 18 -7 3 3 -2 9 -12 12 -14 6 -15 5 -6 -5z"/>
<path d="M1875 7060 c3 -5 11 -10 16 -10 6 0 7 5 4 10 -3 6 -11 10 -16 10 -6
0 -7 -4 -4 -10z"/>
<path d="M1840 7005 c0 -2 14 -10 30 -19 27 -13 30 -13 30 1 0 9 -3 14 -6 10
-3 -3 -17 -2 -30 3 -13 5 -24 8 -24 5z"/>
<path d="M1825 6960 c-3 -5 1 -13 10 -16 22 -9 29 1 11 15 -10 8 -16 9 -21 1z"/>
<path d="M1840 6900 c0 -4 6 -12 13 -18 10 -8 13 -6 13 7 0 10 -6 18 -13 18
-7 0 -13 -4 -13 -7z"/>
<path d="M1815 6860 c11 -5 27 -9 35 -9 9 0 8 4 -5 9 -11 5 -27 9 -35 9 -9 0
-8 -4 5 -9z"/>
<path d="M1840 6831 c0 -6 4 -13 10 -16 6 -3 7 1 4 9 -7 18 -14 21 -14 7z"/>
<path d="M1790 6780 c20 -13 33 -13 25 0 -3 6 -14 10 -23 10 -15 0 -15 -2 -2
-10z"/>
<path d="M1800 6752 c0 -4 9 -8 19 -8 11 0 17 4 15 8 -3 4 -12 8 -20 8 -8 0
-14 -4 -14 -8z"/>
<path d="M1778 6738 c10 -13 10 -17 0 -21 -7 -2 -10 -7 -7 -11 3 -4 11 0 18 7
9 11 7 17 -6 28 -16 13 -17 12 -5 -3z"/>
<path d="M1805 6690 c4 -6 11 -8 16 -5 14 9 11 15 -7 15 -8 0 -12 -5 -9 -10z"/>
<path d="M1750 6510 c20 -13 33 -13 25 0 -3 6 -14 10 -23 10 -15 0 -15 -2 -2
-10z"/>
<path d="M1791 6474 c0 -11 3 -14 6 -6 3 7 2 16 -1 19 -3 4 -6 -2 -5 -13z"/>
<path d="M1720 6351 c0 -5 8 -11 18 -15 9 -3 24 -9 32 -13 13 -5 13 -5 0 8
-19 19 -50 31 -50 20z"/>
<path d="M1720 6319 c0 -5 5 -7 10 -4 6 3 10 8 10 11 0 2 -4 4 -10 4 -5 0 -10
-5 -10 -11z"/>
<path d="M1765 6300 c6 -9 0 -11 -24 -5 -17 4 -31 3 -31 -2 0 -12 57 -15 65
-4 3 5 0 13 -6 17 -8 5 -9 3 -4 -6z"/>
<path d="M1710 6261 c0 -21 13 -41 26 -41 11 0 11 5 2 25 -11 24 -28 34 -28
16z"/>
<path d="M1730 6186 c0 -2 9 -6 20 -9 11 -3 18 -1 14 4 -5 9 -34 13 -34 5z"/>
<path d="M1710 6170 c0 -5 5 -10 11 -10 5 0 7 5 4 10 -3 6 -8 10 -11 10 -2 0
-4 -4 -4 -10z"/>
<path d="M1710 6135 c0 -8 4 -15 10 -15 5 0 7 7 4 15 -4 8 -8 15 -10 15 -2 0
-4 -7 -4 -15z"/>
<path d="M1710 6091 c0 -10 19 -25 25 -20 1 2 -3 10 -11 17 -8 7 -14 8 -14 3z"/>
<path d="M1710 6005 c0 -8 4 -15 10 -15 5 0 7 7 4 15 -4 8 -8 15 -10 15 -2 0
-4 -7 -4 -15z"/>
<path d="M1711 5943 c-1 -35 2 -43 17 -43 14 0 14 2 3 9 -8 5 -12 15 -9 22 3
8 2 23 -3 34 -6 15 -8 9 -8 -22z"/>
<path d="M1723 5813 c-17 -6 -17 -23 0 -23 8 0 14 7 14 15 0 8 -1 15 -1 14 -1
0 -7 -3 -13 -6z"/>
<path d="M1720 5756 c0 -13 7 -27 16 -30 26 -10 35 -7 22 8 -7 8 -17 12 -22 9
-4 -3 -5 4 -1 16 4 12 2 21 -4 21 -6 0 -11 -11 -11 -24z"/>
<path d="M1726 5697 c3 -8 11 -14 19 -14 11 0 12 4 4 14 -6 7 -15 13 -20 13
-5 0 -6 -6 -3 -13z"/>
<path d="M1752 5657 c-10 -11 -9 -45 1 -91 4 -20 47 -43 47 -26 0 6 -6 10 -12
10 -7 0 -5 5 5 11 21 12 22 26 2 26 -8 0 -12 -4 -9 -9 3 -4 -2 -8 -10 -8 -21
0 -10 25 17 39 20 11 13 10 -30 -5 -12 -4 -10 1 7 17 17 15 19 20 8 16 -10 -4
-18 -2 -18 3 0 6 10 10 23 10 18 0 19 2 7 10 -20 13 -26 12 -38 -3z"/>
<path d="M1760 5520 c0 -6 7 -10 15 -10 8 0 15 2 15 4 0 2 -7 6 -15 10 -8 3
-15 1 -15 -4z"/>
<path d="M1760 5489 c0 -16 30 -49 45 -49 4 0 14 -8 21 -17 12 -17 13 -16 11
4 -1 15 -10 23 -31 27 l-29 6 23 20 c13 11 19 20 14 20 -6 0 -16 -6 -22 -12
-10 -10 -15 -10 -22 2 -8 13 -10 13 -10 -1z"/>
<path d="M1772 5428 c5 -15 28 -23 28 -10 0 5 -7 13 -16 16 -10 4 -14 1 -12
-6z"/>
<path d="M1814 5385 c3 -9 0 -15 -9 -15 -8 0 -15 -7 -15 -15 0 -27 23 -65 39
-65 13 1 13 2 -2 11 -18 10 -18 11 0 25 17 14 17 15 -4 9 -17 -5 -23 -2 -23 9
0 10 6 13 17 9 13 -5 15 -2 10 16 -4 17 -2 21 9 17 8 -3 14 -1 14 4 0 6 -9 10
-21 10 -15 0 -19 -5 -15 -15z"/>
<path d="M1818 5253 c7 -3 16 -2 19 1 4 3 -2 6 -13 5 -11 0 -14 -3 -6 -6z"/>
<path d="M1820 5221 c0 -4 13 -8 29 -7 16 1 27 4 24 9 -6 10 -53 9 -53 -2z"/>
<path d="M1846 5189 c3 -5 0 -9 -7 -9 -10 0 -10 -3 -2 -11 6 -6 9 -17 7 -24
-9 -22 14 -27 43 -10 23 13 24 15 6 12 -13 -3 -24 1 -27 10 -9 22 -7 26 9 19
8 -3 15 -2 15 3 0 5 -11 11 -25 13 -13 3 -22 1 -19 -3z m19 -49 c3 -5 1 -10
-4 -10 -6 0 -11 5 -11 10 0 6 2 10 4 10 3 0 8 -4 11 -10z"/>
<path d="M1861 5083 c17 -22 31 -33 43 -33 5 0 -3 11 -18 25 -31 29 -45 33
-25 8z"/>
<path d="M1884 5091 c3 -5 15 -11 26 -14 17 -4 19 -3 9 9 -12 15 -44 20 -35 5z"/>
<path d="M1870 5041 c0 -10 19 -25 25 -20 1 2 -3 10 -11 17 -8 7 -14 8 -14 3z"/>
<path d="M1920 5041 c0 -5 7 -12 16 -15 14 -5 15 -4 4 9 -14 17 -20 19 -20 6z"/>
<path d="M1887 4991 c4 -16 8 -17 18 -8 9 9 10 14 1 19 -19 13 -24 9 -19 -11z"/>
<path d="M1935 4989 c-11 -16 -1 -19 13 -3 7 8 8 14 3 14 -5 0 -13 -5 -16 -11z"/>
<path d="M1912 4930 c15 -23 35 -27 35 -6 0 8 -6 12 -14 9 -7 -3 -13 0 -13 6
0 6 -5 11 -10 11 -6 0 -5 -8 2 -20z"/>
<path d="M1925 4880 c3 -5 8 -10 11 -10 2 0 4 5 4 10 0 6 -5 10 -11 10 -5 0
-7 -4 -4 -10z"/>
<path d="M1944 4858 c-4 -13 -2 -24 5 -26 6 -2 9 -8 6 -13 -3 -5 1 -21 10 -36
15 -26 14 -16 -2 24 -3 9 -2 14 3 11 5 -3 16 1 24 10 13 14 12 15 -3 9 -11 -4
-16 -3 -12 3 4 6 0 17 -9 25 -13 13 -15 13 -22 -7z"/>
<path d="M1993 4774 c0 -16 6 -17 25 -5 11 6 9 9 -5 13 -12 3 -20 0 -20 -8z"/>
<path d="M2005 4724 c18 -16 21 -23 10 -26 -12 -2 -11 -9 4 -43 13 -30 19 -35
24 -23 3 10 2 20 -3 23 -15 9 -12 23 8 43 15 15 16 20 5 31 -8 7 -13 8 -13 1
0 -5 -7 -10 -15 -10 -18 0 -20 17 -2 23 6 2 0 4 -16 4 l-27 1 25 -24z"/>
<path d="M2052 4684 c-14 -16 -5 -18 17 -5 7 5 9 11 5 14 -5 3 -15 -1 -22 -9z"/>
<path d="M4898 7801 c-259 -151 -427 -248 -653 -375 -422 -238 -525 -300 -512
-312 7 -6 116 -70 242 -144 127 -73 251 -146 278 -162 34 -22 54 -28 72 -24
16 4 23 11 19 18 -4 7 -3 8 4 4 16 -10 671 385 701 422 10 14 12 77 8 336 -3
175 -7 319 -9 321 -2 2 -69 -36 -150 -84z"/>
<path d="M5195 7848 c-3 -23 -5 -172 -3 -330 2 -239 6 -290 18 -302 14 -14 61
-43 357 -226 76 -46 138 -78 144 -74 7 4 9 3 6 -3 -3 -5 33 -32 81 -60 149
-88 108 -95 374 59 128 75 262 150 297 167 34 18 61 34 60 35 -20 17 -363 221
-544 323 -126 72 -270 155 -320 185 -49 30 -166 96 -260 148 -93 51 -178 100
-187 108 -15 12 -17 10 -23 -30z m615 -908 c-8 -5 -26 -9 -40 -9 -23 1 -23 2
5 9 43 11 52 11 35 0z m-34 -46 c1 -9 0 -13 -4 -10 -3 4 -7 14 -8 22 -1 9 0
13 4 10 3 -4 7 -14 8 -22z m38 18 c3 -5 -1 -9 -9 -9 -8 0 -12 4 -9 9 3 4 7 8
9 8 2 0 6 -4 9 -8z m56 -6 c0 -3 -4 -8 -10 -11 -5 -3 -10 -1 -10 4 0 6 5 11
10 11 6 0 10 -2 10 -4z m-46 -41 c14 -14 23 -25 20 -25 -11 0 -54 33 -54 41 0
14 7 11 34 -16z m46 10 c0 -7 -30 -13 -34 -7 -3 4 4 9 15 9 10 1 19 0 19 -2z
m36 -51 c-5 -13 -1 -15 19 -10 14 4 25 2 25 -3 0 -16 -19 -23 -37 -13 -18 11
-27 42 -11 42 6 0 7 -7 4 -16z"/>
<path d="M5049 7092 c-35 -21 -119 -71 -187 -111 -76 -44 -120 -76 -116 -83 4
-7 3 -8 -5 -4 -14 9 -258 -139 -272 -166 -13 -23 9 -52 56 -75 27 -13 28 -13
10 1 -54 42 -65 57 -55 77 10 17 22 23 43 20 4 0 7 3 7 8 0 15 69 53 81 45 7
-4 9 -3 5 4 -7 12 51 45 65 36 5 -3 9 0 9 5 0 6 7 11 16 11 8 0 12 -4 9 -10
-4 -6 12 -10 41 -10 44 0 46 1 28 15 -22 17 -12 20 17 4 28 -14 14 -29 -29
-30 -22 -1 -29 -3 -17 -6 31 -8 37 -26 12 -40 -27 -15 -37 -16 -37 -4 0 5 10
11 23 13 20 4 18 6 -13 20 -39 17 -55 13 -28 -6 10 -7 15 -16 11 -20 -4 -3 3
-15 15 -26 12 -12 22 -24 22 -29 0 -4 11 -13 25 -19 35 -16 43 -15 19 2 -15
12 -16 17 -7 27 10 10 15 9 27 -1 9 -7 13 -17 10 -22 -4 -6 1 -8 14 -4 11 4
23 2 27 -4 3 -5 15 -10 26 -10 17 0 18 3 9 20 -8 14 -18 19 -35 16 -14 -3 -27
-1 -30 4 -7 12 38 21 49 10 20 -20 26 -9 10 18 -13 21 -13 23 -1 8 9 -10 21
-15 28 -10 8 4 10 3 5 -4 -4 -7 -3 -12 3 -12 5 0 18 -3 28 -6 17 -5 17 -5 0 9
-16 14 -16 15 5 20 12 4 27 2 32 -2 6 -5 20 -5 31 0 14 5 16 8 5 9 -8 2 -18 2
-22 1 -5 0 -8 4 -8 9 0 13 26 13 52 -1 13 -7 18 -7 14 -1 -3 6 -1 12 6 15 7 2
3 2 -9 1 -12 -2 -24 0 -28 6 -3 5 -13 6 -23 3 -9 -3 -14 -3 -11 1 4 4 22 9 40
11 19 3 35 9 37 15 6 16 22 12 44 -12 11 -13 17 -17 13 -11 -3 7 -8 22 -10 34
-3 17 -2 19 10 9 8 -7 13 -17 12 -22 -1 -6 5 -13 13 -15 10 -3 11 -2 3 4 -14
10 -6 23 24 41 29 15 41 16 25 0 -17 -17 -15 -29 3 -22 8 3 17 15 21 26 4 15
8 17 14 8 5 -8 13 -9 21 -4 12 6 12 5 0 -9 -17 -21 -3 -22 24 -1 19 14 19 15
-3 21 -23 6 -23 6 4 19 32 17 44 18 24 1 -13 -10 -12 -15 10 -37 14 -14 22
-21 18 -15 -13 15 -9 35 7 35 8 0 15 5 15 11 0 5 -3 8 -7 6 -5 -2 -18 7 -30
20 -25 26 -18 30 14 8 11 -8 44 -17 73 -20 29 -3 64 -14 81 -26 17 -12 32 -19
34 -17 2 2 -53 39 -123 82 -70 44 -162 101 -204 128 -42 26 -83 48 -91 48 -7
0 -42 -17 -78 -38z m300 -112 c6 0 32 -14 59 -31 31 -20 39 -29 22 -24 -14 3
-30 7 -36 8 -23 5 -64 38 -74 59 -10 21 -10 21 3 6 8 -10 19 -18 26 -18z m-60
-61 c-16 -10 -23 -4 -14 10 3 6 11 8 17 5 6 -4 5 -9 -3 -15z m-489 -19 c18
-12 2 -12 -25 0 -13 6 -15 9 -5 9 8 0 22 -4 30 -9z m350 0 c0 -5 -4 -10 -9
-10 -6 0 -13 5 -16 10 -3 6 1 10 9 10 9 0 16 -4 16 -10z m40 -25 c0 -5 -5 -3
-10 5 -5 8 -10 20 -10 25 0 6 5 3 10 -5 5 -8 10 -19 10 -25z m54 23 c-3 -4
-14 -8 -25 -8 -11 0 -18 4 -14 9 3 6 14 9 25 8 10 -1 16 -5 14 -9z m-203 -16
c-7 -2 -18 1 -23 6 -8 8 -4 9 13 5 13 -4 18 -8 10 -11z m-284 -17 c0 -8 -6
-15 -13 -15 -6 0 -14 7 -18 15 -3 10 1 15 13 15 10 0 18 -7 18 -15z m113 -15
c0 -5 -2 -10 -4 -10 -3 0 -8 5 -11 10 -3 6 -1 10 4 10 6 0 11 -4 11 -10z m91
-8 c-7 -2 -18 1 -23 6 -8 8 -4 9 13 5 13 -4 18 -8 10 -11z m113 9 c5 -8 -83
-5 -91 3 -2 2 16 4 41 4 25 1 48 -2 50 -7z m-210 -36 c4 -12 0 -14 -22 -9 -20
4 -23 3 -12 -5 8 -5 12 -12 10 -15 -3 -2 -16 4 -30 16 -14 11 -18 18 -10 15
12 -3 35 2 56 12 1 1 4 -6 8 -14z m81 -15 c18 -20 18 -20 -14 -9 -24 9 -29 14
-19 20 7 5 13 9 14 9 0 0 9 -9 19 -20z m36 3 c13 -16 12 -17 -3 -4 -10 7 -18
15 -18 17 0 8 8 3 21 -13z m-132 -39 c2 -2 -20 -4 -50 -3 -41 1 -48 3 -29 9
22 7 68 3 79 -6z"/>
<path d="M3636 6983 c-10 -10 -7 -1561 3 -1567 5 -3 20 3 34 14 14 11 117 77
229 146 254 159 285 180 296 213 14 41 3 864 -11 874 -7 4 -84 50 -172 101
-88 51 -208 122 -267 159 -58 36 -109 63 -112 60z"/>
<path d="M6535 6947 c-75 -45 -310 -180 -405 -234 l-95 -54 3 -440 3 -440 27
-25 c15 -13 61 -45 102 -72 41 -26 164 -106 272 -178 109 -73 189 -120 178
-107 -23 30 -12 66 18 56 14 -5 14 -3 -2 9 -19 15 -20 37 -23 649 -5 858 -5
853 -23 856 -8 2 -33 -8 -55 -20z"/>
<path d="M5460 6860 c8 -5 20 -10 25 -10 6 0 3 5 -5 10 -8 5 -19 10 -25 10 -5
0 -3 -5 5 -10z"/>
<path d="M5282 6835 c-22 -22 -23 -23 -3 -18 12 3 21 10 21 15 0 5 5 6 10 3 6
-3 10 1 10 9 0 21 -10 19 -38 -9z"/>
<path d="M5234 6822 c3 -5 0 -13 -6 -15 -9 -4 -10 -6 -1 -6 17 -1 25 16 12 25
-7 4 -9 3 -5 -4z"/>
<path d="M4665 6790 c3 -5 8 -10 11 -10 2 0 4 5 4 10 0 6 -5 10 -11 10 -5 0
-7 -4 -4 -10z"/>
<path d="M4686 6748 c3 -4 11 -5 19 -1 21 7 19 12 -4 10 -11 0 -18 -5 -15 -9z"/>
<path d="M4660 6730 c0 -5 5 -10 11 -10 5 0 7 5 4 10 -3 6 -8 10 -11 10 -2 0
-4 -4 -4 -10z"/>
<path d="M4925 6730 c-3 -6 1 -7 9 -4 18 7 21 14 7 14 -6 0 -13 -4 -16 -10z"/>
<path d="M4990 6736 c0 -3 9 -10 20 -16 11 -6 20 -8 20 -6 0 3 -9 10 -20 16
-11 6 -20 8 -20 6z"/>
<path d="M4618 6703 c7 -3 16 -2 19 1 4 3 -2 6 -13 5 -11 0 -14 -3 -6 -6z"/>
<path d="M4738 6703 c7 -3 16 -2 19 1 4 3 -2 6 -13 5 -11 0 -14 -3 -6 -6z"/>
<path d="M4765 6691 c-3 -6 3 -9 14 -8 11 0 17 5 15 9 -7 11 -22 10 -29 -1z"/>
<path d="M4689 6679 c-10 -6 -8 -9 8 -9 12 0 29 -3 39 -7 11 -4 15 -3 11 4
-10 15 -43 22 -58 12z"/>
<path d="M4560 6636 c0 -3 9 -10 20 -16 11 -6 20 -8 20 -6 0 3 -9 10 -20 16
-11 6 -20 8 -20 6z"/>
<path d="M4302 6192 l3 -425 100 -70 c223 -156 620 -417 636 -417 2 0 3 201 1
446 -2 415 -4 446 -19 439 -10 -3 -14 -3 -10 1 10 10 -58 54 -328 215 -126 76
-265 160 -308 187 l-77 50 2 -426z m679 -9 c13 -16 12 -17 -3 -5 -9 8 -23 10
-29 6 -8 -4 -9 -3 -5 4 10 17 21 15 37 -5z"/>
<path d="M4610 6606 c0 -3 9 -10 20 -16 11 -6 20 -8 20 -6 0 3 -9 10 -20 16
-11 6 -20 8 -20 6z"/>
<path d="M5905 6575 c-85 -51 -80 -47 -60 -61 10 -8 14 -14 9 -14 -6 0 -15 5
-21 11 -9 9 -25 4 -62 -20 -28 -17 -54 -31 -58 -31 -3 0 -119 -68 -258 -151
l-253 -151 -5 -52 c-2 -28 -5 -226 -6 -439 l-2 -388 48 27 c153 89 315 188
438 268 77 50 168 109 203 131 l62 40 -1 405 c-1 223 -4 412 -8 421 -5 14 -9
15 -26 4z m15 -47 c0 -17 -1 -17 -20 -1 -11 10 -20 18 -20 18 0 0 9 1 20 1 12
0 20 -7 20 -18z m-94 -40 c4 -7 3 -8 -4 -4 -7 4 -12 2 -12 -3 0 -6 5 -11 12
-11 6 0 8 -3 5 -6 -8 -8 -37 14 -37 27 0 13 28 11 36 -3z m91 6 c-3 -3 -12 -4
-19 -1 -8 3 -5 6 6 6 11 1 17 -2 13 -5z m-137 -29 c5 3 12 0 16 -6 5 -8 3 -9
-6 -4 -10 6 -12 3 -7 -11 7 -18 7 -18 -7 0 -9 11 -20 15 -28 10 -9 -5 -9 -2 2
10 8 11 16 14 18 7 2 -6 8 -9 12 -6z m90 -19 c0 -2 -9 -6 -20 -9 -11 -3 -18
-1 -14 4 5 9 34 13 34 5z"/>
<path d="M4660 6576 c0 -3 9 -10 20 -16 11 -6 20 -8 20 -6 0 3 -9 10 -20 16
-11 6 -20 8 -20 6z"/>
<path d="M4240 5658 c-13 -5 -31 -15 -40 -23 -8 -7 -31 -22 -50 -33 -19 -10
-111 -66 -205 -124 -93 -58 -184 -113 -201 -123 -26 -15 -30 -22 -25 -43 7
-27 52 -56 366 -237 94 -54 208 -121 255 -148 47 -27 175 -101 285 -164 264
-153 416 -243 436 -260 8 -7 19 -13 23 -13 5 0 -2 8 -14 18 -22 18 -23 21 -25
329 -2 171 -5 316 -9 321 -3 5 -47 35 -98 68 -84 52 -638 416 -663 434 -5 4
-21 3 -35 -2z"/>
<path d="M5910 5602 c-52 -33 -198 -123 -325 -202 -126 -78 -267 -166 -312
-194 l-83 -51 0 -312 c0 -249 3 -313 13 -313 7 0 44 16 81 36 49 25 71 32 76
24 5 -8 10 -9 14 -2 3 6 1 12 -6 14 -6 2 18 21 55 41 39 21 74 34 84 31 14 -5
15 -4 4 4 -10 7 13 24 90 67 57 32 243 139 414 239 170 99 317 180 326 180 10
0 16 3 13 7 -2 4 32 28 75 53 66 39 80 51 83 77 4 28 -1 33 -114 107 -66 42
-180 116 -254 165 -74 48 -136 87 -137 87 -2 0 -45 -26 -97 -58z"/>
<path d="M3927 5509 c7 -7 15 -10 18 -7 3 3 -2 9 -12 12 -14 6 -15 5 -6 -5z"/>
<path d="M6247 5059 c7 -7 15 -10 18 -7 3 3 -2 9 -12 12 -14 6 -15 5 -6 -5z"/>
<path d="M4065 4990 c3 -5 11 -10 16 -10 6 0 7 5 4 10 -3 6 -11 10 -16 10 -6
0 -7 -4 -4 -10z"/>
<path d="M4217 4939 c7 -7 15 -10 18 -7 3 3 -2 9 -12 12 -14 6 -15 5 -6 -5z"/>
<path d="M4272 4884 c10 -10 20 -16 22 -13 3 3 -5 11 -17 18 -21 13 -21 12 -5
-5z"/>
<path d="M4305 4860 c-3 -5 -1 -10 4 -10 6 0 11 5 11 10 0 6 -2 10 -4 10 -3 0
-8 -4 -11 -10z"/>
<path d="M4395 4859 c4 -10 16 -16 30 -15 13 0 21 5 18 9 -3 5 -11 6 -18 3 -7
-2 -18 1 -24 7 -9 9 -11 8 -6 -4z"/>
<path d="M4300 4838 c0 -2 9 -11 20 -21 11 -9 20 -13 20 -7 0 5 -9 14 -20 20
-11 6 -20 9 -20 8z"/>
<path d="M4380 4816 c0 -2 7 -7 16 -10 8 -3 12 -2 9 4 -6 10 -25 14 -25 6z"/>
<path d="M4451 4805 c9 -11 19 -27 22 -35 5 -13 6 -13 6 1 1 9 -9 24 -21 35
-23 19 -23 19 -7 -1z"/>
<path d="M4280 4805 c0 -2 10 -10 23 -16 20 -11 21 -11 8 4 -13 16 -31 23 -31
12z"/>
<path d="M4498 4798 c5 -5 16 -8 23 -6 8 3 3 7 -10 11 -17 4 -21 3 -13 -5z"/>
<path d="M4365 4793 c11 -3 29 -12 40 -19 11 -8 24 -14 30 -14 5 0 -3 9 -20
20 -16 11 -39 19 -50 19 l-20 -1 20 -5z"/>
<path d="M4430 4790 c0 -5 5 -10 11 -10 5 0 7 5 4 10 -3 6 -8 10 -11 10 -2 0
-4 -4 -4 -10z"/>
<path d="M5755 4790 c3 -5 14 -10 23 -10 15 0 15 2 2 10 -20 13 -33 13 -25 0z"/>
<path d="M4367 4773 c-4 -3 -7 -11 -7 -17 0 -6 5 -5 12 2 6 6 9 14 7 17 -3 3
-9 2 -12 -2z"/>
<path d="M5060 4770 c0 -5 5 -10 11 -10 5 0 7 5 4 10 -3 6 -8 10 -11 10 -2 0
-4 -4 -4 -10z"/>
<path d="M5685 4770 c3 -5 8 -10 11 -10 2 0 4 5 4 10 0 6 -5 10 -11 10 -5 0
-7 -4 -4 -10z"/>
<path d="M5147 4749 c7 -7 15 -10 18 -7 3 3 -2 9 -12 12 -14 6 -15 5 -6 -5z"/>
<path d="M5650 4744 c0 -8 5 -12 10 -9 6 3 10 10 10 16 0 5 -4 9 -10 9 -5 0
-10 -7 -10 -16z"/>
<path d="M4405 4735 c16 -7 36 -10 44 -7 11 4 11 7 -5 13 -10 4 -30 8 -44 7
-24 0 -24 0 5 -13z"/>
<path d="M4540 4740 c0 -6 7 -10 15 -10 8 0 15 2 15 4 0 2 -7 6 -15 10 -8 3
-15 1 -15 -4z"/>
<path d="M5723 4717 c0 -7 14 -13 31 -14 17 0 24 1 16 4 -8 3 -22 9 -31 14
-10 5 -16 4 -16 -4z"/>
<path d="M5060 4702 c0 -12 19 -26 26 -19 2 2 -2 10 -11 17 -9 8 -15 8 -15 2z"/>
<path d="M4640 4695 c0 -2 9 -9 20 -15 16 -9 18 -8 14 5 -5 13 -34 22 -34 10z"/>
<path d="M5540 4696 c0 -2 7 -9 15 -16 13 -11 14 -10 9 4 -5 14 -24 23 -24 12z"/>
<path d="M4628 4653 c7 -3 16 -2 19 1 4 3 -2 6 -13 5 -11 0 -14 -3 -6 -6z"/>
<path d="M5465 4650 c-7 -12 -11 -11 50 -15 l50 -4 -34 15 c-39 17 -57 18 -66
4z"/>
<path d="M4672 4643 c-30 -6 -18 -23 16 -23 19 0 23 3 13 9 -11 7 -11 9 0 14
16 6 4 6 -29 0z"/>
<path d="M4725 4630 c-3 -5 -1 -10 4 -10 6 0 11 5 11 10 0 6 -2 10 -4 10 -3 0
-8 -4 -11 -10z"/>
<path d="M5573 4588 c-13 -6 -23 -15 -23 -20 0 -5 11 -1 25 8 37 24 35 30 -2
12z"/>
<path d="M4705 4568 c11 -7 22 -13 25 -13 3 0 10 -4 16 -8 7 -4 14 0 18 8 3
10 -1 15 -12 15 -9 0 -28 3 -42 6 -24 5 -24 5 -5 -8z"/>
<path d="M5310 4566 c0 -2 7 -7 16 -10 8 -3 12 -2 9 4 -6 10 -25 14 -25 6z"/>
<path d="M5470 4566 c0 -2 7 -7 16 -10 8 -3 12 -2 9 4 -6 10 -25 14 -25 6z"/>
<path d="M5360 4549 c0 -5 5 -7 10 -4 6 3 10 8 10 11 0 2 -4 4 -10 4 -5 0 -10
-5 -10 -11z"/>
<path d="M5420 4549 c0 -5 9 -9 20 -9 11 0 20 2 20 4 0 2 -9 6 -20 9 -11 3
-20 1 -20 -4z"/>
<path d="M5290 4546 c0 -3 15 -15 33 -27 l32 -23 -24 27 c-22 24 -41 35 -41
23z"/>
<path d="M4910 4531 c0 -5 7 -12 16 -15 14 -5 15 -4 4 9 -14 17 -20 19 -20 6z"/>
<path d="M5235 4520 c3 -5 8 -10 11 -10 2 0 4 5 4 10 0 6 -5 10 -11 10 -5 0
-7 -4 -4 -10z"/>
<path d="M5458 4523 c7 -3 16 -2 19 1 4 3 -2 6 -13 5 -11 0 -14 -3 -6 -6z"/>
<path d="M5406 4509 c3 -5 12 -9 21 -9 19 0 9 13 -12 16 -8 1 -13 -2 -9 -7z"/>
<path d="M5200 4484 c0 -8 5 -12 10 -9 6 4 8 11 5 16 -9 14 -15 11 -15 -7z"/>
<path d="M4990 4481 c0 -5 7 -15 17 -22 15 -13 15 -12 4 9 -12 23 -21 28 -21
13z"/>
<path d="M4941 4476 c2 -2 15 -9 29 -15 24 -11 24 -11 6 3 -16 13 -49 24 -35
12z"/>
<path d="M5248 4473 c7 -3 16 -2 19 1 4 3 -2 6 -13 5 -11 0 -14 -3 -6 -6z"/>
<path d="M5288 4438 c5 -5 16 -8 23 -6 8 3 3 7 -10 11 -17 4 -21 3 -13 -5z"/>
<path d="M5000 4426 c0 -2 7 -7 16 -10 8 -3 12 -2 9 4 -6 10 -25 14 -25 6z"/>
<path d="M5183 4375 c0 -8 4 -12 9 -9 5 3 6 10 3 15 -9 13 -12 11 -12 -6z"/>
<path d="M3525 4390 c3 -5 11 -10 16 -10 6 0 7 5 4 10 -3 6 -11 10 -16 10 -6
0 -7 -4 -4 -10z"/>
<path d="M3444 4381 c-2 -2 -4 -9 -4 -15 0 -6 4 -5 9 3 6 9 11 10 15 2 4 -6
12 -11 17 -11 6 0 7 5 4 10 -8 13 5 13 25 0 13 -8 12 -10 -2 -10 -10 0 -18 -7
-18 -15 0 -12 -4 -13 -19 -5 -23 12 -31 13 -31 3 0 -11 44 -30 58 -25 7 2 9 9
6 14 -5 7 -2 8 6 3 10 -6 8 -12 -8 -25 l-21 -17 26 0 c14 0 29 -7 34 -14 7
-11 9 -10 9 4 0 9 -6 17 -12 17 -7 0 -13 11 -13 25 0 14 6 25 13 25 6 0 12 5
12 11 0 5 -4 8 -9 5 -5 -3 -14 1 -21 9 -10 12 -65 17 -76 6z"/>
<path d="M3442 4308 c2 -6 10 -14 16 -16 7 -2 10 2 6 12 -7 18 -28 22 -22 4z"/>
<path d="M3466 4264 c18 -15 18 -15 -5 -8 -16 4 -21 3 -17 -5 4 -6 15 -11 26
-11 10 0 21 -7 24 -16 4 -9 9 -14 12 -11 6 6 -16 48 -31 59 -20 15 -28 8 -9
-8z"/>
<path d="M3500 4261 c0 -5 12 -8 26 -8 18 0 22 2 13 8 -18 11 -39 11 -39 0z"/>
<path d="M3532 4231 c-11 -7 -11 -9 0 -14 9 -3 15 1 15 9 0 8 -1 14 -1 14 -1
0 -7 -4 -14 -9z"/>
<path d="M3459 4221 c9 -6 10 -11 2 -15 -13 -8 -5 -26 10 -26 6 0 7 5 3 11 -4
8 1 9 17 4 13 -4 26 -12 27 -16 5 -13 32 -11 32 2 0 5 -4 7 -10 4 -5 -3 -10
-1 -10 4 0 6 -8 11 -19 11 -10 0 -24 7 -31 15 -7 8 -18 15 -24 15 -6 0 -5 -4
3 -9z"/>
<path d="M3465 4160 c19 -8 19 -9 1 -9 -11 -1 -17 -4 -13 -7 3 -3 15 -3 28 1
17 6 19 9 8 16 -8 5 -21 8 -29 8 -10 0 -8 -3 5 -9z"/>
<path d="M3508 4138 c-14 -14 -15 -18 -4 -18 8 0 17 7 20 16 9 23 4 24 -16 2z"/>
<path d="M3540 4151 c0 -6 4 -13 10 -16 6 -3 7 1 4 9 -7 18 -14 21 -14 7z"/>
<path d="M3470 4110 c8 -5 20 -10 25 -10 6 0 3 5 -5 10 -8 5 -19 10 -25 10 -5
0 -3 -5 5 -10z"/>
<path d="M3516 4098 c5 -7 -4 -9 -23 -6 -23 3 -29 0 -30 -15 -2 -21 19 -47 36
-47 6 0 11 5 11 10 0 6 -6 10 -14 10 -8 0 -16 6 -19 13 -4 10 2 13 19 9 15 -3
24 0 24 9 0 10 3 10 12 1 10 -10 10 -15 -2 -22 -10 -7 -11 -10 -2 -10 6 0 11
-5 10 -12 -2 -6 10 -18 25 -26 23 -11 31 -12 40 -2 7 7 7 10 1 7 -5 -3 -23 5
-40 19 l-29 24 33 -4 c23 -3 32 -1 29 7 -2 7 -14 11 -25 9 -14 -2 -22 2 -22
11 0 8 -9 17 -20 20 -12 3 -18 1 -14 -5z"/>
<path d="M3625 4020 c-3 -5 1 -10 10 -10 9 0 13 5 10 10 -3 6 -8 10 -10 10 -2
0 -7 -4 -10 -10z"/>
<path d="M3520 4005 c0 -18 26 -42 42 -37 26 6 22 21 -8 32 -29 11 -34 12 -34
5z"/>
<path d="M3603 3992 c-18 -11 -20 -34 -3 -38 8 -2 29 -6 45 -9 28 -4 28 -4 5
5 -23 9 -22 9 9 6 19 -2 45 2 58 9 l24 13 -26 4 c-14 3 -28 1 -31 -3 -3 -5
-21 -9 -41 -9 -27 0 -34 3 -29 15 6 17 5 18 -11 7z"/>
<path d="M3640 3991 c0 -5 9 -7 20 -4 11 3 20 7 20 9 0 2 -9 4 -20 4 -11 0
-20 -4 -20 -9z"/>
<path d="M3630 3890 c8 -5 20 -10 25 -10 6 0 3 5 -5 10 -8 5 -19 10 -25 10 -5
0 -3 -5 5 -10z"/>
<path d="M6737 4393 c-18 -4 -17 -6 4 -29 12 -13 17 -24 10 -24 -6 0 -14 7
-17 15 -13 34 -25 11 -22 -43 2 -49 5 -58 19 -55 9 3 23 -3 32 -12 13 -12 21
-14 34 -6 16 9 16 10 -3 11 -12 0 -24 7 -28 15 -3 8 -12 15 -20 15 -8 0 -18 5
-21 11 -4 6 -1 10 6 8 8 -1 25 -1 38 0 20 1 21 3 11 16 -15 18 1 20 18 3 9 -9
12 -4 12 23 0 52 -20 66 -73 52z m54 -41 c-7 -2 -18 1 -23 6 -8 8 -4 9 13 5
13 -4 18 -8 10 -11z m-56 -22 c3 -5 1 -10 -4 -10 -6 0 -11 5 -11 10 0 6 2 10
4 10 3 0 8 -4 11 -10z"/>
<path d="M6712 4215 c-1 -13 3 -27 10 -31 6 -4 9 -3 6 2 -3 5 10 10 31 11 33
2 34 1 13 -11 -21 -11 -21 -13 -5 -31 18 -18 17 -18 -9 -2 -15 9 -32 17 -38
17 -11 0 -14 -30 -2 -30 4 -1 25 -4 48 -9 l41 -8 1 54 c0 29 -4 53 -10 53 -5
0 -6 -5 -2 -11 4 -8 -1 -9 -17 -4 -13 4 -25 12 -27 16 -8 20 -38 8 -40 -16z
m83 -45 c3 -5 2 -10 -4 -10 -5 0 -13 5 -16 10 -3 6 -2 10 4 10 5 0 13 -4 16
-10z"/>
<path d="M4261 3953 c-10 -4 5 -15 39 -30 29 -13 56 -21 59 -18 3 3 -5 8 -17
12 -12 3 -19 10 -16 15 13 20 -32 34 -65 21z m36 -9 c-3 -3 -12 -4 -19 -1 -8
3 -5 6 6 6 11 1 17 -2 13 -5z"/>
<path d="M4342 3949 c2 -7 18 -16 34 -21 27 -7 28 -6 10 7 -23 18 -14 20 16 4
16 -9 19 -8 16 3 -3 7 -22 14 -42 16 -27 2 -37 0 -34 -9z"/>
<path d="M4665 3910 c3 -5 8 -10 11 -10 2 0 4 5 4 10 0 6 -5 10 -11 10 -5 0
-7 -4 -4 -10z"/>
<path d="M4710 3901 c0 -5 5 -13 10 -16 6 -3 10 -2 10 4 0 5 -4 13 -10 16 -5
3 -10 2 -10 -4z"/>
<path d="M5410 3877 c0 -10 8 -17 18 -17 9 0 13 4 7 8 -5 4 -13 11 -17 16 -5
5 -8 2 -8 -7z"/>
<path d="M5648 3853 c7 -3 16 -2 19 1 4 3 -2 6 -13 5 -11 0 -14 -3 -6 -6z"/>
<path d="M7545 3750 c3 -5 8 -10 11 -10 2 0 4 5 4 10 0 6 -5 10 -11 10 -5 0
-7 -4 -4 -10z"/>
<path d="M7520 3701 l25 -7 -22 -8 c-13 -4 -28 -4 -35 -1 -7 4 -2 -2 11 -13
l24 -20 -39 4 -39 4 25 -21 25 -20 -25 5 c-14 3 -19 3 -12 0 14 -7 16 -34 2
-34 -5 0 -10 5 -10 10 0 6 -7 10 -15 10 -8 0 -15 -5 -15 -11 0 -5 5 -7 11 -3
7 4 10 1 7 -7 -2 -8 -16 -15 -31 -17 -16 -2 -24 -8 -21 -16 3 -8 -4 -16 -15
-19 -23 -6 -30 18 -8 26 7 4 8 6 1 6 -23 2 -34 -25 -20 -45 12 -15 17 -17 27
-6 7 6 20 12 29 12 8 0 37 21 63 46 41 39 46 48 35 62 -11 14 -11 14 7 5 16
-9 23 -7 42 15 20 24 21 27 5 39 -9 7 -26 12 -37 12 -16 -1 -15 -2 5 -8z m-90
-145 c0 -11 -19 -15 -25 -6 -3 5 1 10 9 10 9 0 16 -2 16 -4z"/>
<path d="M7320 3522 c0 -7 -8 -12 -17 -12 -15 -1 -15 -3 4 -19 l23 -19 -43 5
c-23 3 -39 3 -35 -1 5 -7 27 -13 51 -15 5 -1 1 -8 -8 -17 -30 -30 -6 -26 27 4
28 27 30 32 15 38 -9 3 -17 10 -17 15 0 6 9 5 20 -1 15 -8 25 -8 38 0 16 11
15 11 -2 6 -11 -4 -27 1 -37 10 -11 10 -19 12 -19 6z"/>
<path d="M7200 3440 c-11 -8 -9 -9 12 -4 20 4 30 1 40 -15 16 -26 27 -27 25
-1 -1 11 -6 20 -12 20 -5 0 -19 3 -30 5 -11 3 -27 1 -35 -5z"/>
<path d="M7137 3373 c5 -12 2 -15 -10 -10 -9 3 -17 2 -17 -4 0 -14 42 -7 47 7
2 6 -3 14 -11 17 -11 4 -13 1 -9 -10z"/>
<path d="M6920 3239 c0 -5 5 -7 10 -4 6 3 10 8 10 11 0 2 -4 4 -10 4 -5 0 -10
-5 -10 -11z"/>
<path d="M4972 3891 c-11 -7 -10 -10 3 -15 9 -3 13 -10 10 -16 -4 -6 7 -9 28
-8 30 3 34 5 25 21 -5 10 -15 16 -23 14 -7 -3 -17 -1 -21 3 -5 5 -15 5 -22 1z"/>
<path d="M5082 3868 c5 -15 28 -23 28 -10 0 5 -7 13 -16 16 -10 4 -14 1 -12
-6z"/>
<path d="M6135 3860 c-4 -6 5 -10 19 -10 14 0 26 5 26 10 0 6 -9 10 -19 10
-11 0 -23 -4 -26 -10z"/>
<path d="M5340 3869 c0 -5 5 -7 10 -4 6 3 10 8 10 11 0 2 -4 4 -10 4 -5 0 -10
-5 -10 -11z"/>
<path d="M2716 3721 c-70 -46 -75 -145 -11 -187 33 -22 105 -21 138 1 55 36
62 139 12 182 -33 29 -98 31 -139 4z"/>
<path d="M4463 3299 c9 -5 22 -7 28 -3 6 3 16 0 21 -7 7 -10 11 -11 14 -2 3 7
11 10 19 7 7 -3 16 -1 20 5 4 7 -15 11 -57 11 -48 -1 -59 -3 -45 -11z"/>
<path d="M5015 3300 c3 -5 8 -10 11 -10 2 0 4 5 4 10 0 6 -5 10 -11 10 -5 0
-7 -4 -4 -10z"/>
</g>
</svg>
