<?xml version="1.0" standalone="no"?>
<!DOCTYPE svg PUBLIC "-//W3C//DTD SVG 20010904//EN"
 "http://www.w3.org/TR/2001/REC-SVG-20010904/DTD/svg10.dtd">
<svg version="1.0" xmlns="http://www.w3.org/2000/svg"
 width="1024.000000pt" height="1024.000000pt" viewBox="0 0 1024.000000 1024.000000"
 preserveAspectRatio="xMidYMid meet">

<g transform="translate(0.000000,1024.000000) scale(0.100000,-0.100000)"
fill="#000000" stroke="none">
<path d="M4175 9330 c-3 -5 1 -10 10 -10 9 0 13 5 10 10 -3 6 -8 10 -10 10 -2
0 -7 -4 -10 -10z"/>
<path d="M3990 9265 c-7 -9 -20 -13 -29 -10 -10 3 -26 -2 -37 -10 -10 -8 -14
-15 -9 -14 22 3 33 -2 39 -17 3 -8 2 -12 -4 -9 -6 3 -13 0 -16 -9 -6 -17 -42
-18 -64 -2 -13 9 -13 9 -2 -6 8 -10 24 -15 40 -13 15 1 27 4 27 5 0 1 14 4 30
6 32 6 58 23 37 25 -26 3 -31 4 -37 10 -3 4 1 9 10 12 8 4 15 1 15 -4 0 -6 9
-9 20 -6 11 3 18 1 14 -4 -3 -5 2 -9 10 -9 23 0 28 17 10 35 -9 9 -13 19 -9
23 3 4 11 -1 16 -11 6 -9 17 -17 25 -17 9 0 12 -5 8 -11 -4 -8 0 -8 15 0 23
13 28 22 9 19 -7 -2 -12 4 -11 12 4 22 -89 26 -107 5z m20 -5 c0 -5 -5 -10
-11 -10 -5 0 -7 5 -4 10 3 6 8 10 11 10 2 0 4 -4 4 -10z"/>
<path d="M4115 9270 c-3 -5 -2 -10 4 -10 5 0 13 5 16 10 3 6 2 10 -4 10 -5 0
-13 -4 -16 -10z"/>
<path d="M6170 9266 c0 -2 7 -7 16 -10 8 -3 12 -2 9 4 -6 10 -25 14 -25 6z"/>
<path d="M3880 9226 c0 -2 7 -9 15 -16 13 -11 14 -10 9 4 -5 14 -24 23 -24 12z"/>
<path d="M3726 9111 c-3 -4 6 -7 19 -7 14 0 22 2 19 5 -8 8 -34 10 -38 2z"/>
<path d="M3020 8700 c0 -20 25 -38 36 -27 7 6 -18 47 -28 47 -5 0 -8 -9 -8
-20z"/>
<path d="M4236 8675 c-28 -26 -34 -64 -16 -110 15 -38 15 -217 1 -244 l-13
-23 -206 6 c-114 3 -229 8 -255 12 -57 8 -53 11 -230 -181 -60 -66 -174 -185
-252 -265 -78 -80 -208 -218 -289 -307 l-147 -162 3 -340 c2 -187 6 -342 9
-345 3 -4 14 -4 23 0 14 6 16 38 16 324 l0 318 43 59 c24 32 66 83 92 113 122
138 529 565 638 669 l57 55 183 -3 c299 -5 353 -8 365 -15 25 -15 35 37 28
151 -5 103 -4 119 15 164 24 54 21 99 -8 131 -21 23 -25 23 -57 -7z"/>
<path d="M5759 8686 c-7 -7 -239 -15 -647 -22 -337 -6 -405 -10 -409 -22 -3
-8 0 -18 8 -24 13 -9 682 -4 1004 7 116 4 135 2 174 -16 78 -37 132 -82 198
-167 15 -20 58 -67 96 -106 66 -69 69 -70 130 -78 34 -4 170 -10 302 -14 209
-5 244 -9 273 -25 60 -34 105 -20 117 37 5 25 1 38 -18 59 -19 23 -28 26 -54
21 -17 -4 -41 -16 -54 -27 -21 -18 -35 -19 -238 -14 -119 3 -252 10 -296 15
l-80 10 -64 67 c-35 38 -82 93 -104 123 -53 70 -80 97 -109 106 -13 3 -25 10
-28 13 -12 17 -131 61 -162 61 -19 0 -37 -2 -39 -4z"/>
<path d="M7270 8586 c-16 -20 -11 -117 8 -138 8 -10 23 -18 32 -18 10 0 21 -7
24 -15 7 -20 83 -55 116 -54 14 0 38 5 53 12 l29 12 -20 23 c-22 25 -37 29
-28 7 7 -18 -5 -20 -23 -2 -10 8 -12 8 -7 0 3 -6 2 -14 -4 -18 -5 -3 -10 -2
-10 2 0 5 -16 8 -35 7 -19 -1 -35 2 -35 8 0 5 -5 6 -11 2 -16 -9 -31 18 -16
29 8 6 6 7 -5 3 -10 -3 -21 0 -25 7 -11 18 -11 47 1 47 16 0 12 80 -5 91 -19
12 -25 11 -39 -5z m31 -23 c13 -16 12 -17 -3 -4 -10 7 -18 15 -18 17 0 8 8 3
21 -13z"/>
<path d="M7538 8413 c7 -3 16 -2 19 1 4 3 -2 6 -13 5 -11 0 -14 -3 -6 -6z"/>
<path d="M2500 8396 c0 -2 7 -7 16 -10 8 -3 12 -2 9 4 -6 10 -25 14 -25 6z"/>
<path d="M7588 8378 c5 -5 16 -8 23 -6 8 3 3 7 -10 11 -17 4 -21 3 -13 -5z"/>
<path d="M7590 8343 c13 -18 26 -30 29 -28 3 3 -8 18 -23 33 l-29 27 23 -32z"/>
<path d="M7693 8275 c0 -8 4 -12 9 -9 5 3 6 10 3 15 -9 13 -12 11 -12 -6z"/>
<path d="M2817 8259 c7 -7 15 -10 18 -7 3 3 -2 9 -12 12 -14 6 -15 5 -6 -5z"/>
<path d="M2397 8039 c7 -7 15 -10 18 -7 3 3 -2 9 -12 12 -14 6 -15 5 -6 -5z"/>
<path d="M7060 7702 c-17 -6 -30 -22 -30 -39 0 -21 42 -53 70 -53 17 0 38 -13
61 -36 18 -20 62 -59 97 -87 109 -89 102 -52 102 -526 l0 -411 -51 -57 c-100
-113 -139 -152 -157 -157 -28 -9 -45 -52 -30 -76 16 -25 39 -26 61 -2 18 18
141 160 196 223 l33 40 -1 456 -1 457 -50 45 c-27 25 -70 62 -95 81 -25 19
-69 55 -97 80 -59 53 -87 69 -108 62z"/>
<path d="M2123 7657 c0 -8 6 -14 14 -14 9 0 10 4 2 14 -6 7 -12 13 -14 13 -1
0 -2 -6 -2 -13z"/>
<path d="M2037 7489 c7 -7 15 -10 18 -7 3 3 -2 9 -12 12 -14 6 -15 5 -6 -5z"/>
<path d="M2038 7463 c7 -3 16 -2 19 1 4 3 -2 6 -13 5 -11 0 -14 -3 -6 -6z"/>
<path d="M2006 7428 c3 -5 11 -7 17 -5 7 2 17 -3 24 -12 11 -14 12 -14 13 2 0
9 -3 18 -7 18 -34 6 -52 5 -47 -3z"/>
<path d="M1973 7368 c4 -10 2 -18 -2 -18 -15 0 -22 -33 -9 -42 10 -6 9 -8 -3
-8 -9 0 -20 -7 -23 -16 -8 -21 -8 -24 4 -24 6 0 9 5 8 11 -2 6 5 13 15 14 25
5 31 11 23 30 -3 10 -11 13 -18 9 -9 -5 -9 -3 1 9 7 9 19 17 27 17 18 0 27 17
13 26 -8 4 -9 3 -5 -4 10 -16 -7 -15 -23 1 -11 10 -13 9 -8 -5z"/>
<path d="M2005 7309 c-4 -6 -5 -12 -2 -15 2 -3 7 2 10 11 7 17 1 20 -8 4z"/>
<path d="M1927 7239 c7 -7 15 -10 18 -7 3 3 -2 9 -12 12 -14 6 -15 5 -6 -5z"/>
<path d="M1967 7239 c7 -7 15 -10 18 -7 3 3 -2 9 -12 12 -14 6 -15 5 -6 -5z"/>
<path d="M1927 7214 c7 -3 11 -11 9 -17 -1 -7 -1 -9 1 -4 3 4 10 4 16 0 7 -4
6 1 -2 10 -7 9 -19 17 -25 16 -7 0 -7 -2 1 -5z"/>
<path d="M1897 7187 c-3 -8 1 -14 9 -14 8 0 14 6 14 14 0 7 -4 13 -9 13 -5 0
-11 -6 -14 -13z"/>
<path d="M1910 7069 c0 -5 5 -7 10 -4 6 3 10 8 10 11 0 2 -4 4 -10 4 -5 0 -10
-5 -10 -11z"/>
<path d="M1870 7060 c0 -5 5 -10 11 -10 5 0 7 5 4 10 -3 6 -8 10 -11 10 -2 0
-4 -4 -4 -10z"/>
<path d="M2475 7030 c3 -5 -1 -10 -10 -10 -24 0 -61 -41 -74 -83 -13 -38 -7
-91 11 -114 6 -7 7 -13 2 -13 -5 0 6 -10 24 -21 17 -12 33 -24 33 -27 7 -33 9
-99 15 -372 3 -173 8 -317 11 -320 2 -3 59 -4 126 -3 67 1 177 2 245 2 104 1
124 4 129 17 13 36 -34 66 -75 48 -9 -4 -96 -8 -193 -9 l-177 -2 -10 86 c-14
111 -9 520 6 546 6 11 12 16 12 12 0 -8 52 25 76 48 24 23 36 82 25 123 -16
59 -64 96 -129 100 -35 2 -51 -1 -47 -8z m102 -50 c23 -13 34 -29 38 -54 13
-67 -23 -119 -91 -132 -26 -5 -38 0 -68 26 -28 25 -36 39 -36 67 0 91 81 139
157 93z"/>
<path d="M1865 7020 c-3 -6 1 -7 9 -4 18 7 21 14 7 14 -6 0 -13 -4 -16 -10z"/>
<path d="M1854 6996 c11 -9 24 -16 29 -16 5 0 3 -8 -4 -17 -13 -16 -12 -17 4
-4 20 15 23 45 5 38 -7 -2 -22 0 -33 5 -20 9 -20 9 -1 -6z"/>
<path d="M1827 6963 c-13 -12 -7 -23 14 -23 13 0 18 -4 13 -12 -5 -7 -3 -8 5
-4 9 6 8 13 -5 27 -20 22 -18 21 -27 12z"/>
<path d="M1818 6923 c7 -3 16 -2 19 1 4 3 -2 6 -13 5 -11 0 -14 -3 -6 -6z"/>
<path d="M7730 6901 c-14 -27 -13 -54 3 -75 11 -14 12 -76 9 -293 -4 -261 -6
-277 -27 -314 -12 -22 -101 -119 -198 -218 -111 -112 -179 -188 -183 -206 -4
-16 -3 -193 2 -394 5 -201 9 -413 9 -471 0 -113 2 -109 -67 -161 -109 -84 -22
-263 113 -234 17 4 49 25 70 46 32 32 39 46 39 78 0 49 -23 91 -65 118 l-32
21 -7 497 c-6 431 -5 499 8 518 14 21 203 220 333 350 l63 62 6 290 c5 205 10
294 19 305 23 28 24 49 4 74 -26 33 -83 36 -99 7z m-335 -2146 c66 -27 84
-107 36 -156 -62 -61 -161 -19 -161 70 0 33 6 44 36 69 35 29 52 33 89 17z"/>
<path d="M1834 6898 c-3 -4 2 -8 10 -8 8 0 17 4 20 8 3 5 -2 9 -10 9 -8 0 -17
-4 -20 -9z"/>
<path d="M1826 6858 c3 -5 10 -6 15 -3 13 9 11 12 -6 12 -8 0 -12 -4 -9 -9z"/>
<path d="M8460 6830 c-9 -6 -10 -10 -3 -10 6 0 15 5 18 10 8 12 4 12 -15 0z"/>
<path d="M1790 6780 c20 -13 33 -13 25 0 -3 6 -14 10 -23 10 -15 0 -15 -2 -2
-10z"/>
<path d="M1780 6720 c-9 -6 -10 -10 -3 -10 6 0 15 5 18 10 8 12 4 12 -15 0z"/>
<path d="M1808 6693 c7 -3 16 -2 19 1 4 3 -2 6 -13 5 -11 0 -14 -3 -6 -6z"/>
<path d="M1740 6516 c0 -2 7 -6 15 -10 8 -3 15 -1 15 4 0 6 -7 10 -15 10 -8 0
-15 -2 -15 -4z"/>
<path d="M1790 6470 c0 -14 -5 -18 -17 -13 -19 6 -18 5 7 -14 13 -10 16 -7 18
18 1 16 0 29 -3 29 -3 0 -5 -9 -5 -20z"/>
<path d="M1758 6393 c7 -3 16 -2 19 1 4 3 -2 6 -13 5 -11 0 -14 -3 -6 -6z"/>
<path d="M1720 6351 c0 -5 8 -11 18 -15 9 -3 24 -9 32 -13 13 -5 13 -5 0 8
-19 19 -50 31 -50 20z"/>
<path d="M8525 6310 c-3 -5 -1 -10 4 -10 6 0 11 5 11 10 0 6 -2 10 -4 10 -3 0
-8 -4 -11 -10z"/>
<path d="M1710 6289 c0 -5 5 -7 10 -4 6 3 10 8 10 11 0 2 -4 4 -10 4 -5 0 -10
-5 -10 -11z"/>
<path d="M1740 6290 c0 -5 5 -10 11 -10 5 0 7 5 4 10 -3 6 -8 10 -11 10 -2 0
-4 -4 -4 -10z"/>
<path d="M1710 6261 c0 -18 12 -41 21 -41 15 0 10 37 -6 44 -8 3 -15 1 -15 -3z"/>
<path d="M8510 6238 c-12 -8 -12 -9 2 -4 10 3 18 -1 21 -12 4 -16 5 -16 6 0 1
22 -11 29 -29 16z"/>
<path d="M1720 6190 c8 -5 20 -10 25 -10 6 0 3 5 -5 10 -8 5 -19 10 -25 10 -5
0 -3 -5 5 -10z"/>
<path d="M8535 6190 c3 -5 8 -10 11 -10 2 0 4 5 4 10 0 6 -5 10 -11 10 -5 0
-7 -4 -4 -10z"/>
<path d="M8518 6174 c27 -20 28 -31 5 -37 -16 -4 -16 -5 -1 -6 9 0 19 -9 21
-18 3 -10 5 -2 6 18 1 30 -3 38 -26 47 -28 12 -28 12 -5 -4z"/>
<path d="M1710 6161 c0 -25 6 -27 13 -6 4 8 2 17 -3 20 -6 4 -10 -3 -10 -14z"/>
<path d="M1711 6084 c0 -11 3 -14 6 -6 3 7 2 16 -1 19 -3 4 -6 -2 -5 -13z"/>
<path d="M8510 6091 c0 -5 -6 -11 -12 -14 -7 -2 -3 -2 10 0 26 4 43 -24 22
-37 -11 -7 -10 -12 3 -25 16 -15 17 -13 17 28 0 32 -5 47 -16 51 -21 8 -24 8
-24 -3z"/>
<path d="M1759 6088 c-5 -18 -6 -38 -1 -34 7 8 12 36 6 36 -2 0 -4 -1 -5 -2z"/>
<path d="M8490 6020 c0 -5 5 -10 11 -10 5 0 7 5 4 10 -3 6 -8 10 -11 10 -2 0
-4 -4 -4 -10z"/>
<path d="M1710 6005 c0 -8 4 -15 10 -15 5 0 7 7 4 15 -4 8 -8 15 -10 15 -2 0
-4 -7 -4 -15z"/>
<path d="M1740 5991 c0 -6 4 -13 10 -16 6 -3 7 1 4 9 -7 18 -14 21 -14 7z"/>
<path d="M8501 5986 c-10 -12 -9 -13 7 -9 11 2 23 0 26 -6 4 -6 -4 -13 -19
-17 -30 -8 -34 -25 -4 -21 17 1 23 -4 26 -25 3 -22 0 -25 -17 -21 -11 3 -20 3
-20 -1 0 -6 37 -46 43 -46 1 0 3 32 5 72 1 48 -2 75 -11 80 -17 11 -23 10 -36
-6z"/>
<path d="M1712 5935 c-1 -20 -4 -40 -7 -45 -4 -6 -2 -10 3 -10 6 0 8 -8 5 -18
-3 -13 2 -18 23 -20 22 -2 24 1 15 12 -7 8 -8 16 -4 18 4 3 3 3 -4 2 -18 -5
-28 17 -12 27 8 5 9 9 3 9 -14 0 -13 42 1 52 6 5 3 8 -6 8 -11 0 -16 -10 -17
-35z"/>
<path d="M8490 5910 c0 -5 5 -10 11 -10 5 0 7 5 4 10 -3 6 -8 10 -11 10 -2 0
-4 -4 -4 -10z"/>
<path d="M8496 5843 c2 -7 -2 -13 -9 -13 -7 -1 1 -8 17 -16 22 -13 26 -18 15
-25 -9 -6 -18 -3 -26 8 -12 15 -13 14 -13 -9 0 -30 25 -44 45 -24 23 23 23 66
-1 66 -9 0 -12 5 -8 12 4 6 3 8 -4 4 -5 -3 -12 -3 -15 1 -2 5 -2 2 -1 -4z"/>
<path d="M1719 5821 c11 -7 11 -9 0 -13 -8 -3 -10 -9 -6 -14 9 -10 28 16 21
28 -3 4 -11 8 -17 8 -8 0 -7 -3 2 -9z"/>
<path d="M1733 5784 c-15 -16 -16 -24 -4 -24 8 0 24 30 19 35 -2 2 -9 -3 -15
-11z"/>
<path d="M1767 5749 c7 -7 15 -10 18 -7 3 3 -2 9 -12 12 -14 6 -15 5 -6 -5z"/>
<path d="M8525 5750 c-4 -7 -18 -10 -31 -7 -13 2 -24 0 -24 -4 0 -5 15 -9 33
-10 17 0 26 -3 19 -6 -6 -2 -9 -9 -6 -15 4 -6 -2 -6 -14 1 -27 14 -32 14 -32
-4 0 -9 6 -12 17 -8 15 6 16 5 3 -9 -8 -9 -19 -13 -25 -10 -5 3 -4 -2 4 -11 7
-9 19 -17 25 -17 6 0 4 5 -4 10 -9 6 -10 10 -3 10 16 0 26 -17 13 -25 -7 -4
-7 -12 0 -26 12 -21 1 -26 -19 -6 -10 10 -12 8 -9 -8 2 -11 -2 -19 -9 -18 -6
1 -10 -5 -8 -15 2 -9 4 -27 4 -40 1 -16 5 -21 14 -16 6 4 9 4 5 -1 -4 -4 -3
-17 3 -29 9 -19 8 -19 -7 2 -9 12 -21 22 -26 22 -6 0 -6 -6 1 -14 9 -11 9 -16
0 -22 -8 -5 -9 -3 -4 6 5 8 4 11 -2 7 -11 -7 -11 -36 0 -55 6 -8 3 -10 -7 -6
-9 3 -16 1 -16 -5 0 -6 6 -11 14 -11 8 0 18 -5 21 -10 4 -7 -2 -9 -19 -4 -16
4 -26 2 -26 -5 0 -6 9 -11 21 -11 27 0 19 -24 -9 -28 -27 -4 -29 -22 -3 -22
11 0 23 -5 27 -11 4 -7 0 -9 -14 -5 -15 5 -24 1 -32 -14 -6 -11 -8 -25 -5 -30
3 -6 1 -10 -4 -10 -16 0 -13 -26 3 -39 11 -9 15 -9 18 1 3 8 6 7 10 -4 5 -11
0 -18 -13 -21 -10 -3 -17 -2 -14 3 3 4 -2 11 -11 14 -12 5 -15 2 -10 -10 3 -8
6 -18 6 -20 0 -2 8 -4 18 -5 11 0 12 -2 4 -6 -7 -3 -19 0 -26 6 -10 9 -15 8
-20 -4 -3 -10 1 -15 12 -16 14 0 14 -2 -3 -9 l-20 -9 20 0 c14 -1 16 -4 7 -9
-8 -5 -10 -16 -5 -28 6 -17 5 -17 -10 -5 -20 16 -23 2 -4 -18 10 -11 9 -13 -5
-8 -10 3 -19 0 -22 -9 -9 -24 -7 -46 3 -39 5 3 12 1 16 -5 3 -5 -2 -10 -13
-10 -21 0 -50 -50 -29 -50 6 0 4 -5 -6 -11 -9 -6 -15 -14 -12 -20 4 -5 0 -9
-7 -9 -11 0 -10 -2 0 -9 11 -7 10 -9 -3 -15 -9 -3 -14 -10 -10 -15 3 -5 1 -12
-5 -16 -16 -10 -2 -25 18 -19 14 5 14 3 -2 -10 -10 -8 -22 -13 -26 -11 -5 3
-10 -2 -13 -9 -3 -8 -1 -17 6 -20 7 -2 4 -5 -7 -5 -16 -1 -17 -3 -5 -18 7 -10
9 -15 5 -11 -12 10 -39 -29 -31 -42 4 -6 11 -8 16 -5 5 4 9 1 9 -6 0 -6 -8 -9
-20 -6 -25 6 -25 0 -3 -27 10 -12 11 -15 3 -8 -17 14 -34 16 -25 2 3 -5 2 -10
-4 -10 -6 0 -7 -7 -4 -17 5 -12 3 -14 -8 -8 -12 7 -12 6 0 -9 13 -16 13 -17
-4 -14 -14 2 -21 -5 -28 -29 -6 -18 -14 -33 -20 -33 -6 0 -2 -9 8 -20 10 -11
13 -20 7 -20 -6 0 -12 5 -14 12 -3 7 -19 -9 -37 -35 -17 -26 -29 -47 -26 -47
3 0 -4 -9 -15 -20 -11 -11 -20 -25 -20 -31 0 -5 -6 -7 -12 -4 -7 4 -4 -1 6 -9
17 -14 18 -16 3 -16 -9 0 -17 -7 -17 -15 0 -8 -5 -15 -12 -15 -6 0 -9 -3 -5
-6 3 -4 -4 -15 -16 -26 -12 -11 -16 -17 -10 -13 9 4 11 1 7 -9 -3 -9 -10 -14
-14 -11 -8 5 -25 -24 -22 -37 1 -5 -2 -8 -7 -8 -5 0 -18 -15 -29 -32 -16 -24
-18 -35 -9 -40 8 -5 4 -8 -9 -8 -12 0 -25 -7 -28 -16 -4 -11 -2 -15 7 -11 8 3
14 -1 14 -9 0 -9 -6 -13 -15 -9 -8 3 -20 0 -28 -5 -10 -9 -10 -15 3 -30 9 -11
21 -16 26 -13 6 3 7 1 3 -5 -5 -9 -13 -9 -27 -1 -11 5 -28 8 -37 6 -16 -4 -16
-5 1 -6 9 0 17 -6 17 -12 0 -6 -7 -9 -15 -5 -8 3 -14 0 -12 -6 1 -7 -3 -12
-10 -13 -18 0 -28 -15 -10 -15 9 0 19 5 22 10 4 6 11 8 16 4 18 -11 -2 -24
-37 -24 -22 0 -33 -4 -29 -10 4 -6 15 -8 25 -5 10 3 21 1 25 -5 4 -6 -8 -10
-33 -10 -25 0 -45 -6 -53 -17 -8 -10 -9 -14 -2 -10 6 4 15 3 18 -3 4 -6 3 -9
-2 -8 -4 1 -18 -1 -30 -6 -15 -5 -20 -12 -16 -23 5 -12 3 -14 -8 -8 -11 7 -11
5 1 -10 14 -16 13 -17 -7 -11 -25 8 -41 -10 -24 -27 15 -15 14 -27 -4 -27 -8
0 -15 5 -15 12 0 6 -11 1 -25 -12 -17 -16 -22 -27 -15 -34 16 -16 11 -30 -6
-15 -13 10 -17 10 -25 -2 -13 -21 -11 -27 11 -34 11 -3 20 -11 20 -16 0 -12
-14 -11 -27 2 -6 6 -19 9 -29 6 -16 -4 -15 -5 4 -6 12 0 22 -6 22 -12 0 -5 -4
-7 -10 -4 -5 3 -10 1 -10 -5 0 -8 -6 -8 -20 0 -11 6 -20 8 -20 6 0 -3 12 -12
28 -20 27 -15 27 -15 -18 -11 -43 3 -44 3 -22 -12 21 -15 33 -41 12 -28 -14 9
-54 16 -46 8 3 -4 -7 -12 -24 -19 -22 -9 -28 -17 -23 -30 5 -13 2 -15 -14 -10
-12 4 -25 1 -33 -9 -7 -9 -8 -15 -2 -15 6 0 12 5 14 12 3 7 10 8 17 3 10 -6 8
-11 -10 -21 -13 -7 -27 -10 -31 -7 -5 2 -15 -3 -24 -11 -8 -9 -11 -16 -6 -16
6 0 13 -7 16 -16 6 -15 4 -15 -19 0 -21 14 -24 14 -19 1 4 -11 2 -13 -9 -9 -8
3 -18 1 -21 -4 -3 -5 5 -8 17 -7 12 1 31 -1 42 -6 17 -6 17 -8 3 -8 -10 -1
-18 -6 -18 -12 0 -5 -5 -7 -10 -4 -6 4 -23 8 -38 10 -15 2 -21 2 -14 -1 19 -9
34 -42 22 -49 -6 -4 -9 -1 -8 6 2 6 -3 14 -11 16 -9 4 -11 0 -7 -15 6 -19 4
-21 -23 -17 -17 2 -31 -1 -31 -6 0 -5 4 -9 9 -9 5 0 16 -3 24 -6 16 -6 120 79
125 103 2 7 9 11 15 7 7 -3 2 3 -11 15 -12 11 -18 22 -13 25 5 3 11 -1 15 -9
8 -21 29 -19 60 6 30 24 33 36 9 41 -15 3 -15 4 0 19 9 9 14 19 12 21 -3 3 2
5 10 5 20 0 19 -16 -1 -24 -12 -4 -13 -8 -3 -14 13 -8 43 16 141 115 32 33 58
66 58 74 0 7 4 11 9 7 5 -3 55 49 111 116 81 98 98 124 89 135 -9 11 -9 13 2
10 8 -3 21 0 29 7 27 21 62 76 55 87 -4 6 -2 9 3 8 12 -4 49 38 57 63 4 11 10
17 15 14 4 -3 11 6 14 20 4 14 11 25 16 25 6 0 10 4 10 8 0 4 29 59 65 122 36
63 65 119 65 126 0 7 3 14 8 16 4 2 31 55 60 118 30 63 58 123 63 132 5 10 9
25 9 33 0 10 5 13 12 9 7 -5 9 -2 5 8 -3 9 -3 19 1 23 4 4 7 10 8 13 3 24 19
70 32 90 8 12 12 33 10 47 -3 13 -2 22 2 20 10 -6 53 133 45 145 -3 6 -1 10 5
10 6 0 8 5 5 10 -3 6 -1 10 6 10 7 0 10 11 7 29 -2 17 -1 28 3 25 4 -2 10 15
14 38 4 24 10 48 14 53 3 6 7 21 7 35 1 14 9 52 18 85 10 38 12 61 6 63 -5 2
-10 8 -10 13 0 6 4 8 9 5 10 -7 14 10 32 137 12 83 10 112 -6 87z m-28 -174
c-3 -8 -2 -16 4 -18 5 -2 -1 -9 -13 -17 -21 -13 -22 -13 -9 2 12 15 11 17 -5
18 -17 1 -17 2 -1 6 9 2 15 9 12 14 -4 5 -1 9 5 9 7 0 10 -6 7 -14z m-7 -120
c0 -2 -11 -6 -25 -8 -13 -3 -22 -1 -19 3 5 9 44 13 44 5z m-50 -176 c0 -4 -8
-14 -17 -21 -16 -13 -17 -12 -4 4 9 11 10 17 2 17 -6 0 -11 4 -11 10 0 5 7 7
15 4 8 -4 15 -10 15 -14z m-176 -539 c4 -5 -3 -7 -14 -4 -23 6 -26 13 -6 13 8
0 17 -4 20 -9z m-94 -161 c6 -11 8 -20 6 -20 -3 0 -10 9 -16 20 -6 11 -8 20
-6 20 3 0 10 -9 16 -20z m-25 -30 c-3 -5 2 -10 11 -10 10 0 15 -3 11 -6 -10
-10 -39 5 -32 16 3 5 8 10 11 10 3 0 2 -4 -1 -10z m-35 -75 c0 -8 -4 -15 -8
-15 -5 0 -9 7 -9 15 0 8 4 15 9 15 4 0 8 -7 8 -15z m23 -20 c-7 -21 -12 -19
-10 4 0 11 5 18 9 15 4 -3 5 -11 1 -19z m-47 -21 c2 -12 -1 -13 -12 -3 -7 6
-11 16 -8 21 7 11 17 3 20 -18z m-16 -24 c0 -5 -8 -10 -17 -10 -15 0 -16 -2
-3 -10 9 -6 10 -10 3 -10 -20 0 -24 18 -6 29 23 13 23 13 23 1z m-33 -106 c-3
-3 -12 -4 -19 -1 -8 3 -5 6 6 6 11 1 17 -2 13 -5z m-88 -104 c-6 -5 -18 -6
-26 -3 -19 8 -16 11 13 11 17 0 22 -3 13 -8z m-32 -35 c0 -8 -4 -12 -9 -9 -5
3 -6 10 -3 15 9 13 12 11 12 -6z m-197 -275 c0 -13 -11 -13 -30 0 -12 8 -11
10 8 10 12 0 22 -4 22 -10z m-13 -36 c-3 -3 -12 -4 -19 -1 -8 3 -5 6 6 6 11 1
17 -2 13 -5z m-23 -36 c-3 -4 -9 -8 -15 -8 -5 0 -9 4 -9 8 0 5 7 9 15 9 8 0
12 -4 9 -9z m-217 -224 c-9 -9 -28 6 -21 18 4 6 10 6 17 -1 6 -6 8 -13 4 -17z
m-81 -79 c-11 -8 -24 -15 -30 -15 -5 0 -1 7 10 15 10 8 24 14 29 14 6 0 1 -6
-9 -14z"/>
<path d="M1726 5722 c1 -15 2 -30 3 -34 1 -4 8 -5 16 -2 13 5 13 8 0 21 -19
18 -20 29 -1 14 8 -7 16 -8 19 -4 5 9 -12 27 -29 30 -6 1 -10 -10 -8 -25z"/>
<path d="M2769 5610 c-67 -71 -129 -139 -137 -151 -12 -18 -16 -68 -19 -267
-1 -136 -6 -254 -9 -265 -4 -14 27 -50 133 -155 185 -182 208 -202 237 -202
60 0 55 76 -8 98 -18 7 -40 12 -49 12 -14 0 -77 56 -240 212 l-28 28 4 246 4
245 55 57 c170 177 213 224 216 233 4 11 -16 39 -28 39 -5 0 -63 -58 -131
-130z"/>
<path d="M1738 5651 c3 -9 10 -19 16 -23 7 -5 7 -8 -1 -8 -15 0 -18 -36 -4
-44 5 -3 11 1 15 9 3 8 0 15 -7 15 -8 0 -7 3 2 9 12 8 12 12 2 25 -12 14 -10
16 13 16 15 0 25 4 21 9 -3 5 -18 9 -34 9 -22 -1 -28 -5 -23 -17z"/>
<path d="M1775 5610 c-8 -13 5 -13 25 0 13 8 13 10 -2 10 -9 0 -20 -4 -23 -10z"/>
<path d="M1780 5580 c19 -13 30 -13 30 0 0 6 -10 10 -22 10 -19 0 -20 -2 -8
-10z"/>
<path d="M1755 5559 c-10 -15 -2 -20 36 -24 32 -4 33 -3 11 8 -12 7 -19 16
-16 20 4 4 0 7 -9 7 -9 0 -19 -5 -22 -11z"/>
<path d="M7750 5514 c-11 -28 -13 -176 -4 -211 4 -13 12 -23 19 -23 12 0 25
107 25 206 0 51 -25 68 -40 28z"/>
<path d="M1760 5521 c0 -10 30 -24 37 -17 3 2 -5 9 -16 16 -12 6 -21 7 -21 1z"/>
<path d="M1776 5481 c-17 -7 -16 -9 10 -29 16 -12 34 -26 41 -32 8 -7 11 -4
10 10 -1 11 -8 20 -17 20 -8 0 -22 5 -30 11 -12 9 -10 10 8 6 19 -5 21 -3 11
9 -6 8 -12 14 -13 13 0 0 -10 -4 -20 -8z"/>
<path d="M1773 5426 c11 -9 15 -20 11 -32 -7 -18 -6 -18 12 -1 19 18 19 18 0
33 -11 8 -25 14 -30 14 -6 0 -3 -7 7 -14z"/>
<path d="M1810 5390 c0 -13 11 -13 30 0 12 8 11 10 -7 10 -13 0 -23 -4 -23
-10z"/>
<path d="M1790 5351 c0 -26 16 -35 37 -21 16 9 15 10 -4 5 -16 -5 -23 -2 -23
8 0 10 9 13 33 11 23 -3 28 -1 17 6 -27 17 -60 12 -60 -9z"/>
<path d="M1806 5302 c-2 -4 4 -8 14 -8 10 0 16 4 14 8 -3 4 -9 8 -14 8 -5 0
-11 -4 -14 -8z"/>
<path d="M1810 5249 c0 -5 5 -7 10 -4 6 3 10 8 10 11 0 2 -4 4 -10 4 -5 0 -10
-5 -10 -11z"/>
<path d="M1833 5233 c-23 -8 -13 -22 12 -17 14 2 25 1 25 -4 0 -5 7 -9 15 -9
8 0 15 2 15 3 0 9 -57 31 -67 27z"/>
<path d="M1840 5189 c0 -5 9 -9 20 -9 11 0 20 2 20 4 0 2 -9 6 -20 9 -11 3
-20 1 -20 -4z"/>
<path d="M1837 5150 c6 -22 33 -49 33 -32 0 6 -6 12 -12 15 -7 2 -10 8 -6 12
4 4 15 2 23 -5 12 -10 19 -10 27 -2 9 9 7 12 -10 12 -12 0 -22 5 -22 10 0 6
-9 10 -19 10 -14 0 -18 -5 -14 -20z"/>
<path d="M1903 5103 c-19 -7 -16 -20 8 -26 15 -4 18 -2 10 7 -6 7 -8 16 -4 19
7 8 4 8 -14 0z"/>
<path d="M3948 5103 c7 -3 16 -2 19 1 4 3 -2 6 -13 5 -11 0 -14 -3 -6 -6z"/>
<path d="M1866 5065 c4 -8 8 -15 10 -15 2 0 4 7 4 15 0 8 -4 15 -10 15 -5 0
-7 -7 -4 -15z"/>
<path d="M1890 5060 c0 -5 5 -10 11 -10 5 0 7 5 4 10 -3 6 -8 10 -11 10 -2 0
-4 -4 -4 -10z"/>
<path d="M1877 5019 c3 -11 14 -24 25 -30 10 -5 16 -14 13 -20 -10 -15 0 -11
25 11 13 11 18 20 12 20 -6 0 -13 -4 -17 -10 -3 -5 -14 -2 -25 7 -10 9 -17 20
-15 24 3 4 -1 9 -9 12 -10 4 -12 0 -9 -14z"/>
<path d="M1920 5036 c0 -2 7 -7 16 -10 8 -3 12 -2 9 4 -6 10 -25 14 -25 6z"/>
<path d="M1934 4925 c-16 -12 -17 -14 -3 -15 9 0 19 7 23 15 7 19 5 19 -20 0z"/>
<path d="M1925 4891 c-3 -5 -1 -12 5 -16 5 -3 10 -15 10 -26 0 -10 5 -19 11
-19 5 0 7 -4 4 -10 -3 -5 1 -22 9 -37 l15 -28 -3 30 c-1 17 1 35 5 40 8 10
-24 56 -38 55 -4 0 -7 5 -5 10 3 13 -5 13 -13 1z"/>
<path d="M4260 4895 c0 -2 14 -13 30 -25 17 -12 30 -18 30 -13 0 4 -14 16 -30
25 -17 9 -30 15 -30 13z"/>
<path d="M4396 4872 c-2 -4 -1 -14 4 -22 7 -11 9 -9 7 8 -1 24 -3 26 -11 14z"/>
<path d="M4420 4856 c0 -2 7 -7 16 -10 8 -3 12 -2 9 4 -6 10 -25 14 -25 6z"/>
<path d="M5838 4842 c20 -22 25 -21 16 2 -3 9 -12 16 -20 16 -11 0 -10 -4 4
-18z"/>
<path d="M4415 4820 c-3 -5 -12 -7 -20 -3 -8 3 -15 3 -15 0 0 -13 30 -14 40
-1 7 8 10 14 7 14 -3 0 -8 -4 -12 -10z"/>
<path d="M2010 4816 c0 -2 8 -10 18 -17 15 -13 16 -12 3 4 -13 16 -21 21 -21
13z"/>
<path d="M4440 4816 c0 -2 8 -10 18 -17 15 -13 16 -12 3 4 -13 16 -21 21 -21
13z"/>
<path d="M5744 4809 c-3 -6 0 -15 7 -20 22 -14 36 -10 17 5 -10 7 -15 16 -11
19 3 4 4 7 0 7 -3 0 -9 -5 -13 -11z"/>
<path d="M4285 4800 c3 -5 8 -10 11 -10 2 0 4 5 4 10 0 6 -5 10 -11 10 -5 0
-7 -4 -4 -10z"/>
<path d="M5070 4806 c0 -2 7 -7 16 -10 8 -3 12 -2 9 4 -6 10 -25 14 -25 6z"/>
<path d="M4383 4793 c4 -6 0 -13 -8 -17 -8 -3 -15 -11 -15 -17 0 -7 8 -5 20 6
15 14 23 16 32 7 9 -9 6 -14 -12 -20 -22 -8 -22 -9 -4 -17 10 -4 30 -9 43 -10
22 -2 23 -1 6 11 -10 7 -22 11 -28 7 -6 -3 -7 -1 -3 6 5 7 17 9 29 5 27 -8 23
-4 -27 26 -22 13 -37 19 -33 13z"/>
<path d="M4430 4790 c0 -5 5 -10 11 -10 5 0 7 5 4 10 -3 6 -8 10 -11 10 -2 0
-4 -4 -4 -10z"/>
<path d="M4508 4793 c7 -3 16 -2 19 1 4 3 -2 6 -13 5 -11 0 -14 -3 -6 -6z"/>
<path d="M2003 4776 c-6 -8 -9 -17 -6 -20 4 -3 1 -6 -5 -6 -7 0 -12 -5 -12
-11 0 -5 5 -7 10 -4 6 3 10 0 11 -7 3 -31 6 -45 18 -75 15 -38 33 -46 58 -28
17 13 16 14 -8 10 -21 -4 -28 0 -32 16 -4 13 -1 19 6 16 16 -6 40 20 27 28 -6
3 -10 1 -10 -4 0 -6 -7 -11 -15 -11 -8 0 -15 5 -15 11 0 5 -4 7 -10 4 -5 -3
-10 -1 -10 5 0 6 8 9 18 6 9 -3 24 -1 32 4 11 7 11 10 2 10 -8 0 -10 5 -6 13
6 10 4 10 -7 0 -16 -16 -39 -17 -39 -2 0 5 4 8 9 4 5 -3 12 -1 16 5 3 5 -1 10
-10 10 -12 0 -15 6 -10 20 7 23 5 25 -12 6z"/>
<path d="M5875 4780 c-3 -6 1 -7 9 -4 18 7 21 14 7 14 -6 0 -13 -4 -16 -10z"/>
<path d="M5060 4770 c0 -5 5 -10 11 -10 5 0 7 5 4 10 -3 6 -8 10 -11 10 -2 0
-4 -4 -4 -10z"/>
<path d="M5685 4770 c3 -5 8 -10 11 -10 2 0 4 5 4 10 0 6 -5 10 -11 10 -5 0
-7 -4 -4 -10z"/>
<path d="M5740 4770 c8 -5 20 -10 25 -10 6 0 3 5 -5 10 -8 5 -19 10 -25 10 -5
0 -3 -5 5 -10z"/>
<path d="M4535 4740 c-3 -5 -1 -10 4 -10 6 0 11 5 11 10 0 6 -2 10 -4 10 -3 0
-8 -4 -11 -10z"/>
<path d="M5067 4739 c7 -7 15 -10 18 -7 3 3 -2 9 -12 12 -14 6 -15 5 -6 -5z"/>
<path d="M5723 4715 c0 -8 4 -12 9 -9 5 3 6 10 3 15 -9 13 -12 11 -12 -6z"/>
<path d="M5060 4701 c0 -5 5 -13 10 -16 6 -3 10 -2 10 4 0 5 -4 13 -10 16 -5
3 -10 2 -10 -4z"/>
<path d="M5660 4700 c0 -5 5 -10 11 -10 5 0 7 5 4 10 -3 6 -8 10 -11 10 -2 0
-4 -4 -4 -10z"/>
<path d="M4629 4690 c-6 -4 1 -7 15 -7 14 0 26 3 26 7 0 3 -7 7 -15 7 -8 0
-19 -4 -26 -7z"/>
<path d="M5553 4683 c14 -14 19 -15 29 -4 11 10 10 11 -4 6 -11 -4 -18 -2 -18
4 0 6 -5 11 -12 11 -8 0 -6 -6 5 -17z"/>
<path d="M4685 4680 c-3 -6 1 -7 9 -4 18 7 21 14 7 14 -6 0 -13 -4 -16 -10z"/>
<path d="M5730 4680 c0 -5 5 -10 10 -10 6 0 10 5 10 10 0 6 -4 10 -10 10 -5 0
-10 -4 -10 -10z"/>
<path d="M5660 4659 c0 -5 5 -7 10 -4 6 3 10 8 10 11 0 2 -4 4 -10 4 -5 0 -10
-5 -10 -11z"/>
<path d="M4628 4653 c7 -3 16 -2 19 1 4 3 -2 6 -13 5 -11 0 -14 -3 -6 -6z"/>
<path d="M5469 4653 c-1 -5 -1 -12 0 -17 1 -5 -6 -5 -16 -2 -14 6 -15 5 -6 -5
9 -9 16 -9 25 -1 7 6 30 8 51 5 22 -3 37 0 37 6 0 6 -7 8 -15 5 -8 -4 -15 -2
-15 3 0 11 -60 16 -61 6z"/>
<path d="M4683 4643 c-25 -9 -13 -23 20 -22 23 1 26 3 9 6 -12 2 -20 9 -17 14
7 10 6 10 -12 2z"/>
<path d="M5628 4623 c6 -2 18 -2 25 0 6 3 1 5 -13 5 -14 0 -19 -2 -12 -5z"/>
<path d="M2090 4611 c0 -9 30 -24 36 -18 2 1 -6 8 -16 15 -11 7 -20 8 -20 3z"/>
<path d="M5525 4610 c3 -5 8 -10 11 -10 2 0 4 5 4 10 0 6 -5 10 -11 10 -5 0
-7 -4 -4 -10z"/>
<path d="M2040 4604 c0 -8 125 -242 136 -255 8 -8 14 -19 14 -23 0 -11 79
-133 147 -228 35 -48 63 -92 63 -98 0 -5 3 -10 8 -10 4 0 52 -53 107 -117 82
-96 100 -123 100 -150 1 -18 -3 -33 -8 -33 -5 0 -6 -7 -3 -16 3 -8 2 -12 -4
-9 -16 10 -12 -81 6 -117 9 -18 27 -41 41 -51 24 -18 25 -18 39 0 14 17 14 16
4 -5 -9 -19 -8 -23 15 -32 33 -13 128 -13 121 -1 -4 5 2 7 13 4 12 -3 25 4 38
21 11 14 23 23 26 20 11 -11 49 58 44 82 -2 13 -1 27 4 29 9 6 5 31 -11 81
-11 31 -69 92 -90 95 -14 2 -29 6 -32 9 -9 7 -46 5 -41 -3 3 -6 -1 -6 -12 0
-21 12 -55 6 -55 -10 0 -6 -10 -1 -23 11 -13 12 -27 19 -31 15 -4 -5 -6 -3 -4
3 5 16 -61 86 -74 78 -7 -4 -8 -3 -4 4 7 12 -111 159 -125 155 -4 -2 -6 3 -3
10 2 7 -9 27 -25 45 -17 17 -28 32 -26 32 7 0 -46 74 -58 82 -7 4 -12 12 -12
17 0 6 -6 18 -13 28 -7 10 -21 32 -32 50 -14 23 -25 31 -40 28 -17 -3 -19 -1
-10 16 8 15 7 26 -6 49 -10 16 -21 27 -26 24 -4 -3 -5 3 -1 12 4 12 3 15 -5
10 -8 -4 -10 -2 -6 8 3 9 -2 17 -15 21 -12 3 -21 11 -21 16 0 6 5 7 12 3 7 -4
8 -3 4 4 -4 6 -14 8 -23 5 -11 -4 -14 -3 -9 5 4 7 2 12 -3 12 -6 0 -11 8 -11
18 0 14 -2 15 -10 2 -7 -12 -10 -8 -10 15 0 23 -3 27 -10 15 -9 -13 -10 -13
-11 0 -1 8 -1 18 0 22 0 4 -8 6 -19 5 -11 -1 -20 -2 -20 -3z m124 -132 c3 -5
-1 -9 -9 -9 -8 0 -12 4 -9 9 3 4 7 8 9 8 2 0 6 -4 9 -8z m146 -232 c0 -5 -5
-10 -11 -10 -5 0 -7 5 -4 10 3 6 8 10 11 10 2 0 4 -4 4 -10z m345 -490 c3 -6
-1 -7 -9 -4 -18 7 -21 14 -7 14 6 0 13 -4 16 -10z m203 -21 c18 -12 42 -54 42
-76 0 -7 6 -13 13 -14 10 0 10 -2 0 -6 -7 -2 -13 -14 -13 -25 0 -11 -9 -33
-20 -48 -15 -21 -17 -29 -8 -33 7 -2 0 -4 -16 -4 -15 0 -31 -4 -35 -9 -3 -5
-19 -10 -36 -12 -23 -2 -26 -1 -15 7 11 8 5 9 -21 5 -31 -5 -39 -2 -66 29 -17
20 -33 34 -35 32 -2 -2 -2 11 0 30 3 27 1 35 -12 35 -9 0 -16 4 -16 10 0 5 6
7 14 4 22 -8 41 33 25 54 -11 14 -11 15 0 5 11 -9 19 -8 37 4 13 8 21 20 17
26 -3 6 -1 7 5 3 7 -4 19 -3 28 2 18 10 83 -1 112 -19z"/>
<path d="M5560 4580 c-14 -11 -20 -20 -15 -20 6 0 21 9 35 20 14 11 21 20 15
20 -5 0 -21 -9 -35 -20z"/>
<path d="M2130 4571 c0 -6 4 -13 10 -16 6 -3 7 1 4 9 -7 18 -14 21 -14 7z"/>
<path d="M4705 4567 c35 -24 53 -27 59 -10 5 12 1 14 -14 10 -11 -3 -23 -1
-26 4 -3 5 -13 9 -22 9 -14 0 -13 -2 3 -13z"/>
<path d="M5341 4573 c-1 -7 -9 -10 -18 -7 -16 5 -16 4 0 -6 21 -13 32 -8 24
12 -4 9 -6 9 -6 1z"/>
<path d="M4810 4550 c-8 -5 -10 -10 -5 -10 6 0 17 5 25 10 8 5 11 10 5 10 -5
0 -17 -5 -25 -10z"/>
<path d="M5360 4545 c0 -8 2 -15 4 -15 2 0 6 7 10 15 3 8 1 15 -4 15 -6 0 -10
-7 -10 -15z"/>
<path d="M5407 4546 c-4 -10 0 -12 14 -9 10 3 16 9 13 14 -8 13 -21 11 -27 -5z"/>
<path d="M5304 4535 c8 -8 18 -15 22 -15 3 0 1 7 -6 15 -7 8 -17 15 -22 15 -5
0 -3 -7 6 -15z"/>
<path d="M4901 4537 c2 -1 15 -11 29 -22 l25 -20 -19 23 c-11 12 -24 22 -29
22 -6 0 -8 -1 -6 -3z"/>
<path d="M4973 4525 c0 -8 4 -12 9 -9 5 3 6 10 3 15 -9 13 -12 11 -12 -6z"/>
<path d="M5458 4523 c7 -3 16 -2 19 1 4 3 -2 6 -13 5 -11 0 -14 -3 -6 -6z"/>
<path d="M5050 4516 c0 -2 8 -10 18 -17 15 -13 16 -12 3 4 -13 16 -21 21 -21
13z"/>
<path d="M5410 4506 c7 -7 13 -7 20 0 6 6 3 10 -10 10 -13 0 -16 -4 -10 -10z"/>
<path d="M5203 4485 c0 -8 4 -12 9 -9 5 3 6 10 3 15 -9 13 -12 11 -12 -6z"/>
<path d="M4990 4480 c0 -5 5 -10 11 -10 5 0 7 5 4 10 -3 6 -8 10 -11 10 -2 0
-4 -4 -4 -10z"/>
<path d="M5245 4480 c-3 -5 -1 -10 4 -10 6 0 11 5 11 10 0 6 -2 10 -4 10 -3 0
-8 -4 -11 -10z"/>
<path d="M4950 4473 c8 -3 22 -11 30 -17 13 -10 13 -9 1 7 -7 9 -21 17 -30 16
-13 0 -14 -1 -1 -6z"/>
<path d="M5288 4438 c5 -5 16 -8 23 -6 8 3 3 7 -10 11 -17 4 -21 3 -13 -5z"/>
<path d="M3525 4390 c3 -5 11 -10 16 -10 6 0 7 5 4 10 -3 6 -11 10 -16 10 -6
0 -7 -4 -4 -10z"/>
<path d="M6720 4391 c0 -3 10 -15 22 -28 12 -13 16 -23 9 -23 -6 0 -14 7 -17
15 -4 8 -10 15 -15 15 -13 0 -11 -88 2 -96 8 -4 7 -9 -2 -16 -10 -6 -7 -7 9
-3 16 5 27 1 36 -10 10 -14 17 -16 32 -7 18 11 18 11 -3 12 -13 0 -23 5 -23
10 0 6 -12 15 -26 20 -14 6 -22 15 -19 20 4 6 11 7 17 4 6 -4 17 1 25 12 12
17 15 17 29 2 15 -15 14 -16 -5 -23 -25 -8 -27 -20 -5 -29 24 -9 32 0 27 31
-2 16 -4 40 -4 54 1 15 -5 31 -12 37 -12 11 -77 12 -77 3z m80 -36 c0 -11 -29
-11 -33 -1 -4 10 1 12 14 9 10 -3 19 -7 19 -8z m-65 -25 c3 -5 1 -10 -4 -10
-6 0 -11 5 -11 10 0 6 2 10 4 10 3 0 8 -4 11 -10z"/>
<path d="M3445 4379 c-4 -6 -4 -13 -1 -16 3 -4 6 -1 6 6 0 7 5 9 12 5 8 -5 6
-11 -6 -20 -16 -12 -16 -13 6 -25 13 -7 32 -12 43 -11 19 2 19 2 1 -9 -14 -9
-24 -9 -37 0 -23 13 -29 14 -29 2 0 -5 14 -14 30 -20 19 -6 30 -6 30 0 0 5 10
8 23 6 12 -2 17 -2 11 0 -6 2 -9 15 -6 28 2 14 8 22 13 19 5 -3 9 1 9 9 0 7
-7 14 -15 14 -8 0 -15 -4 -15 -8 0 -5 -7 -6 -15 -3 -8 4 -15 10 -15 16 0 5 5
6 10 3 6 -3 10 -1 10 4 0 14 -13 14 -28 -1 -9 -9 -12 -9 -12 0 0 15 -17 16
-25 1z m40 -29 c3 -5 -1 -10 -10 -10 -9 0 -13 5 -10 10 3 6 8 10 10 10 2 0 7
-4 10 -10z"/>
<path d="M6765 4300 c-3 -6 1 -7 9 -4 18 7 21 14 7 14 -6 0 -13 -4 -16 -10z"/>
<path d="M3479 4264 c18 -8 36 -13 39 -10 8 9 0 13 -38 20 l-35 6 34 -16z"/>
<path d="M3460 4247 c14 -6 30 -18 37 -27 10 -13 14 -13 25 -1 9 10 9 12 1 7
-7 -4 -13 -3 -13 2 0 6 -14 15 -31 21 -41 14 -51 13 -19 -2z"/>
<path d="M6720 4239 c-13 -7 -13 -9 0 -9 13 0 13 -2 1 -9 -8 -5 -11 -16 -8
-25 5 -13 11 -15 26 -6 11 5 30 10 43 9 l23 -1 -24 -7 c-34 -9 -36 -25 -6 -45
14 -9 25 -20 25 -25 0 -12 -41 -7 -66 7 -24 14 -14 15 20 2 32 -12 33 -4 4 21
-32 26 -45 23 -53 -11 -4 -17 -14 -37 -22 -46 -19 -19 -11 -28 18 -19 15 5 18
10 9 15 -8 5 -7 9 6 14 20 8 67 -20 61 -37 -6 -19 -47 -21 -47 -3 0 13 -4 14
-25 4 -24 -11 -24 -13 -10 -34 19 -29 19 -38 1 -31 -7 3 -19 0 -25 -6 -13 -13
-14 2 -2 22 13 21 -9 41 -31 28 -9 -6 -14 -15 -12 -19 3 -4 -3 -8 -13 -9 -14
0 -12 -3 7 -12 47 -22 68 -41 63 -54 -3 -7 0 -13 6 -13 7 0 16 10 21 23 5 12
9 18 10 12 0 -5 4 -3 10 5 6 9 5 20 -3 30 -11 13 -10 13 6 0 17 -12 20 -12 28
3 6 9 10 20 11 24 1 5 8 13 15 19 10 6 17 35 20 81 4 69 4 71 -22 77 -14 4
-31 3 -37 0 -7 -5 -9 -2 -5 9 8 20 -4 29 -23 16z m80 -69 c0 -5 -4 -10 -9 -10
-6 0 -13 5 -16 10 -3 6 1 10 9 10 9 0 16 -4 16 -10z m-46 -130 c13 0 17 -3 10
-10 -14 -14 -54 0 -54 18 0 12 3 13 12 4 7 -7 21 -12 32 -12z m-94 -15 c0 -8
-4 -15 -8 -15 -5 0 -9 7 -9 15 0 8 4 15 9 15 4 0 8 -7 8 -15z"/>
<path d="M3455 4199 c-18 -8 -17 -9 5 -5 14 3 34 -2 44 -10 22 -16 46 -19 46
-5 0 9 -18 16 -60 26 -8 2 -24 -1 -35 -6z"/>
<path d="M3465 4160 l20 -9 -20 -1 c-14 0 -8 -6 19 -18 47 -21 51 -35 11 -42
-21 -4 -30 -11 -30 -24 0 -21 30 -44 42 -33 8 9 -17 28 -27 22 -4 -2 -7 2 -7
9 0 8 9 11 24 8 14 -3 23 0 23 8 0 7 7 10 15 6 8 -3 15 -1 15 4 0 5 7 6 17 3
11 -4 14 -3 9 5 -4 7 -18 10 -34 6 -21 -4 -24 -3 -12 5 8 6 11 11 6 11 -6 0
-5 5 2 12 7 7 12 17 12 23 0 5 -5 3 -10 -5 -7 -11 -10 -11 -10 -2 0 7 -5 10
-11 6 -8 -4 -7 -9 2 -15 18 -11 0 -10 -26 1 -13 6 -15 9 -5 9 13 1 13 2 0 11
-8 5 -22 9 -30 9 -10 0 -8 -3 5 -9z"/>
<path d="M3458 4113 c7 -3 16 -2 19 1 4 3 -2 6 -13 5 -11 0 -14 -3 -6 -6z"/>
<path d="M6732 4080 c13 -21 38 -27 38 -10 0 9 -31 30 -44 30 -4 0 -1 -9 6
-20z"/>
<path d="M3534 4065 c-11 -7 -2 -10 33 -11 27 -1 40 1 30 3 -9 3 -15 8 -13 12
7 11 -34 8 -50 -4z"/>
<path d="M3540 4035 c0 -8 -7 -18 -15 -21 -12 -5 -12 -9 3 -29 9 -12 22 -20
29 -18 15 6 46 -23 50 -46 3 -23 34 -42 56 -35 12 4 17 2 13 -4 -4 -7 8 -14
31 -17 21 -4 53 -11 70 -15 19 -5 35 -4 39 1 3 5 10 9 15 9 6 0 8 -4 5 -9 -9
-14 152 -7 166 7 9 9 9 12 0 12 -7 0 -12 4 -12 8 0 4 9 8 20 8 15 0 18 -5 14
-23 -4 -13 -2 -23 5 -23 6 0 8 7 5 15 -4 8 -2 15 4 15 6 0 12 -4 14 -8 2 -5
16 -12 31 -16 19 -4 26 -3 22 4 -3 5 -16 10 -28 10 l-21 0 22 16 c13 9 26 13
29 10 4 -3 1 -6 -6 -6 -7 0 -9 -5 -6 -11 4 -6 14 -8 22 -5 8 3 11 1 8 -4 -3
-6 -3 -10 2 -11 66 -5 103 -4 103 3 0 4 -9 8 -20 8 -11 0 -23 7 -26 15 -4 8
-10 12 -15 9 -5 -3 -6 -10 -3 -16 4 -7 2 -8 -4 -4 -14 8 -4 36 13 36 7 0 16
-7 19 -16 4 -11 14 -15 30 -12 16 3 23 1 20 -7 -7 -17 88 -28 98 -12 6 9 8 9
8 0 0 -16 27 -17 32 -2 3 9 9 9 25 1 20 -11 224 -9 351 3 28 3 52 1 52 -4 0
-5 -9 -7 -20 -4 -11 3 -20 0 -20 -6 0 -6 8 -11 17 -11 15 0 14 -2 -3 -15 -10
-8 -14 -15 -9 -15 6 0 9 -27 7 -65 -2 -59 8 -85 21 -52 3 7 6 5 6 -5 1 -10 -5
-18 -13 -18 -11 0 -14 -23 -15 -110 -1 -82 2 -110 11 -110 10 0 10 -2 1 -8 -7
-4 -14 -33 -15 -65 l-2 -57 -33 0 c-18 0 -33 -5 -33 -11 0 -8 -4 -8 -13 0 -17
13 -494 13 -503 0 -3 -5 0 -9 5 -9 6 0 11 -5 11 -11 0 -5 -5 -7 -12 -3 -6 4
-8 3 -4 -4 3 -5 0 -13 -6 -15 -10 -4 -10 -6 0 -6 7 -1 11 -5 8 -10 -3 -5 0
-13 7 -19 17 -13 92 -21 108 -12 7 5 18 6 23 2 17 -10 46 -9 39 1 -4 7 1 7 13
2 26 -11 74 -15 74 -6 0 4 -6 13 -12 21 -7 8 -2 6 11 -5 17 -15 39 -20 83 -21
33 -1 54 2 48 6 -8 5 -4 9 9 13 12 3 21 0 21 -6 0 -7 5 -5 10 3 9 14 14 7 11
-13 -1 -4 9 -3 21 4 15 8 23 8 26 1 4 -12 42 -4 42 9 0 5 5 9 11 9 5 0 8 -4 5
-9 -4 -5 10 -4 29 2 28 8 38 7 52 -5 19 -16 76 -15 128 2 25 8 27 8 13 -3 -14
-11 -12 -13 18 -13 22 0 29 3 21 9 -8 6 -4 7 12 4 13 -3 34 -1 48 4 16 6 22 6
18 -1 -11 -18 86 -15 120 3 17 9 18 8 7 -5 -10 -13 -8 -15 18 -14 16 1 30 5
30 9 0 5 6 5 13 0 15 -9 227 -10 227 -1 0 7 34 5 65 -2 31 -7 35 3 8 16 -18 9
-33 21 -33 27 0 5 8 3 18 -6 10 -10 26 -17 35 -17 9 0 17 -4 17 -9 0 -5 10 -7
22 -3 11 3 19 1 16 -4 -4 -5 37 -8 95 -7 121 2 116 1 97 13 -13 8 -13 10 2 10
9 0 18 -4 20 -9 5 -15 145 -16 162 -2 12 10 15 44 7 84 -2 11 -531 9 -531 -3
0 -5 8 -7 18 -4 14 5 14 4 2 -4 -8 -6 -18 -8 -22 -5 -5 2 -15 -1 -23 -7 -9 -7
-15 -8 -15 -2 0 5 7 12 15 16 8 3 15 12 15 19 0 8 -7 20 -15 27 -8 7 -15 21
-15 30 0 10 -8 21 -17 23 -17 4 -17 5 0 6 15 1 17 13 17 106 0 61 -4 105 -10
105 -5 0 -7 -7 -3 -16 5 -14 3 -15 -18 -4 l-23 13 23 9 c17 6 22 14 18 28 -3
11 -2 18 3 15 15 -10 17 54 1 70 -8 8 -10 15 -4 15 6 0 10 16 9 37 -2 31 -7
38 -27 43 -19 5 -21 7 -8 12 9 4 22 1 28 -5 6 -6 13 -8 17 -4 11 10 -7 27 -29
27 -13 0 -17 3 -10 8 8 5 6 13 -7 30 -10 12 -22 22 -26 22 -4 0 0 -8 9 -18 10
-11 13 -23 8 -31 -6 -9 -12 -3 -20 21 -6 18 -15 29 -19 23 -9 -13 -72 -16 -72
-4 0 5 8 9 18 10 9 1 24 2 32 3 8 2 23 3 33 4 10 1 15 6 12 12 -3 6 1 7 9 4 9
-3 13 -10 10 -16 -3 -5 3 -12 15 -15 11 -3 18 -10 15 -15 -4 -6 6 -8 27 -4
l34 6 -30 -15 -30 -14 45 2 c25 1 56 -2 70 -7 22 -8 23 -7 11 8 -7 9 -19 16
-26 16 -7 0 -26 7 -41 15 -26 13 -27 15 -7 15 12 0 25 -4 28 -10 3 -5 17 -10
31 -10 13 0 24 -4 24 -10 0 -5 4 -10 10 -10 5 0 7 8 3 18 -5 14 -4 15 8 4 8
-7 14 -18 14 -24 0 -6 6 -13 14 -16 8 -3 11 0 7 7 -4 7 1 11 13 11 11 0 23 -4
26 -10 3 -5 22 -10 41 -10 23 0 33 4 28 11 -3 6 -17 9 -30 6 -18 -3 -22 -1
-14 8 7 9 5 16 -7 26 -15 12 -16 12 -10 -3 3 -10 4 -18 1 -18 -2 0 -9 12 -15
27 -8 22 -12 24 -19 13 -6 -9 -5 -17 3 -22 8 -5 6 -8 -7 -8 -12 0 -16 5 -12
16 5 12 1 14 -17 9 -36 -12 -41 -11 -45 8 -3 15 0 18 17 12 12 -4 21 -2 21 4
0 6 5 11 11 11 5 0 7 -4 4 -10 -3 -5 -2 -10 4 -10 5 0 13 5 17 11 5 8 10 6 16
-5 5 -9 16 -16 23 -16 8 0 15 -4 15 -10 0 -5 7 -10 15 -10 8 0 26 -12 40 -26
21 -20 34 -25 68 -23 23 1 48 7 55 12 8 6 12 6 12 -2 0 -6 5 -11 11 -11 5 0 7
6 3 13 -6 9 -4 9 8 -1 9 -7 38 -12 64 -12 27 1 64 -1 82 -4 22 -3 30 -2 26 6
-4 7 1 8 16 3 19 -6 22 -4 17 9 -8 21 2 21 18 0 6 -9 20 -14 31 -12 17 4 16 6
-6 16 -23 10 -20 11 25 12 46 1 49 2 31 15 -15 11 -16 15 -5 15 16 0 39 -19
39 -33 0 -4 -4 -6 -9 -2 -5 3 -12 1 -16 -4 -3 -6 -12 -8 -20 -4 -8 3 -15 0
-15 -5 0 -6 11 -9 24 -6 14 2 28 0 31 -6 3 -5 11 -10 16 -10 6 0 7 5 4 10 -3
6 -1 10 4 10 6 0 11 -4 11 -10 0 -5 7 -10 15 -10 8 0 15 5 15 10 0 6 -4 10
-10 10 -5 0 -10 5 -10 11 0 8 4 8 14 0 9 -7 17 -8 20 -2 3 5 0 12 -6 14 -8 3
-6 6 5 6 18 1 23 -14 7 -24 -20 -13 -9 -25 23 -25 31 1 31 1 12 17 l-20 16 20
-8 c17 -6 67 -16 85 -17 20 -1 30 4 25 12 -3 6 0 10 9 10 8 0 17 -5 19 -10 3
-6 4 -5 3 2 -1 7 -12 14 -24 16 -12 2 -22 8 -22 13 0 5 -6 9 -14 9 -8 0 -17 4
-20 8 -2 4 16 5 42 2 27 -3 46 -10 45 -17 -1 -6 4 -16 12 -23 21 -17 57 8 44
32 -5 9 -15 15 -23 12 -7 -3 -20 2 -29 10 -9 9 -22 16 -29 16 -10 0 -9 -3 2
-10 10 -7 3 -8 -24 -5 -49 7 -60 15 -18 15 16 0 32 6 34 12 3 9 12 8 32 -6 15
-9 47 -18 71 -19 37 -2 42 -4 34 -19 -8 -15 -6 -15 24 -1 17 9 33 17 35 18 10
8 -14 34 -34 38 -32 6 -31 -6 4 -21 l27 -12 -30 6 c-31 6 -48 22 -38 36 2 5
14 6 26 2 15 -4 19 -3 12 4 -11 11 -45 16 -85 13 -23 -2 -24 -3 -5 -11 19 -8
19 -9 -3 -9 -16 -1 -21 -5 -16 -13 6 -9 3 -9 -9 0 -11 9 -27 11 -49 6 -18 -4
-46 -6 -62 -5 -16 1 -33 -4 -38 -11 -5 -8 -8 -9 -8 -2 0 8 -41 12 -130 12 -86
1 -130 -2 -130 -9 0 -6 9 -13 20 -16 11 -3 20 -9 20 -13 0 -5 -16 -3 -35 3
-24 7 -31 13 -23 19 9 5 6 8 -10 8 -13 0 -21 -4 -18 -9 4 -5 -3 -7 -15 -4 -16
5 -18 8 -7 15 8 6 3 7 -17 3 -43 -10 -128 -12 -140 -4 -6 4 -26 5 -45 1 -19
-5 -45 -7 -57 -6 -12 1 -20 -3 -17 -8 3 -4 10 -6 15 -2 5 3 14 -8 20 -25 6
-17 15 -31 20 -31 5 0 9 -4 9 -9 0 -5 -14 -4 -30 2 -17 7 -26 13 -21 15 5 2 7
10 4 18 -3 9 -13 12 -23 9 -13 -4 -17 0 -15 17 3 23 1 23 -105 23 -60 0 -112
-3 -116 -8 -10 -10 -26 -9 -20 1 3 5 -24 8 -59 8 -46 -1 -65 -5 -65 -14 0 -9
-14 -11 -52 -8 -33 4 -43 3 -28 -2 20 -6 22 -9 8 -14 -9 -4 -19 -4 -23 0 -10
10 -75 10 -69 0 3 -5 20 -8 37 -6 36 4 48 -17 15 -26 -33 -9 -58 -6 -33 3 16
7 11 10 -25 16 -65 12 -80 13 -74 3 3 -4 20 -8 38 -8 20 0 33 -5 33 -13 0 -15
-34 -20 -42 -6 -4 5 -11 7 -16 3 -6 -3 -17 2 -24 12 -8 11 -15 14 -15 8 0 -16
-47 -5 -62 15 -11 14 -11 14 2 5 20 -15 65 -11 65 6 0 7 9 16 20 21 16 6 14 8
-11 8 -17 1 -37 -6 -44 -14 -7 -8 -17 -12 -23 -8 -6 4 -3 9 9 14 11 5 -11 8
-56 8 -52 1 -70 -2 -60 -9 13 -8 12 -10 -2 -10 -10 0 -18 5 -18 10 0 6 -14 10
-31 10 -20 0 -28 -4 -23 -12 5 -8 2 -9 -12 -4 -10 5 -28 10 -39 13 -16 4 -17
3 -5 -6 9 -7 10 -11 3 -11 -6 0 -14 4 -17 8 -2 4 -30 9 -61 10 -53 2 -56 1
-40 -14 15 -16 15 -18 1 -26 -9 -5 -16 -13 -16 -19 0 -5 9 -4 20 3 16 11 22 9
34 -7 24 -32 19 -35 -28 -19 -47 16 -58 30 -51 64 4 20 1 20 -116 18 -83 -2
-118 -6 -115 -14 3 -6 -1 -17 -7 -23 -8 -8 -8 -11 1 -11 7 0 12 5 12 11 0 6 6
9 14 6 7 -3 19 0 25 6 8 8 11 8 11 -1 0 -9 6 -10 18 -4 12 6 22 3 35 -10 13
-14 14 -18 3 -18 -8 0 -18 5 -21 10 -8 13 -25 13 -25 1 0 -5 14 -12 30 -16 17
-4 30 -11 30 -16 0 -6 -9 -7 -22 -3 -38 12 -88 13 -88 2 0 -6 12 -8 28 -5 15
3 33 2 40 -1 6 -4 -9 -9 -33 -10 -34 -1 -45 2 -45 13 0 9 -11 20 -24 25 -31
12 -55 50 -31 50 9 0 14 -4 11 -8 -3 -5 1 -9 9 -9 23 0 17 16 -7 21 -33 7 -58
4 -58 -6 0 -5 -9 -4 -19 2 -11 5 -28 10 -38 9 -16 0 -16 -1 2 -9 l20 -9 -20
-1 c-17 -2 -16 -3 5 -9 14 -5 32 -4 41 0 21 10 55 -13 45 -30 -5 -8 -3 -12 5
-10 29 3 50 -1 44 -11 -8 -13 -102 -13 -110 0 -4 7 3 9 22 5 22 -5 19 -2 -12
13 -22 10 -53 22 -70 26 -27 8 -28 9 -10 16 26 11 25 11 -77 16 -61 3 -88 1
-88 -7 0 -6 7 -9 15 -5 8 3 15 1 15 -5 0 -12 -56 -5 -73 9 -14 12 -222 20
-233 9 -12 -11 -42 -8 -47 6 -4 9 -6 9 -6 -1 -1 -7 -6 -10 -13 -6 -7 5 -8 3
-3 -6 6 -10 4 -12 -8 -7 -10 3 -17 2 -17 -4 0 -6 -4 -7 -10 -4 -5 3 -25 2 -44
-3 -27 -8 -36 -7 -40 4 -7 19 17 28 52 21 15 -3 35 0 45 8 16 12 16 13 -3 18
-11 3 -20 2 -20 -1 0 -4 -17 -8 -38 -10 -20 -1 -39 -7 -40 -12 -2 -6 -13 1
-24 15 -11 14 -26 25 -34 25 -8 0 -14 5 -14 10 0 13 6 13 32 -1 14 -8 23 -8
29 0 5 6 6 9 3 6 -4 -2 -20 5 -35 16 -25 17 -29 18 -29 4z m3060 -55 c0 -5 -4
-10 -10 -10 -5 0 -10 5 -10 10 0 6 5 10 10 10 6 0 10 -4 10 -10z m-10 -30 c18
-12 2 -12 -25 0 -13 6 -15 9 -5 9 8 0 22 -4 30 -9z m-2591 -16 c2 -2 -3 -4
-12 -4 -9 0 -17 -7 -17 -15 0 -8 -6 -15 -12 -15 -7 0 -20 -5 -28 -10 -12 -8
-13 -11 -1 -19 7 -5 9 -11 4 -14 -5 -3 -14 3 -21 13 -10 16 -7 20 18 32 36 15
38 25 8 38 -18 7 -13 8 17 4 22 -4 42 -8 44 -10z m591 -4 c-14 -4 -32 -4 -40
-1 -10 3 -4 8 15 11 37 8 59 -2 25 -10z m55 10 c3 -5 2 -10 -4 -10 -5 0 -13 5
-16 10 -3 6 -2 10 4 10 5 0 13 -4 16 -10z m130 -10 c3 -5 -4 -6 -15 -3 -11 3
-22 9 -25 13 -3 5 4 6 15 3 11 -3 22 -9 25 -13z m230 10 c-3 -5 2 -10 12 -10
15 0 16 -2 3 -10 -10 -6 -16 -6 -18 0 -5 15 -22 12 -22 -4 0 -18 25 -27 38
-14 6 6 16 7 23 2 18 -11 -26 -25 -59 -18 -26 5 -26 5 -8 -10 11 -9 15 -16 9
-16 -7 0 -15 5 -18 11 -4 6 -12 8 -19 6 -6 -3 -25 1 -41 8 -30 12 -30 12 15
11 34 -1 45 3 45 14 0 8 5 20 10 27 12 15 39 17 30 3z m1199 -5 c3 -9 0 -15
-8 -15 -7 0 -13 7 -13 15 0 8 4 15 8 15 4 0 9 -7 13 -15z m76 4 c-12 -9 -11
-10 8 -6 21 5 29 -3 16 -16 -9 -8 -44 11 -44 23 0 6 8 10 18 10 15 0 15 -2 2
-11z m-2505 -9 c-28 -12 -37 -12 -30 0 3 6 16 10 28 9 21 0 21 -1 2 -9z m443
-5 c2 -1 -8 -5 -22 -7 -14 -3 -23 -1 -20 4 3 5 -7 6 -23 3 -22 -4 -24 -3 -8 4
16 7 62 5 73 -4z m1324 6 c-11 -6 -10 -10 4 -15 9 -3 14 -9 11 -12 -3 -3 -15
1 -27 9 -15 11 -18 16 -8 20 21 9 34 7 20 -2z m165 3 c-3 -3 -12 -4 -19 -1 -8
3 -5 6 6 6 11 1 17 -2 13 -5z m198 -8 c11 1 31 5 45 8 14 4 19 4 12 0 -6 -3
-10 -10 -7 -15 4 -5 -2 -6 -11 -2 -11 4 -15 2 -11 -4 4 -7 -10 -7 -43 0 -28 5
-50 13 -50 18 0 5 10 5 23 0 12 -4 31 -7 42 -5z m-2136 -14 c17 2 28 1 26 -3
-4 -6 -75 -18 -75 -13 0 1 -3 11 -7 21 -6 16 -5 16 10 4 9 -7 30 -11 46 -9z
m321 -3 c0 -13 -24 -11 -45 4 -16 13 -15 14 13 9 18 -2 32 -8 32 -13z m716 6
c-4 -10 1 -15 15 -15 11 0 27 -7 36 -15 8 -8 20 -12 26 -9 9 5 8 3 0 -6 -10
-11 -15 -11 -29 1 -19 15 -46 18 -55 6 -3 -5 -14 0 -24 10 -18 17 -18 18 3 21
12 2 22 8 22 13 0 5 3 9 6 9 3 0 4 -7 0 -15z m58 7 c2 -4 -4 -9 -15 -9 -10 -1
-19 2 -19 8 0 11 27 12 34 1z m86 -7 c0 -1 -9 -5 -19 -8 -13 -3 -18 -1 -14 9
4 10 33 10 33 -1z m525 5 c-28 -12 -37 -12 -30 0 3 6 16 10 28 9 21 0 21 -1 2
-9z m895 1 c0 -5 -10 -7 -22 -4 -19 3 -20 2 -7 -6 20 -13 67 -2 47 11 -10 8
-10 9 2 5 8 -2 15 -8 15 -13 0 -18 17 -35 30 -30 7 2 16 -2 19 -9 7 -20 -34
-15 -52 5 -8 8 -11 9 -7 3 3 -7 1 -13 -4 -13 -6 0 -11 6 -11 14 0 8 -6 14 -12
13 -34 -1 -48 4 -48 18 0 9 9 15 25 15 14 0 25 -4 25 -9z m-2663 -18 c3 -7 -3
-9 -16 -6 -12 3 -21 10 -21 15 0 13 32 6 37 -9z m133 -4 c0 -5 15 -18 33 -29
17 -11 26 -20 19 -20 -7 0 -29 16 -50 35 -20 19 -29 32 -19 29 9 -3 17 -10 17
-15z m808 9 c-3 -14 -38 -28 -52 -20 -7 4 24 22 52 31 1 1 1 -5 0 -11z m1338
3 c-3 -5 11 -12 31 -16 l38 -7 -34 -14 c-39 -16 -91 -19 -91 -4 0 6 -15 10
-32 10 -18 1 -44 7 -58 16 -19 11 -20 14 -5 10 11 -3 37 -8 58 -12 20 -3 40
-10 43 -15 7 -12 56 -11 74 2 13 9 13 10 0 8 -8 -1 -26 -1 -39 0 -24 1 -24 1
-5 16 22 17 27 18 20 6z m109 -2 c18 -9 18 -9 -3 -5 -17 3 -22 1 -18 -10 3 -8
1 -14 -4 -14 -6 0 -10 6 -10 14 0 8 -12 17 -27 19 -24 3 -22 4 7 5 19 0 44 -4
55 -9z m-2441 -11 c-3 -4 -11 -5 -19 -1 -21 7 -19 12 4 10 11 0 18 -5 15 -9z
m481 -6 c-3 -3 -11 0 -18 7 -9 10 -8 11 6 5 10 -3 15 -9 12 -12z m146 8 c10
-6 19 -17 19 -25 0 -20 -17 -19 -28 1 -6 12 -18 15 -36 12 -32 -6 -34 0 -3 12
29 11 26 11 48 0z m1909 6 c0 -11 -19 -15 -25 -6 -3 5 1 10 9 10 9 0 16 -2 16
-4z m94 -5 c15 -6 16 -9 5 -13 -8 -3 -20 1 -27 8 -14 15 -7 17 22 5z m271 -11
c3 -5 -1 -10 -9 -10 -9 0 -16 5 -16 10 0 6 4 10 9 10 6 0 13 -4 16 -10z
m-2741 -8 c9 -16 -9 -29 -29 -21 -18 7 -18 8 5 8 20 1 22 3 10 11 -9 6 -10 10
-3 10 6 0 14 -4 17 -8z m1290 2 c9 -3 16 -12 16 -19 0 -7 7 -15 14 -18 11 -4
13 -1 9 10 -4 11 -3 14 6 9 20 -13 66 -15 73 -3 4 7 12 4 23 -6 9 -10 21 -14
27 -11 7 4 6 9 -2 14 -7 4 -8 10 -4 12 16 9 47 0 56 -16 10 -17 34 -21 42 -8
2 4 0 14 -6 22 -8 12 -9 12 -4 -2 7 -23 -19 -24 -28 -2 -9 23 -8 24 13 24 11
0 30 -14 42 -32 18 -25 19 -30 6 -25 -9 3 -19 2 -22 -3 -4 -6 3 -10 14 -10 12
0 21 -4 21 -10 0 -5 -4 -10 -10 -10 -5 0 -10 -4 -10 -10 0 -5 7 -10 15 -10 9
0 15 -9 15 -24 0 -13 6 -27 13 -29 9 -4 9 -6 -1 -6 -7 -1 -15 6 -18 14 -8 21
-19 19 -21 -5 -1 -11 6 -22 18 -25 24 -8 24 -16 -1 -43 -22 -23 -26 -42 -10
-42 6 0 10 -5 10 -11 0 -5 -4 -7 -10 -4 -6 4 -10 -23 -10 -74 l0 -81 28 -1 27
-2 -28 -4 c-25 -4 -28 -8 -26 -41 2 -47 -2 -64 -21 -80 -13 -12 -13 -13 0 -6
8 4 12 4 8 -1 -4 -4 -80 -8 -168 -7 -158 1 -166 0 -161 -30 2 -12 -17 -10 -24
2 -3 6 -1 10 4 10 6 0 11 5 11 10 0 6 -23 9 -54 8 l-54 -2 29 -22 c24 -17 27
-23 14 -28 -9 -3 -13 -2 -10 4 3 6 -2 10 -11 10 -10 0 -14 3 -11 7 4 3 -1 12
-11 19 -13 9 -19 9 -24 1 -6 -9 -8 -8 -8 1 0 8 -5 10 -12 6 -7 -5 -9 -2 -5 9
3 9 1 17 -6 20 -6 2 -10 18 -9 35 1 20 -2 32 -10 32 -9 0 -9 3 2 10 8 5 11 12
7 16 -4 4 -2 13 4 20 15 18 2 53 -24 65 -19 8 -19 9 6 4 27 -5 27 -5 27 50 0
30 -4 55 -10 55 -5 0 -10 -5 -10 -11 0 -5 -5 -7 -12 -3 -8 5 -5 11 9 17 16 7
22 19 22 46 0 20 2 60 4 88 3 29 1 50 -4 47 -4 -2 -13 5 -19 16 -6 12 -7 20
-1 20 5 0 11 -5 13 -11 3 -8 10 -5 21 6 10 10 26 15 37 12 11 -3 22 -1 25 3 3
5 22 6 43 4 28 -4 33 -3 22 5 -8 6 -10 11 -5 11 6 0 20 -7 31 -15 20 -13 59
-13 73 0 14 14 -24 23 -40 9 -8 -8 -19 -11 -22 -7 -13 12 -7 22 16 26 12 2 23
5 24 6 1 0 8 -2 17 -5z m-1124 -14 c0 -5 -4 -10 -9 -10 -6 0 -13 5 -16 10 -3
6 1 10 9 10 9 0 16 -4 16 -10z m649 -6 c10 -9 -35 -3 -49 6 -11 8 -7 9 15 4
17 -4 32 -8 34 -10z m211 -4 c0 -5 -2 -10 -4 -10 -3 0 -8 5 -11 10 -3 6 -1 10
4 10 6 0 11 -4 11 -10z m-5 -60 c3 -5 1 -10 -4 -10 -6 0 -11 5 -11 10 0 6 2
10 4 10 3 0 8 -4 11 -10z m605 -10 c0 -5 -4 -10 -10 -10 -5 0 -10 5 -10 10 0
6 5 10 10 10 6 0 10 -4 10 -10z m-593 -16 c-3 -3 -12 -4 -19 -1 -8 3 -5 6 6 6
11 1 17 -2 13 -5z m-32 -24 c3 -5 1 -10 -4 -10 -6 0 -11 5 -11 10 0 6 2 10 4
10 3 0 8 -4 11 -10z m41 -99 c-3 -5 -17 -11 -32 -14 -29 -5 -20 9 11 16 11 3
21 5 23 6 2 0 1 -3 -2 -8z m-26 -71 c0 -5 -5 -10 -11 -10 -5 0 -7 5 -4 10 3 6
8 10 11 10 2 0 4 -4 4 -10z m617 -49 c0 -11 -5 -18 -9 -15 -4 3 -5 11 -1 19 7
21 12 19 10 -4z m-594 -58 c-7 -2 -19 -2 -25 0 -7 3 -2 5 12 5 14 0 19 -2 13
-5z m-28 -53 c3 -5 -1 -10 -10 -10 -9 0 -13 5 -10 10 3 6 8 10 10 10 2 0 7 -4
10 -10z m15 -75 c0 -8 -4 -15 -8 -15 -5 0 -9 7 -9 15 0 8 4 15 9 15 4 0 8 -7
8 -15z m583 -2 c-7 -2 -19 -2 -25 0 -7 3 -2 5 12 5 14 0 19 -2 13 -5z m51 -24
c3 -3 -6 -6 -20 -7 -14 -1 -23 2 -20 7 6 9 31 9 40 0z m-51 -22 c4 3 7 2 7 -4
0 -12 -30 -26 -38 -18 -3 3 1 5 8 5 9 0 7 7 -6 23 -19 22 -19 22 2 4 11 -9 24
-14 27 -10z m-913 -8 c0 -6 6 -7 13 -2 24 15 72 11 90 -8 10 -10 25 -19 34
-19 9 0 13 -3 9 -7 -14 -14 -31 -8 -53 17 -12 14 -23 20 -23 14 0 -6 -14 -9
-32 -7 -25 3 -30 2 -18 -6 9 -7 10 -11 3 -11 -6 0 -15 5 -18 10 -3 6 -17 10
-30 10 -35 0 -39 17 -5 18 17 0 30 -4 30 -9z m135 1 c3 -5 1 -10 -4 -10 -6 0
-11 5 -11 10 0 6 2 10 4 10 3 0 8 -4 11 -10z m653 -15 c-3 -3 -9 2 -12 12 -6
14 -5 15 5 6 7 -7 10 -15 7 -18z m326 10 c11 -8 15 -15 10 -15 -6 0 -19 7 -30
15 -10 8 -14 14 -9 14 6 0 19 -6 29 -14z m221 5 c3 -5 1 -10 -4 -10 -6 0 -11
5 -11 10 0 6 2 10 4 10 3 0 8 -4 11 -10z m-1398 -12 c4 -7 15 -14 23 -15 8 -1
32 -6 53 -12 34 -8 38 -7 33 7 -5 14 -3 13 8 -2 8 -10 19 -15 25 -12 5 4 13 1
17 -5 5 -9 -8 -10 -50 -5 -50 7 -55 6 -49 -10 4 -12 3 -15 -6 -10 -7 5 -10 14
-7 22 4 10 -3 14 -24 14 -20 0 -30 5 -30 15 0 12 -12 15 -55 14 -31 -1 -59 1
-62 5 -3 3 21 6 55 6 38 0 64 -5 69 -12z m679 5 c-3 -4 -17 -8 -29 -10 -17 -2
-19 -1 -7 7 17 11 47 14 36 3z m441 1 c-3 -3 -12 -4 -19 -1 -8 3 -5 6 6 6 11
1 17 -2 13 -5z m363 -20 c0 -2 -9 0 -20 6 -11 6 -20 13 -20 16 0 2 9 0 20 -6
11 -6 20 -13 20 -16z m-1655 6 c3 -5 2 -10 -4 -10 -5 0 -13 5 -16 10 -3 6 -2
10 4 10 5 0 13 -4 16 -10z m571 -1 c3 -5 -3 -9 -13 -9 -15 0 -16 -2 -3 -10 9
-6 10 -10 3 -10 -7 0 -17 8 -22 18 -6 10 -11 12 -11 4 0 -7 -5 -10 -10 -7 -6
4 -8 10 -5 14 6 11 54 11 61 0z m1045 -6 c13 -16 12 -17 -3 -5 -13 10 -17 10
-21 0 -2 -7 -8 -9 -13 -5 -6 6 10 25 22 27 1 0 8 -8 15 -17z m-1547 -2 c3 -5
-1 -11 -9 -15 -15 -6 -29 7 -18 18 9 9 21 8 27 -3z m390 -12 c5 -4 -5 -6 -22
-5 -17 1 -34 5 -39 10 -5 5 -1 7 9 3 10 -3 20 -2 24 4 3 6 9 7 13 2 3 -4 10
-11 15 -14z m146 6 c-7 -8 -17 -15 -22 -15 -11 0 14 29 26 30 5 0 3 -7 -4 -15z
m570 6 c0 -5 8 -12 18 -14 14 -4 14 -5 1 -6 -9 0 -22 6 -29 14 -9 10 -9 15 -1
15 6 0 11 -4 11 -9z m65 -9 c-3 -3 -11 0 -18 7 -9 10 -8 11 6 5 10 -3 15 -9
12 -12z m268 11 c-7 -2 -19 -2 -25 0 -7 3 -2 5 12 5 14 0 19 -2 13 -5z m-1552
-17 c-6 -7 -7 -16 -3 -21 4 -4 1 -6 -7 -3 -22 7 -21 34 1 35 15 2 17 -1 9 -11z
m950 -8 c5 -7 5 -15 2 -18 -3 -3 -8 1 -10 8 -3 6 -12 12 -21 12 -9 0 -24 5
-32 11 -11 8 -7 9 20 5 18 -4 37 -12 41 -18z m112 8 c7 -8 26 -12 43 -10 28 4
28 4 -3 -6 -28 -9 -36 -7 -53 10 -11 11 -16 20 -11 20 5 0 16 -6 24 -14z m304
8 c-3 -3 -12 -4 -19 -1 -8 3 -5 6 6 6 11 1 17 -2 13 -5z m87 -3 c3 -5 15 -7
26 -4 11 3 20 0 20 -6 0 -6 5 -11 11 -11 5 0 8 4 5 9 -4 5 3 7 14 4 11 -3 20
-8 20 -12 0 -8 -87 -7 -96 2 -3 3 -13 3 -22 0 -10 -4 -13 -2 -8 5 5 8 2 10 -8
6 -9 -3 -16 -1 -16 5 0 13 46 15 54 2z m-1387 -14 c0 -9 -9 -12 -26 -9 -23 5
-24 6 -6 13 29 11 32 11 32 -4z m114 -4 c13 -16 12 -17 -3 -4 -17 13 -22 21
-14 21 2 0 10 -8 17 -17z m646 11 c-3 -3 -12 -4 -19 -1 -8 3 -5 6 6 6 11 1 17
-2 13 -5z m358 -4 c-3 -5 -10 -10 -16 -10 -5 0 -9 5 -9 10 0 6 7 10 16 10 8 0
12 -4 9 -10z m505 -10 c0 -5 -10 -10 -22 -10 -19 0 -20 2 -8 10 19 13 30 13
30 0z"/>
<path d="M5380 3690 c0 -5 7 -10 16 -10 8 0 12 5 9 10 -3 6 -10 10 -16 10 -5
0 -9 -4 -9 -10z"/>
<path d="M3618 4033 c6 -2 9 -10 6 -15 -4 -6 -3 -8 2 -5 6 3 16 2 24 -4 10 -6
11 -9 3 -9 -7 0 -13 -4 -13 -9 0 -5 10 -7 22 -3 21 5 21 6 -8 29 -16 12 -33
23 -39 22 -5 0 -4 -3 3 -6z"/>
<path d="M3601 3991 c-8 -6 -9 -11 -3 -15 6 -3 14 -1 17 5 9 14 2 20 -14 10z"/>
<path d="M3557 3953 c-3 -5 4 -15 16 -23 21 -12 21 -12 7 6 -8 10 -15 20 -16
22 -1 2 -4 -1 -7 -5z"/>
<path d="M5150 3944 l-34 -11 39 -5 c22 -3 45 -2 50 2 12 8 56 13 113 14 23 0
42 4 42 9 0 11 -168 4 -210 -9z m50 -4 c0 -5 -2 -10 -4 -10 -3 0 -8 5 -11 10
-3 6 -1 10 4 10 6 0 11 -4 11 -10z"/>
<path d="M3638 3943 c6 -2 18 -2 25 0 6 3 1 5 -13 5 -14 0 -19 -2 -12 -5z"/>
<path d="M4676 3924 c-4 -10 -1 -14 6 -12 15 5 23 28 10 28 -5 0 -13 -7 -16
-16z"/>
<path d="M4330 3910 c20 -13 33 -13 25 0 -3 6 -14 10 -23 10 -15 0 -15 -2 -2
-10z"/>
<path d="M4458 3903 c6 -2 18 -2 25 0 6 3 1 5 -13 5 -14 0 -19 -2 -12 -5z"/>
<path d="M6591 3894 c0 -11 3 -14 6 -6 3 7 2 16 -1 19 -3 4 -6 -2 -5 -13z"/>
<path d="M4715 3890 c3 -5 8 -10 11 -10 2 0 4 5 4 10 0 6 -5 10 -11 10 -5 0
-7 -4 -4 -10z"/>
<path d="M2971 3448 c-10 -25 -9 -26 93 -111 28 -24 50 -36 58 -31 7 4 10 4 6
-1 -10 -11 11 -37 23 -29 5 3 8 0 7 -8 -2 -7 5 -12 15 -11 10 0 16 -2 12 -5
-6 -6 43 -39 165 -112 45 -27 72 -38 87 -34 13 4 21 10 18 14 -2 4 7 5 21 2
30 -5 26 -11 -12 -18 -16 -3 -30 -7 -32 -9 -5 -5 61 -40 71 -37 4 1 7 -3 7 -9
0 -5 4 -8 9 -5 5 3 14 -1 21 -9 7 -9 35 -27 63 -41 39 -19 52 -22 58 -12 7 10
9 8 9 -5 0 -10 5 -15 10 -12 6 3 10 1 10 -4 0 -6 6 -11 13 -11 6 0 35 -12 62
-26 28 -14 62 -26 77 -27 14 -1 24 -6 20 -11 -3 -5 2 -7 11 -3 8 3 21 -1 28
-9 7 -9 21 -13 31 -11 10 3 16 1 13 -4 -5 -7 29 -21 55 -24 5 0 49 -17 95 -35
65 -26 86 -32 92 -26 3 3 12 1 19 -5 12 -9 45 -19 89 -24 11 -1 19 -6 18 -11
-1 -5 15 -10 35 -12 21 -1 52 -7 70 -13 57 -19 312 -56 312 -46 0 6 5 6 13 0
19 -16 69 -22 232 -28 166 -7 610 15 636 31 5 3 30 7 56 10 47 6 153 27 203
41 14 4 42 7 62 7 21 0 33 3 27 7 -6 3 9 9 33 13 50 8 314 94 382 125 26 12
52 19 58 15 7 -4 8 -3 4 4 -4 7 -1 12 6 12 7 0 68 27 136 61 111 54 122 62
110 77 -12 15 -11 16 4 4 14 -11 26 -8 78 18 34 17 59 34 56 37 -3 3 -14 0
-23 -8 -16 -13 -17 -12 -5 3 10 12 10 18 1 24 -7 4 -19 -1 -29 -14 -13 -15
-24 -19 -41 -14 -23 6 -23 6 6 12 17 3 31 12 33 22 3 14 -1 16 -28 8 -17 -5
-40 -19 -51 -32 -11 -13 -18 -17 -14 -10 4 8 -5 7 -29 -5 -26 -12 -33 -19 -24
-26 9 -6 8 -7 -4 -3 -9 3 -31 -2 -47 -10 -17 -9 -36 -12 -42 -8 -7 4 -9 3 -6
-3 3 -5 -10 -15 -30 -22 -27 -10 -32 -15 -22 -23 11 -8 10 -9 -4 -4 -10 3 -36
-4 -59 -15 -22 -11 -48 -22 -57 -24 -9 -2 -60 -20 -114 -40 -54 -19 -103 -33
-108 -30 -5 4 -9 2 -9 -2 0 -12 -110 -46 -230 -73 -52 -12 -106 -26 -120 -32
-14 -6 -35 -10 -47 -9 -12 1 -60 -4 -105 -12 -46 -9 -90 -15 -98 -15 -30 0
-157 -13 -205 -20 -28 -4 -67 -5 -87 -2 -20 4 -35 4 -33 0 2 -4 -17 -7 -42 -8
-31 0 -51 -6 -59 -17 -8 -10 -14 -12 -19 -6 -3 6 0 12 7 12 7 1 -5 5 -27 9
-24 5 -48 4 -60 -3 -19 -9 -19 -9 -5 8 10 13 11 16 2 11 -15 -9 -127 -9 -217
-1 -33 4 -75 7 -92 7 -18 1 -33 5 -33 9 0 4 -16 9 -35 11 -20 2 -35 0 -35 -7
0 -7 -3 -7 -8 1 -12 18 -79 35 -147 38 -11 1 -22 4 -25 7 -3 3 -36 13 -74 23
-49 12 -72 14 -81 6 -10 -8 -15 -8 -21 1 -4 8 -3 9 4 5 7 -4 12 -3 12 2 0 12
-44 24 -63 16 -8 -3 -17 1 -20 9 -5 13 -26 20 -102 34 -10 2 -22 7 -25 12 -4
6 -45 20 -65 22 -2 0 -43 18 -91 40 -48 22 -93 38 -100 35 -7 -3 -17 1 -21 8
-9 15 -70 46 -90 46 -7 0 -13 3 -13 8 0 4 -39 28 -87 52 -49 25 -90 48 -93 51
-3 4 -23 16 -45 27 -22 11 -69 41 -104 66 -36 24 -69 43 -73 40 -4 -3 -8 -1
-8 4 0 5 -24 25 -54 44 -51 33 -56 35 -76 21 -17 -12 -19 -17 -9 -24 8 -5 9
-9 3 -9 -19 0 -24 13 -12 28 23 27 16 43 -37 82 -63 46 -72 48 -84 18z m119
-64 c0 -2 -9 0 -20 6 -11 6 -20 13 -20 16 0 2 9 0 20 -6 11 -6 20 -13 20 -16z
m-1 -20 c2 -2 -7 -4 -21 -4 -15 0 -25 6 -25 14 0 12 5 13 21 4 12 -6 23 -12
25 -14z m71 -48 c0 -3 -4 -8 -10 -11 -5 -3 -10 -1 -10 4 0 6 5 11 10 11 6 0
10 -2 10 -4z m66 -29 c4 -3 -6 -5 -20 -3 -14 1 -29 5 -32 9 -3 3 6 4 20 3 15
-2 29 -6 32 -9z m189 -117 c3 -5 2 -10 -4 -10 -5 0 -13 5 -16 10 -3 6 -2 10 4
10 5 0 13 -4 16 -10z m239 -135 c11 -8 16 -18 12 -22 -4 -4 -11 -1 -16 7 -5 7
-16 15 -25 16 -25 4 -32 14 -9 14 10 0 28 -7 38 -15z m2987 -8 c-10 -9 -11 -8
-5 6 3 10 9 15 12 12 3 -3 0 -11 -7 -18z m-46 -45 c-3 -3 -11 0 -18 7 -9 10
-8 11 6 5 10 -3 15 -9 12 -12z m-2867 -11 c57 -29 138 -49 127 -31 -3 6 1 7
10 3 13 -4 14 -7 3 -14 -15 -10 -79 -1 -92 12 -6 5 -17 9 -25 9 -9 0 -25 7
-35 15 -22 17 -15 20 12 6z m210 -76 c-3 -3 -9 2 -12 12 -6 14 -5 15 5 6 7 -7
10 -15 7 -18z m67 -25 c3 -5 1 -10 -4 -10 -6 0 -11 5 -11 10 0 6 2 10 4 10 3
0 8 -4 11 -10z m35 -22 c0 6 5 12 11 12 8 0 8 -5 -1 -15 -13 -16 -30 -11 -30
8 0 7 4 6 10 -3 6 -10 10 -11 10 -2z m167 -24 c-3 -3 -12 -4 -19 -1 -8 3 -5 6
6 6 11 1 17 -2 13 -5z m612 -134 c-15 -10 -41 -1 -34 10 3 5 14 6 26 3 15 -4
17 -8 8 -13z m748 14 c-3 -3 -12 -4 -19 -1 -8 3 -5 6 6 6 11 1 17 -2 13 -5z
m-703 -23 c3 -4 18 -6 33 -4 l28 4 -25 -15 c-29 -17 -44 -20 -35 -7 3 6 -3 14
-12 20 -10 6 -13 11 -6 11 6 0 14 -4 17 -9z m264 -16 c-3 -3 -9 2 -12 12 -6
14 -5 15 5 6 7 -7 10 -15 7 -18z m55 8 c-7 -2 -19 -2 -25 0 -7 3 -2 5 12 5 14
0 19 -2 13 -5z m-16 -19 c-3 -3 -12 -4 -19 -1 -8 3 -5 6 6 6 11 1 17 -2 13 -5z"/>
<path d="M7114 3369 l-19 -22 34 5 c30 4 32 3 17 -8 -10 -7 -15 -17 -11 -23 3
-7 0 -8 -9 -5 -9 3 -14 9 -11 13 2 4 -2 8 -9 8 -8 0 -12 -6 -9 -14 7 -17 -5
-17 -23 2 -13 13 -17 13 -30 1 -18 -19 -18 -32 1 -16 8 6 19 9 25 5 8 -5 5
-11 -6 -20 -13 -9 -23 -10 -35 -2 -26 16 -111 -40 -102 -68 5 -18 4 -18 -12
-5 -15 13 -19 12 -30 -3 -7 -9 -17 -17 -23 -17 -5 0 -13 -7 -16 -16 -9 -22 -8
-24 9 -18 8 4 15 1 15 -6 0 -6 -10 -10 -22 -8 -17 2 -22 9 -20 23 2 12 0 16
-5 9 -4 -6 -18 -14 -30 -18 -27 -9 -21 -27 17 -49 29 -17 29 -17 103 27 70 41
180 117 202 139 7 7 4 8 -7 4 -10 -4 -18 -2 -18 4 0 7 10 9 23 6 15 -4 33 3
57 23 19 16 29 30 21 30 -8 0 -24 9 -36 20 l-22 20 -19 -21z m31 1 c3 -5 -1
-10 -10 -10 -9 0 -13 5 -10 10 3 6 8 10 10 10 2 0 7 -4 10 -10z m-66 -106 c-6
-8 -19 -14 -28 -13 -10 0 -8 3 7 10 14 5 20 13 16 20 -4 8 -3 9 5 5 9 -6 9
-11 0 -22z m-54 6 c-3 -5 -12 -10 -18 -10 -7 0 -6 4 3 10 19 12 23 12 15 0z
m-75 -30 c0 -5 -5 -10 -11 -10 -5 0 -7 5 -4 10 3 6 8 10 11 10 2 0 4 -4 4 -10z
m37 -33 c2 -3 -7 -7 -20 -9 -15 -3 -24 0 -24 8 0 11 33 11 44 1z m-83 -18
c-30 -12 -37 -10 -24 5 6 8 19 12 27 9 14 -6 14 -8 -3 -14z m16 -23 c0 -9 -30
-14 -35 -6 -4 6 3 10 14 10 12 0 21 -2 21 -4z m-75 -36 c8 -13 -5 -13 -25 0
-13 8 -13 10 2 10 9 0 20 -4 23 -10z"/>
<path d="M5083 2713 c9 -2 23 -2 30 0 6 3 -1 5 -18 5 -16 0 -22 -2 -12 -5z"/>
</g>
</svg>
